%TF.GenerationSoftware,KiCad,Pcbnew,5.1.7-a382d34a8~88~ubuntu16.04.1*%
%TF.CreationDate,2021-06-30T18:42:57+02:00*%
%TF.ProjectId,555-piezo-trigger,3535352d-7069-4657-9a6f-2d7472696767,rev?*%
%TF.SameCoordinates,Original*%
%TF.FileFunction,Soldermask,Top*%
%TF.FilePolarity,Negative*%
%FSLAX46Y46*%
G04 Gerber Fmt 4.6, Leading zero omitted, Abs format (unit mm)*
G04 Created by KiCad (PCBNEW 5.1.7-a382d34a8~88~ubuntu16.04.1) date 2021-06-30 18:42:57*
%MOMM*%
%LPD*%
G01*
G04 APERTURE LIST*
%ADD10O,1.700000X1.700000*%
%ADD11R,1.700000X1.700000*%
%ADD12R,1.600000X1.600000*%
%ADD13C,1.600000*%
%ADD14O,1.600000X1.600000*%
%ADD15O,1.500000X1.050000*%
%ADD16R,1.500000X1.050000*%
G04 APERTURE END LIST*
D10*
%TO.C,J3*%
X88900000Y-83820000D03*
D11*
X88900000Y-86360000D03*
%TD*%
D10*
%TO.C,J1*%
X88900000Y-68580000D03*
D11*
X88900000Y-71120000D03*
%TD*%
D10*
%TO.C,J2*%
X88900000Y-76200000D03*
D11*
X88900000Y-78740000D03*
%TD*%
D12*
%TO.C,D2*%
X93980000Y-76200000D03*
D13*
X93980000Y-78740000D03*
%TD*%
%TO.C,C1*%
X129540000Y-74295000D03*
X129540000Y-69295000D03*
%TD*%
%TO.C,C2*%
X129540000Y-80645000D03*
X129540000Y-85645000D03*
%TD*%
D12*
%TO.C,D1*%
X99060000Y-71120000D03*
D14*
X106680000Y-71120000D03*
%TD*%
D15*
%TO.C,Q1*%
X111760000Y-77470000D03*
X111760000Y-76200000D03*
D16*
X111760000Y-78740000D03*
%TD*%
D14*
%TO.C,R4*%
X106680000Y-80645000D03*
D13*
X99060000Y-80645000D03*
%TD*%
%TO.C,R5*%
X99060000Y-83820000D03*
D14*
X106680000Y-83820000D03*
%TD*%
%TO.C,R2*%
X106680000Y-74295000D03*
D13*
X99060000Y-74295000D03*
%TD*%
%TO.C,RV1*%
X118110000Y-68580000D03*
X120650000Y-68580000D03*
X123190000Y-68580000D03*
%TD*%
%TO.C,RV2*%
X118110000Y-86360000D03*
X120650000Y-86360000D03*
X123190000Y-86360000D03*
%TD*%
D12*
%TO.C,U1*%
X116840000Y-81280000D03*
D14*
X124460000Y-73660000D03*
X119380000Y-81280000D03*
X121920000Y-73660000D03*
X121920000Y-81280000D03*
X119380000Y-73660000D03*
X124460000Y-81280000D03*
X116840000Y-73660000D03*
%TD*%
D13*
%TO.C,R3*%
X106680000Y-77470000D03*
D14*
X99060000Y-77470000D03*
%TD*%
D13*
%TO.C,R1*%
X106680000Y-67945000D03*
D14*
X99060000Y-67945000D03*
%TD*%
%TO.C,R6*%
X106680000Y-86995000D03*
D13*
X99060000Y-86995000D03*
%TD*%
M02*
