%TF.GenerationSoftware,KiCad,Pcbnew,5.1.7-a382d34a8~88~ubuntu16.04.1*%
%TF.CreationDate,2021-06-30T18:42:57+02:00*%
%TF.ProjectId,555-piezo-trigger,3535352d-7069-4657-9a6f-2d7472696767,rev?*%
%TF.SameCoordinates,Original*%
%TF.FileFunction,Copper,L1,Top*%
%TF.FilePolarity,Positive*%
%FSLAX46Y46*%
G04 Gerber Fmt 4.6, Leading zero omitted, Abs format (unit mm)*
G04 Created by KiCad (PCBNEW 5.1.7-a382d34a8~88~ubuntu16.04.1) date 2021-06-30 18:42:57*
%MOMM*%
%LPD*%
G01*
G04 APERTURE LIST*
%TA.AperFunction,EtchedComponent*%
%ADD10C,0.010000*%
%TD*%
%TA.AperFunction,ComponentPad*%
%ADD11O,1.700000X1.700000*%
%TD*%
%TA.AperFunction,ComponentPad*%
%ADD12R,1.700000X1.700000*%
%TD*%
%TA.AperFunction,ComponentPad*%
%ADD13R,1.600000X1.600000*%
%TD*%
%TA.AperFunction,ComponentPad*%
%ADD14C,1.600000*%
%TD*%
%TA.AperFunction,ComponentPad*%
%ADD15O,1.600000X1.600000*%
%TD*%
%TA.AperFunction,ComponentPad*%
%ADD16O,1.500000X1.050000*%
%TD*%
%TA.AperFunction,ComponentPad*%
%ADD17R,1.500000X1.050000*%
%TD*%
%TA.AperFunction,Conductor*%
%ADD18C,0.500000*%
%TD*%
%TA.AperFunction,Conductor*%
%ADD19C,0.254000*%
%TD*%
%TA.AperFunction,Conductor*%
%ADD20C,0.100000*%
%TD*%
G04 APERTURE END LIST*
D10*
%TO.C,G\u002A\u002A\u002A*%
G36*
X111555431Y-70978349D02*
G01*
X111543687Y-71103983D01*
X111524518Y-71233376D01*
X111498030Y-71364949D01*
X111464330Y-71497121D01*
X111460998Y-71508815D01*
X111425596Y-71621468D01*
X111386700Y-71724327D01*
X111342703Y-71821582D01*
X111335468Y-71836138D01*
X111301584Y-71899811D01*
X111268494Y-71953532D01*
X111233584Y-72001043D01*
X111194242Y-72046085D01*
X111174818Y-72066122D01*
X111141833Y-72097793D01*
X111113338Y-72121378D01*
X111085232Y-72139984D01*
X111058358Y-72154316D01*
X111033783Y-72166147D01*
X111014717Y-72173987D01*
X110997062Y-72178658D01*
X110976719Y-72180981D01*
X110949589Y-72181775D01*
X110920774Y-72181861D01*
X110884687Y-72181609D01*
X110858754Y-72180404D01*
X110839018Y-72177569D01*
X110821524Y-72172428D01*
X110802317Y-72164306D01*
X110793248Y-72160060D01*
X110764100Y-72143673D01*
X110732229Y-72121829D01*
X110705054Y-72099704D01*
X110662862Y-72061149D01*
X110117267Y-71952969D01*
X110008521Y-71931333D01*
X109912966Y-71912157D01*
X109829923Y-71895293D01*
X109758714Y-71880595D01*
X109698661Y-71867918D01*
X109649086Y-71857114D01*
X109609310Y-71848037D01*
X109578657Y-71840540D01*
X109556447Y-71834477D01*
X109542002Y-71829702D01*
X109537403Y-71827713D01*
X109498697Y-71801758D01*
X109464534Y-71766377D01*
X109439369Y-71726256D01*
X109437888Y-71723006D01*
X109433337Y-71712596D01*
X109429427Y-71702651D01*
X109426283Y-71692339D01*
X109424029Y-71680825D01*
X109422788Y-71667274D01*
X109422684Y-71650852D01*
X109423841Y-71630724D01*
X109426382Y-71606057D01*
X109430432Y-71576016D01*
X109436114Y-71539766D01*
X109443552Y-71496474D01*
X109452870Y-71445305D01*
X109464191Y-71385424D01*
X109477640Y-71315997D01*
X109493340Y-71236190D01*
X109511415Y-71145169D01*
X109531988Y-71042098D01*
X109555184Y-70926145D01*
X109558748Y-70908333D01*
X109585694Y-70774114D01*
X109610062Y-70653657D01*
X109631875Y-70546855D01*
X109651155Y-70453601D01*
X109667926Y-70373787D01*
X109682210Y-70307307D01*
X109694030Y-70254053D01*
X109703409Y-70213917D01*
X109710369Y-70186793D01*
X109714934Y-70172573D01*
X109715169Y-70172047D01*
X109741760Y-70130827D01*
X109778597Y-70096447D01*
X109822714Y-70070789D01*
X109871147Y-70055738D01*
X109903408Y-70052536D01*
X109915414Y-70053826D01*
X109940123Y-70057694D01*
X109976405Y-70063927D01*
X110023131Y-70072315D01*
X110079172Y-70082648D01*
X110088203Y-70084344D01*
X110088203Y-70525210D01*
X110085571Y-70527624D01*
X110082037Y-70536021D01*
X110077420Y-70551208D01*
X110071542Y-70573990D01*
X110064224Y-70605175D01*
X110055284Y-70645570D01*
X110044545Y-70695980D01*
X110031826Y-70757212D01*
X110016948Y-70830074D01*
X109999731Y-70915372D01*
X109984880Y-70989472D01*
X109969080Y-71068509D01*
X109954102Y-71143463D01*
X109940175Y-71213190D01*
X109927526Y-71276544D01*
X109916386Y-71332381D01*
X109906981Y-71379556D01*
X109899540Y-71416925D01*
X109894291Y-71443343D01*
X109891463Y-71457666D01*
X109891025Y-71459955D01*
X109896086Y-71465679D01*
X109902625Y-71468403D01*
X109911460Y-71470357D01*
X109932989Y-71474827D01*
X109966064Y-71481580D01*
X110009537Y-71490387D01*
X110062261Y-71501016D01*
X110123089Y-71513236D01*
X110190872Y-71526816D01*
X110264464Y-71541525D01*
X110342716Y-71557132D01*
X110397672Y-71568074D01*
X110478679Y-71584279D01*
X110555979Y-71599913D01*
X110628400Y-71614729D01*
X110694772Y-71628478D01*
X110753922Y-71640913D01*
X110804679Y-71651786D01*
X110845873Y-71660851D01*
X110876332Y-71667858D01*
X110894885Y-71672561D01*
X110900030Y-71674278D01*
X110914882Y-71681395D01*
X110923404Y-71684442D01*
X110923478Y-71684444D01*
X110929021Y-71678310D01*
X110938681Y-71661544D01*
X110951297Y-71636602D01*
X110965709Y-71605940D01*
X110980757Y-71572014D01*
X110995280Y-71537279D01*
X111006171Y-71509418D01*
X111045813Y-71389437D01*
X111078239Y-71261038D01*
X111102707Y-71128340D01*
X111118478Y-70995463D01*
X111124813Y-70866525D01*
X111124904Y-70848404D01*
X111124743Y-70801588D01*
X111124081Y-70767076D01*
X111122502Y-70743061D01*
X111119594Y-70727736D01*
X111114939Y-70719293D01*
X111108125Y-70715926D01*
X111098736Y-70715827D01*
X111094575Y-70716252D01*
X111084026Y-70715332D01*
X111060814Y-70711852D01*
X111026113Y-70706028D01*
X110981095Y-70698075D01*
X110926934Y-70688209D01*
X110864803Y-70676644D01*
X110795875Y-70663598D01*
X110721322Y-70649284D01*
X110642318Y-70633918D01*
X110585250Y-70622702D01*
X110504211Y-70606716D01*
X110427107Y-70591522D01*
X110355074Y-70577344D01*
X110289248Y-70564404D01*
X110230765Y-70552925D01*
X110180762Y-70543131D01*
X110140373Y-70535243D01*
X110110736Y-70529485D01*
X110092987Y-70526080D01*
X110088203Y-70525210D01*
X110088203Y-70084344D01*
X110143398Y-70094713D01*
X110214678Y-70108301D01*
X110291884Y-70123201D01*
X110373885Y-70139202D01*
X110459552Y-70156092D01*
X110480006Y-70160150D01*
X111023872Y-70268186D01*
X111070516Y-70249526D01*
X111134453Y-70230718D01*
X111196894Y-70225444D01*
X111256970Y-70233140D01*
X111313811Y-70253242D01*
X111366550Y-70285186D01*
X111414316Y-70328409D01*
X111456241Y-70382347D01*
X111491455Y-70446437D01*
X111519090Y-70520114D01*
X111526023Y-70544972D01*
X111545046Y-70639784D01*
X111556217Y-70744670D01*
X111559643Y-70858051D01*
X111555431Y-70978349D01*
G37*
X111555431Y-70978349D02*
X111543687Y-71103983D01*
X111524518Y-71233376D01*
X111498030Y-71364949D01*
X111464330Y-71497121D01*
X111460998Y-71508815D01*
X111425596Y-71621468D01*
X111386700Y-71724327D01*
X111342703Y-71821582D01*
X111335468Y-71836138D01*
X111301584Y-71899811D01*
X111268494Y-71953532D01*
X111233584Y-72001043D01*
X111194242Y-72046085D01*
X111174818Y-72066122D01*
X111141833Y-72097793D01*
X111113338Y-72121378D01*
X111085232Y-72139984D01*
X111058358Y-72154316D01*
X111033783Y-72166147D01*
X111014717Y-72173987D01*
X110997062Y-72178658D01*
X110976719Y-72180981D01*
X110949589Y-72181775D01*
X110920774Y-72181861D01*
X110884687Y-72181609D01*
X110858754Y-72180404D01*
X110839018Y-72177569D01*
X110821524Y-72172428D01*
X110802317Y-72164306D01*
X110793248Y-72160060D01*
X110764100Y-72143673D01*
X110732229Y-72121829D01*
X110705054Y-72099704D01*
X110662862Y-72061149D01*
X110117267Y-71952969D01*
X110008521Y-71931333D01*
X109912966Y-71912157D01*
X109829923Y-71895293D01*
X109758714Y-71880595D01*
X109698661Y-71867918D01*
X109649086Y-71857114D01*
X109609310Y-71848037D01*
X109578657Y-71840540D01*
X109556447Y-71834477D01*
X109542002Y-71829702D01*
X109537403Y-71827713D01*
X109498697Y-71801758D01*
X109464534Y-71766377D01*
X109439369Y-71726256D01*
X109437888Y-71723006D01*
X109433337Y-71712596D01*
X109429427Y-71702651D01*
X109426283Y-71692339D01*
X109424029Y-71680825D01*
X109422788Y-71667274D01*
X109422684Y-71650852D01*
X109423841Y-71630724D01*
X109426382Y-71606057D01*
X109430432Y-71576016D01*
X109436114Y-71539766D01*
X109443552Y-71496474D01*
X109452870Y-71445305D01*
X109464191Y-71385424D01*
X109477640Y-71315997D01*
X109493340Y-71236190D01*
X109511415Y-71145169D01*
X109531988Y-71042098D01*
X109555184Y-70926145D01*
X109558748Y-70908333D01*
X109585694Y-70774114D01*
X109610062Y-70653657D01*
X109631875Y-70546855D01*
X109651155Y-70453601D01*
X109667926Y-70373787D01*
X109682210Y-70307307D01*
X109694030Y-70254053D01*
X109703409Y-70213917D01*
X109710369Y-70186793D01*
X109714934Y-70172573D01*
X109715169Y-70172047D01*
X109741760Y-70130827D01*
X109778597Y-70096447D01*
X109822714Y-70070789D01*
X109871147Y-70055738D01*
X109903408Y-70052536D01*
X109915414Y-70053826D01*
X109940123Y-70057694D01*
X109976405Y-70063927D01*
X110023131Y-70072315D01*
X110079172Y-70082648D01*
X110088203Y-70084344D01*
X110088203Y-70525210D01*
X110085571Y-70527624D01*
X110082037Y-70536021D01*
X110077420Y-70551208D01*
X110071542Y-70573990D01*
X110064224Y-70605175D01*
X110055284Y-70645570D01*
X110044545Y-70695980D01*
X110031826Y-70757212D01*
X110016948Y-70830074D01*
X109999731Y-70915372D01*
X109984880Y-70989472D01*
X109969080Y-71068509D01*
X109954102Y-71143463D01*
X109940175Y-71213190D01*
X109927526Y-71276544D01*
X109916386Y-71332381D01*
X109906981Y-71379556D01*
X109899540Y-71416925D01*
X109894291Y-71443343D01*
X109891463Y-71457666D01*
X109891025Y-71459955D01*
X109896086Y-71465679D01*
X109902625Y-71468403D01*
X109911460Y-71470357D01*
X109932989Y-71474827D01*
X109966064Y-71481580D01*
X110009537Y-71490387D01*
X110062261Y-71501016D01*
X110123089Y-71513236D01*
X110190872Y-71526816D01*
X110264464Y-71541525D01*
X110342716Y-71557132D01*
X110397672Y-71568074D01*
X110478679Y-71584279D01*
X110555979Y-71599913D01*
X110628400Y-71614729D01*
X110694772Y-71628478D01*
X110753922Y-71640913D01*
X110804679Y-71651786D01*
X110845873Y-71660851D01*
X110876332Y-71667858D01*
X110894885Y-71672561D01*
X110900030Y-71674278D01*
X110914882Y-71681395D01*
X110923404Y-71684442D01*
X110923478Y-71684444D01*
X110929021Y-71678310D01*
X110938681Y-71661544D01*
X110951297Y-71636602D01*
X110965709Y-71605940D01*
X110980757Y-71572014D01*
X110995280Y-71537279D01*
X111006171Y-71509418D01*
X111045813Y-71389437D01*
X111078239Y-71261038D01*
X111102707Y-71128340D01*
X111118478Y-70995463D01*
X111124813Y-70866525D01*
X111124904Y-70848404D01*
X111124743Y-70801588D01*
X111124081Y-70767076D01*
X111122502Y-70743061D01*
X111119594Y-70727736D01*
X111114939Y-70719293D01*
X111108125Y-70715926D01*
X111098736Y-70715827D01*
X111094575Y-70716252D01*
X111084026Y-70715332D01*
X111060814Y-70711852D01*
X111026113Y-70706028D01*
X110981095Y-70698075D01*
X110926934Y-70688209D01*
X110864803Y-70676644D01*
X110795875Y-70663598D01*
X110721322Y-70649284D01*
X110642318Y-70633918D01*
X110585250Y-70622702D01*
X110504211Y-70606716D01*
X110427107Y-70591522D01*
X110355074Y-70577344D01*
X110289248Y-70564404D01*
X110230765Y-70552925D01*
X110180762Y-70543131D01*
X110140373Y-70535243D01*
X110110736Y-70529485D01*
X110092987Y-70526080D01*
X110088203Y-70525210D01*
X110088203Y-70084344D01*
X110143398Y-70094713D01*
X110214678Y-70108301D01*
X110291884Y-70123201D01*
X110373885Y-70139202D01*
X110459552Y-70156092D01*
X110480006Y-70160150D01*
X111023872Y-70268186D01*
X111070516Y-70249526D01*
X111134453Y-70230718D01*
X111196894Y-70225444D01*
X111256970Y-70233140D01*
X111313811Y-70253242D01*
X111366550Y-70285186D01*
X111414316Y-70328409D01*
X111456241Y-70382347D01*
X111491455Y-70446437D01*
X111519090Y-70520114D01*
X111526023Y-70544972D01*
X111545046Y-70639784D01*
X111556217Y-70744670D01*
X111559643Y-70858051D01*
X111555431Y-70978349D01*
%TD*%
D11*
%TO.P,J3,1*%
%TO.N,Net-(J3-Pad1)*%
X88900000Y-83820000D03*
D12*
%TO.P,J3,2*%
%TO.N,GND*%
X88900000Y-86360000D03*
%TD*%
D11*
%TO.P,J1,1*%
%TO.N,+12V*%
X88900000Y-68580000D03*
D12*
%TO.P,J1,2*%
%TO.N,GND*%
X88900000Y-71120000D03*
%TD*%
D11*
%TO.P,J2,1*%
%TO.N,Net-(D1-Pad1)*%
X88900000Y-76200000D03*
D12*
%TO.P,J2,2*%
%TO.N,GND*%
X88900000Y-78740000D03*
%TD*%
D13*
%TO.P,D2,1*%
%TO.N,GND*%
X93980000Y-76200000D03*
D14*
%TO.P,D2,2*%
%TO.N,Net-(D2-Pad2)*%
X93980000Y-78740000D03*
%TD*%
%TO.P,C1,2*%
%TO.N,GND*%
X129540000Y-74295000D03*
%TO.P,C1,1*%
%TO.N,Net-(C1-Pad1)*%
X129540000Y-69295000D03*
%TD*%
%TO.P,C2,1*%
%TO.N,Net-(C2-Pad1)*%
X129540000Y-80645000D03*
%TO.P,C2,2*%
%TO.N,GND*%
X129540000Y-85645000D03*
%TD*%
D13*
%TO.P,D1,1*%
%TO.N,Net-(D1-Pad1)*%
X99060000Y-71120000D03*
D15*
%TO.P,D1,2*%
%TO.N,GND*%
X106680000Y-71120000D03*
%TD*%
D16*
%TO.P,Q1,2*%
%TO.N,Net-(Q1-Pad2)*%
X111760000Y-77470000D03*
%TO.P,Q1,3*%
%TO.N,GND*%
X111760000Y-76200000D03*
D17*
%TO.P,Q1,1*%
%TO.N,Net-(Q1-Pad1)*%
X111760000Y-78740000D03*
%TD*%
D15*
%TO.P,R4,2*%
%TO.N,Net-(Q1-Pad1)*%
X106680000Y-80645000D03*
D14*
%TO.P,R4,1*%
%TO.N,+12V*%
X99060000Y-80645000D03*
%TD*%
%TO.P,R5,1*%
%TO.N,Net-(D2-Pad2)*%
X99060000Y-83820000D03*
D15*
%TO.P,R5,2*%
%TO.N,Net-(R5-Pad2)*%
X106680000Y-83820000D03*
%TD*%
%TO.P,R2,2*%
%TO.N,GND*%
X106680000Y-74295000D03*
D14*
%TO.P,R2,1*%
%TO.N,Net-(D1-Pad1)*%
X99060000Y-74295000D03*
%TD*%
%TO.P,RV1,1*%
%TO.N,Net-(R1-Pad1)*%
X118110000Y-68580000D03*
%TO.P,RV1,2*%
%TO.N,Net-(C1-Pad1)*%
X120650000Y-68580000D03*
%TO.P,RV1,3*%
%TO.N,Net-(RV1-Pad3)*%
X123190000Y-68580000D03*
%TD*%
%TO.P,RV2,3*%
%TO.N,GND*%
X118110000Y-86360000D03*
%TO.P,RV2,2*%
%TO.N,Net-(R6-Pad2)*%
X120650000Y-86360000D03*
%TO.P,RV2,1*%
%TO.N,Net-(R5-Pad2)*%
X123190000Y-86360000D03*
%TD*%
D13*
%TO.P,U1,1*%
%TO.N,GND*%
X116840000Y-81280000D03*
D15*
%TO.P,U1,5*%
%TO.N,Net-(C2-Pad1)*%
X124460000Y-73660000D03*
%TO.P,U1,2*%
%TO.N,Net-(Q1-Pad1)*%
X119380000Y-81280000D03*
%TO.P,U1,6*%
%TO.N,Net-(C1-Pad1)*%
X121920000Y-73660000D03*
%TO.P,U1,3*%
%TO.N,Net-(R5-Pad2)*%
X121920000Y-81280000D03*
%TO.P,U1,7*%
%TO.N,Net-(C1-Pad1)*%
X119380000Y-73660000D03*
%TO.P,U1,4*%
%TO.N,+12V*%
X124460000Y-81280000D03*
%TO.P,U1,8*%
X116840000Y-73660000D03*
%TD*%
D14*
%TO.P,R3,1*%
%TO.N,Net-(Q1-Pad2)*%
X106680000Y-77470000D03*
D15*
%TO.P,R3,2*%
%TO.N,Net-(D1-Pad1)*%
X99060000Y-77470000D03*
%TD*%
D14*
%TO.P,R1,1*%
%TO.N,Net-(R1-Pad1)*%
X106680000Y-67945000D03*
D15*
%TO.P,R1,2*%
%TO.N,+12V*%
X99060000Y-67945000D03*
%TD*%
%TO.P,R6,2*%
%TO.N,Net-(R6-Pad2)*%
X106680000Y-86995000D03*
D14*
%TO.P,R6,1*%
%TO.N,Net-(J3-Pad1)*%
X99060000Y-86995000D03*
%TD*%
D18*
%TO.N,Net-(C1-Pad1)*%
X120650000Y-68580000D02*
X120650000Y-69850000D01*
X120650000Y-69850000D02*
X119380000Y-71120000D01*
X119380000Y-71120000D02*
X119380000Y-73660000D01*
X121920000Y-73660000D02*
X119380000Y-73660000D01*
X126285000Y-69295000D02*
X129540000Y-69295000D01*
X121920000Y-73660000D02*
X126285000Y-69295000D01*
%TO.N,Net-(C2-Pad1)*%
X129540000Y-78740000D02*
X129540000Y-80645000D01*
X124460000Y-73660000D02*
X129540000Y-78740000D01*
%TO.N,Net-(D1-Pad1)*%
X99060000Y-74295000D02*
X99060000Y-71120000D01*
X99060000Y-77470000D02*
X99060000Y-74295000D01*
X93980000Y-71120000D02*
X88900000Y-76200000D01*
X99060000Y-71120000D02*
X93980000Y-71120000D01*
%TO.N,Net-(J3-Pad1)*%
X99060000Y-86995000D02*
X95885000Y-83820000D01*
X95885000Y-83820000D02*
X88900000Y-83820000D01*
%TO.N,Net-(Q1-Pad1)*%
X119380000Y-81280000D02*
X117792500Y-82867500D01*
X106680000Y-80645000D02*
X108902500Y-82867500D01*
X117792500Y-82867500D02*
X108902500Y-82867500D01*
X108585000Y-78740000D02*
X106680000Y-80645000D01*
X111760000Y-78740000D02*
X108585000Y-78740000D01*
%TO.N,Net-(Q1-Pad2)*%
X111760000Y-77470000D02*
X106680000Y-77470000D01*
%TO.N,Net-(R5-Pad2)*%
X123190000Y-86360000D02*
X123190000Y-85090000D01*
X123190000Y-85090000D02*
X121920000Y-83820000D01*
X121920000Y-83820000D02*
X121920000Y-81280000D01*
X106680000Y-83820000D02*
X121920000Y-83820000D01*
%TO.N,Net-(D2-Pad2)*%
X99060000Y-83820000D02*
X93980000Y-78740000D01*
%TO.N,Net-(R6-Pad2)*%
X106680000Y-86995000D02*
X108902500Y-84772500D01*
X120650000Y-86360000D02*
X119062500Y-84772500D01*
X119062500Y-84772500D02*
X108902500Y-84772500D01*
%TO.N,Net-(R1-Pad1)*%
X117475000Y-67945000D02*
X118110000Y-68580000D01*
X106680000Y-67945000D02*
X117475000Y-67945000D01*
%TD*%
D19*
%TO.N,GND*%
X92491447Y-65607430D02*
X92515905Y-65664494D01*
X92539564Y-65721895D01*
X92544113Y-65730308D01*
X92694548Y-66003948D01*
X92729615Y-66055163D01*
X92763982Y-66106888D01*
X92770078Y-66114258D01*
X92970800Y-66353467D01*
X93015157Y-66396905D01*
X93058903Y-66440957D01*
X93066315Y-66447002D01*
X93309674Y-66642669D01*
X93361651Y-66676682D01*
X93413097Y-66711382D01*
X93421541Y-66715872D01*
X93698271Y-66860544D01*
X93755843Y-66883804D01*
X93813068Y-66907859D01*
X93822224Y-66910624D01*
X94121785Y-66998790D01*
X94182802Y-67010430D01*
X94243589Y-67022907D01*
X94253104Y-67023841D01*
X94253108Y-67023841D01*
X94564087Y-67052142D01*
X94626137Y-67051708D01*
X94688254Y-67052142D01*
X94697773Y-67051208D01*
X95008328Y-67018567D01*
X95069135Y-67006085D01*
X95130128Y-66994450D01*
X95139284Y-66991686D01*
X95437585Y-66899347D01*
X95494851Y-66875275D01*
X95552383Y-66852030D01*
X95560823Y-66847542D01*
X95560828Y-66847540D01*
X95560832Y-66847537D01*
X95835512Y-66699019D01*
X95886984Y-66664301D01*
X95938933Y-66630306D01*
X95946345Y-66624262D01*
X96186949Y-66425216D01*
X96230696Y-66381162D01*
X96275054Y-66337724D01*
X96281150Y-66330355D01*
X96478511Y-66088366D01*
X96512888Y-66036625D01*
X96547943Y-65985428D01*
X96552489Y-65977020D01*
X96552494Y-65977013D01*
X96552497Y-65977005D01*
X96699093Y-65701302D01*
X96722757Y-65643889D01*
X96747210Y-65586835D01*
X96750036Y-65577706D01*
X96750038Y-65577700D01*
X96750039Y-65577694D01*
X96787083Y-65455000D01*
X127368094Y-65455000D01*
X127416447Y-65607430D01*
X127440905Y-65664494D01*
X127464564Y-65721895D01*
X127469113Y-65730308D01*
X127619548Y-66003948D01*
X127654615Y-66055163D01*
X127688982Y-66106888D01*
X127695078Y-66114258D01*
X127895800Y-66353467D01*
X127940157Y-66396905D01*
X127983903Y-66440957D01*
X127991315Y-66447002D01*
X128234674Y-66642669D01*
X128286651Y-66676682D01*
X128338097Y-66711382D01*
X128346541Y-66715872D01*
X128623271Y-66860544D01*
X128680843Y-66883804D01*
X128738068Y-66907859D01*
X128747224Y-66910624D01*
X129046785Y-66998790D01*
X129107802Y-67010430D01*
X129168589Y-67022907D01*
X129178104Y-67023841D01*
X129178108Y-67023841D01*
X129489087Y-67052142D01*
X129551137Y-67051708D01*
X129613254Y-67052142D01*
X129622773Y-67051208D01*
X129933328Y-67018567D01*
X129994135Y-67006085D01*
X130055128Y-66994450D01*
X130064284Y-66991686D01*
X130362585Y-66899347D01*
X130419851Y-66875275D01*
X130477383Y-66852030D01*
X130485823Y-66847542D01*
X130485828Y-66847540D01*
X130485832Y-66847537D01*
X130760512Y-66699019D01*
X130811984Y-66664301D01*
X130863933Y-66630306D01*
X130871345Y-66624262D01*
X131111949Y-66425216D01*
X131155696Y-66381162D01*
X131200054Y-66337724D01*
X131206150Y-66330355D01*
X131403511Y-66088366D01*
X131437888Y-66036625D01*
X131472943Y-65985428D01*
X131477489Y-65977020D01*
X131477494Y-65977013D01*
X131477497Y-65977005D01*
X131624093Y-65701302D01*
X131647757Y-65643889D01*
X131672210Y-65586835D01*
X131675036Y-65577706D01*
X131675038Y-65577700D01*
X131675039Y-65577694D01*
X131712083Y-65455000D01*
X132665000Y-65455000D01*
X132665001Y-89485000D01*
X131711906Y-89485000D01*
X131663553Y-89332571D01*
X131639101Y-89275520D01*
X131615436Y-89218105D01*
X131610887Y-89209691D01*
X131460452Y-88936052D01*
X131425385Y-88884837D01*
X131391018Y-88833112D01*
X131384922Y-88825743D01*
X131184201Y-88586533D01*
X131139824Y-88543076D01*
X131096097Y-88499043D01*
X131088685Y-88492998D01*
X130845325Y-88297331D01*
X130793384Y-88263342D01*
X130741904Y-88228618D01*
X130733459Y-88224128D01*
X130456729Y-88079457D01*
X130399190Y-88056210D01*
X130341932Y-88032141D01*
X130332776Y-88029376D01*
X130033215Y-87941210D01*
X129972198Y-87929570D01*
X129911411Y-87917093D01*
X129901896Y-87916159D01*
X129901892Y-87916159D01*
X129590912Y-87887858D01*
X129528862Y-87888292D01*
X129466746Y-87887858D01*
X129457228Y-87888792D01*
X129457226Y-87888792D01*
X129146672Y-87921433D01*
X129085871Y-87933914D01*
X129024872Y-87945550D01*
X129015716Y-87948314D01*
X128717416Y-88040653D01*
X128660162Y-88064721D01*
X128602618Y-88087970D01*
X128594173Y-88092459D01*
X128319489Y-88240981D01*
X128268017Y-88275699D01*
X128216068Y-88309694D01*
X128208656Y-88315738D01*
X127968051Y-88514783D01*
X127924301Y-88558840D01*
X127879946Y-88602276D01*
X127873850Y-88609645D01*
X127676489Y-88851634D01*
X127642124Y-88903357D01*
X127607057Y-88954571D01*
X127602508Y-88962984D01*
X127455908Y-89238698D01*
X127432258Y-89296076D01*
X127407790Y-89353166D01*
X127404962Y-89362302D01*
X127367918Y-89485000D01*
X96786906Y-89485000D01*
X96738553Y-89332571D01*
X96714101Y-89275520D01*
X96690436Y-89218105D01*
X96685887Y-89209691D01*
X96535452Y-88936052D01*
X96500385Y-88884837D01*
X96466018Y-88833112D01*
X96459922Y-88825743D01*
X96259201Y-88586533D01*
X96214824Y-88543076D01*
X96171097Y-88499043D01*
X96163685Y-88492998D01*
X95920325Y-88297331D01*
X95868384Y-88263342D01*
X95816904Y-88228618D01*
X95808459Y-88224128D01*
X95531729Y-88079457D01*
X95474190Y-88056210D01*
X95416932Y-88032141D01*
X95407776Y-88029376D01*
X95108215Y-87941210D01*
X95047198Y-87929570D01*
X94986411Y-87917093D01*
X94976896Y-87916159D01*
X94976892Y-87916159D01*
X94665912Y-87887858D01*
X94603862Y-87888292D01*
X94541746Y-87887858D01*
X94532228Y-87888792D01*
X94532226Y-87888792D01*
X94221672Y-87921433D01*
X94160871Y-87933914D01*
X94099872Y-87945550D01*
X94090716Y-87948314D01*
X93792416Y-88040653D01*
X93735162Y-88064721D01*
X93677618Y-88087970D01*
X93669173Y-88092459D01*
X93394489Y-88240981D01*
X93343017Y-88275699D01*
X93291068Y-88309694D01*
X93283656Y-88315738D01*
X93043051Y-88514783D01*
X92999301Y-88558840D01*
X92954946Y-88602276D01*
X92948850Y-88609645D01*
X92751489Y-88851634D01*
X92717124Y-88903357D01*
X92682057Y-88954571D01*
X92677508Y-88962984D01*
X92530908Y-89238698D01*
X92507258Y-89296076D01*
X92482790Y-89353166D01*
X92479962Y-89362302D01*
X92442918Y-89485000D01*
X85775000Y-89485000D01*
X85775000Y-87210000D01*
X87411928Y-87210000D01*
X87424188Y-87334482D01*
X87460498Y-87454180D01*
X87519463Y-87564494D01*
X87598815Y-87661185D01*
X87695506Y-87740537D01*
X87805820Y-87799502D01*
X87925518Y-87835812D01*
X88050000Y-87848072D01*
X88614250Y-87845000D01*
X88773000Y-87686250D01*
X88773000Y-86487000D01*
X89027000Y-86487000D01*
X89027000Y-87686250D01*
X89185750Y-87845000D01*
X89750000Y-87848072D01*
X89874482Y-87835812D01*
X89994180Y-87799502D01*
X90104494Y-87740537D01*
X90201185Y-87661185D01*
X90280537Y-87564494D01*
X90339502Y-87454180D01*
X90375812Y-87334482D01*
X90388072Y-87210000D01*
X90385000Y-86645750D01*
X90226250Y-86487000D01*
X89027000Y-86487000D01*
X88773000Y-86487000D01*
X87573750Y-86487000D01*
X87415000Y-86645750D01*
X87411928Y-87210000D01*
X85775000Y-87210000D01*
X85775000Y-85510000D01*
X87411928Y-85510000D01*
X87415000Y-86074250D01*
X87573750Y-86233000D01*
X88773000Y-86233000D01*
X88773000Y-86213000D01*
X89027000Y-86213000D01*
X89027000Y-86233000D01*
X90226250Y-86233000D01*
X90385000Y-86074250D01*
X90388072Y-85510000D01*
X90375812Y-85385518D01*
X90339502Y-85265820D01*
X90280537Y-85155506D01*
X90201185Y-85058815D01*
X90104494Y-84979463D01*
X89994180Y-84920498D01*
X89921620Y-84898487D01*
X90053475Y-84766632D01*
X90094656Y-84705000D01*
X95518422Y-84705000D01*
X97631983Y-86818561D01*
X97625000Y-86853665D01*
X97625000Y-87136335D01*
X97680147Y-87413574D01*
X97788320Y-87674727D01*
X97945363Y-87909759D01*
X98145241Y-88109637D01*
X98380273Y-88266680D01*
X98641426Y-88374853D01*
X98918665Y-88430000D01*
X99201335Y-88430000D01*
X99478574Y-88374853D01*
X99739727Y-88266680D01*
X99974759Y-88109637D01*
X100174637Y-87909759D01*
X100331680Y-87674727D01*
X100439853Y-87413574D01*
X100495000Y-87136335D01*
X100495000Y-86853665D01*
X100439853Y-86576426D01*
X100331680Y-86315273D01*
X100174637Y-86080241D01*
X99974759Y-85880363D01*
X99739727Y-85723320D01*
X99478574Y-85615147D01*
X99201335Y-85560000D01*
X98918665Y-85560000D01*
X98883561Y-85566983D01*
X98428047Y-85111469D01*
X98641426Y-85199853D01*
X98918665Y-85255000D01*
X99201335Y-85255000D01*
X99478574Y-85199853D01*
X99739727Y-85091680D01*
X99974759Y-84934637D01*
X100174637Y-84734759D01*
X100331680Y-84499727D01*
X100439853Y-84238574D01*
X100495000Y-83961335D01*
X100495000Y-83678665D01*
X100439853Y-83401426D01*
X100331680Y-83140273D01*
X100174637Y-82905241D01*
X99974759Y-82705363D01*
X99739727Y-82548320D01*
X99478574Y-82440147D01*
X99201335Y-82385000D01*
X98918665Y-82385000D01*
X98883561Y-82391983D01*
X98428048Y-81936469D01*
X98641426Y-82024853D01*
X98918665Y-82080000D01*
X99201335Y-82080000D01*
X99478574Y-82024853D01*
X99739727Y-81916680D01*
X99974759Y-81759637D01*
X100174637Y-81559759D01*
X100331680Y-81324727D01*
X100439853Y-81063574D01*
X100495000Y-80786335D01*
X100495000Y-80503665D01*
X100439853Y-80226426D01*
X100331680Y-79965273D01*
X100174637Y-79730241D01*
X99974759Y-79530363D01*
X99739727Y-79373320D01*
X99478574Y-79265147D01*
X99201335Y-79210000D01*
X98918665Y-79210000D01*
X98641426Y-79265147D01*
X98380273Y-79373320D01*
X98145241Y-79530363D01*
X97945363Y-79730241D01*
X97788320Y-79965273D01*
X97680147Y-80226426D01*
X97625000Y-80503665D01*
X97625000Y-80786335D01*
X97680147Y-81063574D01*
X97768531Y-81276953D01*
X95408017Y-78916439D01*
X95415000Y-78881335D01*
X95415000Y-78598665D01*
X95359853Y-78321426D01*
X95251680Y-78060273D01*
X95094637Y-77825241D01*
X94896039Y-77626643D01*
X94904482Y-77625812D01*
X95024180Y-77589502D01*
X95134494Y-77530537D01*
X95231185Y-77451185D01*
X95310537Y-77354494D01*
X95369502Y-77244180D01*
X95405812Y-77124482D01*
X95418072Y-77000000D01*
X95415000Y-76485750D01*
X95256250Y-76327000D01*
X94107000Y-76327000D01*
X94107000Y-76347000D01*
X93853000Y-76347000D01*
X93853000Y-76327000D01*
X92703750Y-76327000D01*
X92545000Y-76485750D01*
X92541928Y-77000000D01*
X92554188Y-77124482D01*
X92590498Y-77244180D01*
X92649463Y-77354494D01*
X92728815Y-77451185D01*
X92825506Y-77530537D01*
X92935820Y-77589502D01*
X93055518Y-77625812D01*
X93063961Y-77626643D01*
X92865363Y-77825241D01*
X92708320Y-78060273D01*
X92600147Y-78321426D01*
X92545000Y-78598665D01*
X92545000Y-78881335D01*
X92600147Y-79158574D01*
X92708320Y-79419727D01*
X92865363Y-79654759D01*
X93065241Y-79854637D01*
X93300273Y-80011680D01*
X93561426Y-80119853D01*
X93838665Y-80175000D01*
X94121335Y-80175000D01*
X94156439Y-80168017D01*
X97631983Y-83643561D01*
X97625000Y-83678665D01*
X97625000Y-83961335D01*
X97680147Y-84238574D01*
X97768531Y-84451953D01*
X96541534Y-83224956D01*
X96513817Y-83191183D01*
X96379059Y-83080589D01*
X96225313Y-82998411D01*
X96058490Y-82947805D01*
X95928477Y-82935000D01*
X95928469Y-82935000D01*
X95885000Y-82930719D01*
X95841531Y-82935000D01*
X90094656Y-82935000D01*
X90053475Y-82873368D01*
X89846632Y-82666525D01*
X89603411Y-82504010D01*
X89333158Y-82392068D01*
X89046260Y-82335000D01*
X88753740Y-82335000D01*
X88466842Y-82392068D01*
X88196589Y-82504010D01*
X87953368Y-82666525D01*
X87746525Y-82873368D01*
X87584010Y-83116589D01*
X87472068Y-83386842D01*
X87415000Y-83673740D01*
X87415000Y-83966260D01*
X87472068Y-84253158D01*
X87584010Y-84523411D01*
X87746525Y-84766632D01*
X87878380Y-84898487D01*
X87805820Y-84920498D01*
X87695506Y-84979463D01*
X87598815Y-85058815D01*
X87519463Y-85155506D01*
X87460498Y-85265820D01*
X87424188Y-85385518D01*
X87411928Y-85510000D01*
X85775000Y-85510000D01*
X85775000Y-79590000D01*
X87411928Y-79590000D01*
X87424188Y-79714482D01*
X87460498Y-79834180D01*
X87519463Y-79944494D01*
X87598815Y-80041185D01*
X87695506Y-80120537D01*
X87805820Y-80179502D01*
X87925518Y-80215812D01*
X88050000Y-80228072D01*
X88614250Y-80225000D01*
X88773000Y-80066250D01*
X88773000Y-78867000D01*
X89027000Y-78867000D01*
X89027000Y-80066250D01*
X89185750Y-80225000D01*
X89750000Y-80228072D01*
X89874482Y-80215812D01*
X89994180Y-80179502D01*
X90104494Y-80120537D01*
X90201185Y-80041185D01*
X90280537Y-79944494D01*
X90339502Y-79834180D01*
X90375812Y-79714482D01*
X90388072Y-79590000D01*
X90385000Y-79025750D01*
X90226250Y-78867000D01*
X89027000Y-78867000D01*
X88773000Y-78867000D01*
X87573750Y-78867000D01*
X87415000Y-79025750D01*
X87411928Y-79590000D01*
X85775000Y-79590000D01*
X85775000Y-77890000D01*
X87411928Y-77890000D01*
X87415000Y-78454250D01*
X87573750Y-78613000D01*
X88773000Y-78613000D01*
X88773000Y-78593000D01*
X89027000Y-78593000D01*
X89027000Y-78613000D01*
X90226250Y-78613000D01*
X90385000Y-78454250D01*
X90388072Y-77890000D01*
X90375812Y-77765518D01*
X90339502Y-77645820D01*
X90280537Y-77535506D01*
X90201185Y-77438815D01*
X90104494Y-77359463D01*
X89994180Y-77300498D01*
X89921620Y-77278487D01*
X90053475Y-77146632D01*
X90215990Y-76903411D01*
X90327932Y-76633158D01*
X90385000Y-76346260D01*
X90385000Y-76053740D01*
X90370539Y-75981039D01*
X90951578Y-75400000D01*
X92541928Y-75400000D01*
X92545000Y-75914250D01*
X92703750Y-76073000D01*
X93853000Y-76073000D01*
X93853000Y-74923750D01*
X94107000Y-74923750D01*
X94107000Y-76073000D01*
X95256250Y-76073000D01*
X95415000Y-75914250D01*
X95418072Y-75400000D01*
X95405812Y-75275518D01*
X95369502Y-75155820D01*
X95310537Y-75045506D01*
X95231185Y-74948815D01*
X95134494Y-74869463D01*
X95024180Y-74810498D01*
X94904482Y-74774188D01*
X94780000Y-74761928D01*
X94265750Y-74765000D01*
X94107000Y-74923750D01*
X93853000Y-74923750D01*
X93694250Y-74765000D01*
X93180000Y-74761928D01*
X93055518Y-74774188D01*
X92935820Y-74810498D01*
X92825506Y-74869463D01*
X92728815Y-74948815D01*
X92649463Y-75045506D01*
X92590498Y-75155820D01*
X92554188Y-75275518D01*
X92541928Y-75400000D01*
X90951578Y-75400000D01*
X94346579Y-72005000D01*
X97630299Y-72005000D01*
X97634188Y-72044482D01*
X97670498Y-72164180D01*
X97729463Y-72274494D01*
X97808815Y-72371185D01*
X97905506Y-72450537D01*
X98015820Y-72509502D01*
X98135518Y-72545812D01*
X98175001Y-72549701D01*
X98175000Y-73160478D01*
X98145241Y-73180363D01*
X97945363Y-73380241D01*
X97788320Y-73615273D01*
X97680147Y-73876426D01*
X97625000Y-74153665D01*
X97625000Y-74436335D01*
X97680147Y-74713574D01*
X97788320Y-74974727D01*
X97945363Y-75209759D01*
X98145241Y-75409637D01*
X98175001Y-75429522D01*
X98175000Y-76335478D01*
X98145241Y-76355363D01*
X97945363Y-76555241D01*
X97788320Y-76790273D01*
X97680147Y-77051426D01*
X97625000Y-77328665D01*
X97625000Y-77611335D01*
X97680147Y-77888574D01*
X97788320Y-78149727D01*
X97945363Y-78384759D01*
X98145241Y-78584637D01*
X98380273Y-78741680D01*
X98641426Y-78849853D01*
X98918665Y-78905000D01*
X99201335Y-78905000D01*
X99478574Y-78849853D01*
X99739727Y-78741680D01*
X99974759Y-78584637D01*
X100174637Y-78384759D01*
X100331680Y-78149727D01*
X100439853Y-77888574D01*
X100495000Y-77611335D01*
X100495000Y-77328665D01*
X105245000Y-77328665D01*
X105245000Y-77611335D01*
X105300147Y-77888574D01*
X105408320Y-78149727D01*
X105565363Y-78384759D01*
X105765241Y-78584637D01*
X106000273Y-78741680D01*
X106261426Y-78849853D01*
X106538665Y-78905000D01*
X106821335Y-78905000D01*
X107098574Y-78849853D01*
X107311953Y-78761469D01*
X106856439Y-79216983D01*
X106821335Y-79210000D01*
X106538665Y-79210000D01*
X106261426Y-79265147D01*
X106000273Y-79373320D01*
X105765241Y-79530363D01*
X105565363Y-79730241D01*
X105408320Y-79965273D01*
X105300147Y-80226426D01*
X105245000Y-80503665D01*
X105245000Y-80786335D01*
X105300147Y-81063574D01*
X105408320Y-81324727D01*
X105565363Y-81559759D01*
X105765241Y-81759637D01*
X106000273Y-81916680D01*
X106261426Y-82024853D01*
X106538665Y-82080000D01*
X106821335Y-82080000D01*
X106856439Y-82073017D01*
X107311953Y-82528531D01*
X107098574Y-82440147D01*
X106821335Y-82385000D01*
X106538665Y-82385000D01*
X106261426Y-82440147D01*
X106000273Y-82548320D01*
X105765241Y-82705363D01*
X105565363Y-82905241D01*
X105408320Y-83140273D01*
X105300147Y-83401426D01*
X105245000Y-83678665D01*
X105245000Y-83961335D01*
X105300147Y-84238574D01*
X105408320Y-84499727D01*
X105565363Y-84734759D01*
X105765241Y-84934637D01*
X106000273Y-85091680D01*
X106261426Y-85199853D01*
X106538665Y-85255000D01*
X106821335Y-85255000D01*
X107098574Y-85199853D01*
X107311953Y-85111469D01*
X106856439Y-85566983D01*
X106821335Y-85560000D01*
X106538665Y-85560000D01*
X106261426Y-85615147D01*
X106000273Y-85723320D01*
X105765241Y-85880363D01*
X105565363Y-86080241D01*
X105408320Y-86315273D01*
X105300147Y-86576426D01*
X105245000Y-86853665D01*
X105245000Y-87136335D01*
X105300147Y-87413574D01*
X105408320Y-87674727D01*
X105565363Y-87909759D01*
X105765241Y-88109637D01*
X106000273Y-88266680D01*
X106261426Y-88374853D01*
X106538665Y-88430000D01*
X106821335Y-88430000D01*
X107098574Y-88374853D01*
X107359727Y-88266680D01*
X107594759Y-88109637D01*
X107794637Y-87909759D01*
X107951680Y-87674727D01*
X108059853Y-87413574D01*
X108071961Y-87352702D01*
X117296903Y-87352702D01*
X117368486Y-87596671D01*
X117623996Y-87717571D01*
X117898184Y-87786300D01*
X118180512Y-87800217D01*
X118460130Y-87758787D01*
X118726292Y-87663603D01*
X118851514Y-87596671D01*
X118923097Y-87352702D01*
X118110000Y-86539605D01*
X117296903Y-87352702D01*
X108071961Y-87352702D01*
X108115000Y-87136335D01*
X108115000Y-86853665D01*
X108108017Y-86818561D01*
X109269079Y-85657500D01*
X116854869Y-85657500D01*
X116752429Y-85873996D01*
X116683700Y-86148184D01*
X116669783Y-86430512D01*
X116711213Y-86710130D01*
X116806397Y-86976292D01*
X116873329Y-87101514D01*
X117117298Y-87173097D01*
X117930395Y-86360000D01*
X117916253Y-86345858D01*
X118095858Y-86166253D01*
X118110000Y-86180395D01*
X118124143Y-86166253D01*
X118303748Y-86345858D01*
X118289605Y-86360000D01*
X119102702Y-87173097D01*
X119346671Y-87101514D01*
X119377194Y-87037008D01*
X119378320Y-87039727D01*
X119535363Y-87274759D01*
X119735241Y-87474637D01*
X119970273Y-87631680D01*
X120231426Y-87739853D01*
X120508665Y-87795000D01*
X120791335Y-87795000D01*
X121068574Y-87739853D01*
X121329727Y-87631680D01*
X121564759Y-87474637D01*
X121764637Y-87274759D01*
X121920000Y-87042241D01*
X122075363Y-87274759D01*
X122275241Y-87474637D01*
X122510273Y-87631680D01*
X122771426Y-87739853D01*
X123048665Y-87795000D01*
X123331335Y-87795000D01*
X123608574Y-87739853D01*
X123869727Y-87631680D01*
X124104759Y-87474637D01*
X124304637Y-87274759D01*
X124461680Y-87039727D01*
X124569853Y-86778574D01*
X124597874Y-86637702D01*
X128726903Y-86637702D01*
X128798486Y-86881671D01*
X129053996Y-87002571D01*
X129328184Y-87071300D01*
X129610512Y-87085217D01*
X129890130Y-87043787D01*
X130156292Y-86948603D01*
X130281514Y-86881671D01*
X130353097Y-86637702D01*
X129540000Y-85824605D01*
X128726903Y-86637702D01*
X124597874Y-86637702D01*
X124625000Y-86501335D01*
X124625000Y-86218665D01*
X124569853Y-85941426D01*
X124476277Y-85715512D01*
X128099783Y-85715512D01*
X128141213Y-85995130D01*
X128236397Y-86261292D01*
X128303329Y-86386514D01*
X128547298Y-86458097D01*
X129360395Y-85645000D01*
X129719605Y-85645000D01*
X130532702Y-86458097D01*
X130776671Y-86386514D01*
X130897571Y-86131004D01*
X130966300Y-85856816D01*
X130980217Y-85574488D01*
X130938787Y-85294870D01*
X130843603Y-85028708D01*
X130776671Y-84903486D01*
X130532702Y-84831903D01*
X129719605Y-85645000D01*
X129360395Y-85645000D01*
X128547298Y-84831903D01*
X128303329Y-84903486D01*
X128182429Y-85158996D01*
X128113700Y-85433184D01*
X128099783Y-85715512D01*
X124476277Y-85715512D01*
X124461680Y-85680273D01*
X124304637Y-85445241D01*
X124104759Y-85245363D01*
X124075000Y-85225479D01*
X124075000Y-85133465D01*
X124079281Y-85089999D01*
X124075000Y-85046533D01*
X124075000Y-85046523D01*
X124062195Y-84916510D01*
X124011589Y-84749687D01*
X123959535Y-84652298D01*
X128726903Y-84652298D01*
X129540000Y-85465395D01*
X130353097Y-84652298D01*
X130281514Y-84408329D01*
X130026004Y-84287429D01*
X129751816Y-84218700D01*
X129469488Y-84204783D01*
X129189870Y-84246213D01*
X128923708Y-84341397D01*
X128798486Y-84408329D01*
X128726903Y-84652298D01*
X123959535Y-84652298D01*
X123929411Y-84595941D01*
X123818817Y-84461183D01*
X123785049Y-84433470D01*
X122805000Y-83453422D01*
X122805000Y-82414521D01*
X122834759Y-82394637D01*
X123034637Y-82194759D01*
X123190000Y-81962241D01*
X123345363Y-82194759D01*
X123545241Y-82394637D01*
X123780273Y-82551680D01*
X124041426Y-82659853D01*
X124318665Y-82715000D01*
X124601335Y-82715000D01*
X124878574Y-82659853D01*
X125139727Y-82551680D01*
X125374759Y-82394637D01*
X125574637Y-82194759D01*
X125731680Y-81959727D01*
X125839853Y-81698574D01*
X125895000Y-81421335D01*
X125895000Y-81138665D01*
X125839853Y-80861426D01*
X125731680Y-80600273D01*
X125574637Y-80365241D01*
X125374759Y-80165363D01*
X125139727Y-80008320D01*
X124878574Y-79900147D01*
X124601335Y-79845000D01*
X124318665Y-79845000D01*
X124041426Y-79900147D01*
X123780273Y-80008320D01*
X123545241Y-80165363D01*
X123345363Y-80365241D01*
X123190000Y-80597759D01*
X123034637Y-80365241D01*
X122834759Y-80165363D01*
X122599727Y-80008320D01*
X122338574Y-79900147D01*
X122061335Y-79845000D01*
X121778665Y-79845000D01*
X121501426Y-79900147D01*
X121240273Y-80008320D01*
X121005241Y-80165363D01*
X120805363Y-80365241D01*
X120650000Y-80597759D01*
X120494637Y-80365241D01*
X120294759Y-80165363D01*
X120059727Y-80008320D01*
X119798574Y-79900147D01*
X119521335Y-79845000D01*
X119238665Y-79845000D01*
X118961426Y-79900147D01*
X118700273Y-80008320D01*
X118465241Y-80165363D01*
X118266643Y-80363961D01*
X118265812Y-80355518D01*
X118229502Y-80235820D01*
X118170537Y-80125506D01*
X118091185Y-80028815D01*
X117994494Y-79949463D01*
X117884180Y-79890498D01*
X117764482Y-79854188D01*
X117640000Y-79841928D01*
X117125750Y-79845000D01*
X116967000Y-80003750D01*
X116967000Y-81153000D01*
X116987000Y-81153000D01*
X116987000Y-81407000D01*
X116967000Y-81407000D01*
X116967000Y-81427000D01*
X116713000Y-81427000D01*
X116713000Y-81407000D01*
X115563750Y-81407000D01*
X115405000Y-81565750D01*
X115402510Y-81982500D01*
X109269079Y-81982500D01*
X108108017Y-80821439D01*
X108115000Y-80786335D01*
X108115000Y-80503665D01*
X108110293Y-80480000D01*
X115401928Y-80480000D01*
X115405000Y-80994250D01*
X115563750Y-81153000D01*
X116713000Y-81153000D01*
X116713000Y-80003750D01*
X116554250Y-79845000D01*
X116040000Y-79841928D01*
X115915518Y-79854188D01*
X115795820Y-79890498D01*
X115685506Y-79949463D01*
X115588815Y-80028815D01*
X115509463Y-80125506D01*
X115450498Y-80235820D01*
X115414188Y-80355518D01*
X115401928Y-80480000D01*
X108110293Y-80480000D01*
X108108017Y-80468561D01*
X108951579Y-79625000D01*
X110483982Y-79625000D01*
X110558815Y-79716185D01*
X110655506Y-79795537D01*
X110765820Y-79854502D01*
X110885518Y-79890812D01*
X111010000Y-79903072D01*
X112510000Y-79903072D01*
X112634482Y-79890812D01*
X112754180Y-79854502D01*
X112864494Y-79795537D01*
X112961185Y-79716185D01*
X113040537Y-79619494D01*
X113099502Y-79509180D01*
X113135812Y-79389482D01*
X113148072Y-79265000D01*
X113148072Y-78215000D01*
X113135812Y-78090518D01*
X113099502Y-77970820D01*
X113064907Y-77906098D01*
X113128215Y-77697400D01*
X113150612Y-77470000D01*
X113128215Y-77242600D01*
X113061885Y-77023940D01*
X112961071Y-76835331D01*
X113002275Y-76776882D01*
X113095272Y-76567337D01*
X113103964Y-76505810D01*
X112978163Y-76327000D01*
X112213109Y-76327000D01*
X112212400Y-76326785D01*
X112041979Y-76310000D01*
X111478021Y-76310000D01*
X111307600Y-76326785D01*
X111306891Y-76327000D01*
X110541837Y-76327000D01*
X110416036Y-76505810D01*
X110424728Y-76567337D01*
X110432567Y-76585000D01*
X107814521Y-76585000D01*
X107794637Y-76555241D01*
X107594759Y-76355363D01*
X107359727Y-76198320D01*
X107098574Y-76090147D01*
X106821335Y-76035000D01*
X106538665Y-76035000D01*
X106261426Y-76090147D01*
X106000273Y-76198320D01*
X105765241Y-76355363D01*
X105565363Y-76555241D01*
X105408320Y-76790273D01*
X105300147Y-77051426D01*
X105245000Y-77328665D01*
X100495000Y-77328665D01*
X100439853Y-77051426D01*
X100331680Y-76790273D01*
X100174637Y-76555241D01*
X99974759Y-76355363D01*
X99945000Y-76335479D01*
X99945000Y-75894190D01*
X110416036Y-75894190D01*
X110541837Y-76073000D01*
X111633000Y-76073000D01*
X111633000Y-75193402D01*
X111887000Y-75193402D01*
X111887000Y-76073000D01*
X112978163Y-76073000D01*
X113103964Y-75894190D01*
X113095272Y-75832663D01*
X113002275Y-75623118D01*
X112870184Y-75435742D01*
X112704076Y-75277736D01*
X112510334Y-75155172D01*
X112296404Y-75072761D01*
X112070507Y-75033669D01*
X111887000Y-75193402D01*
X111633000Y-75193402D01*
X111449493Y-75033669D01*
X111223596Y-75072761D01*
X111009666Y-75155172D01*
X110815924Y-75277736D01*
X110649816Y-75435742D01*
X110517725Y-75623118D01*
X110424728Y-75832663D01*
X110416036Y-75894190D01*
X99945000Y-75894190D01*
X99945000Y-75429521D01*
X99974759Y-75409637D01*
X100174637Y-75209759D01*
X100331680Y-74974727D01*
X100439853Y-74713574D01*
X100453684Y-74644039D01*
X105288096Y-74644039D01*
X105328754Y-74778087D01*
X105448963Y-75032420D01*
X105616481Y-75258414D01*
X105824869Y-75447385D01*
X106066119Y-75592070D01*
X106330960Y-75686909D01*
X106553000Y-75565624D01*
X106553000Y-74422000D01*
X106807000Y-74422000D01*
X106807000Y-75565624D01*
X107029040Y-75686909D01*
X107293881Y-75592070D01*
X107535131Y-75447385D01*
X107743519Y-75258414D01*
X107911037Y-75032420D01*
X108031246Y-74778087D01*
X108071904Y-74644039D01*
X107949915Y-74422000D01*
X106807000Y-74422000D01*
X106553000Y-74422000D01*
X105410085Y-74422000D01*
X105288096Y-74644039D01*
X100453684Y-74644039D01*
X100495000Y-74436335D01*
X100495000Y-74153665D01*
X100453685Y-73945961D01*
X105288096Y-73945961D01*
X105410085Y-74168000D01*
X106553000Y-74168000D01*
X106553000Y-73024376D01*
X106807000Y-73024376D01*
X106807000Y-74168000D01*
X107949915Y-74168000D01*
X108071904Y-73945961D01*
X108031246Y-73811913D01*
X107911037Y-73557580D01*
X107743519Y-73331586D01*
X107535131Y-73142615D01*
X107293881Y-72997930D01*
X107029040Y-72903091D01*
X106807000Y-73024376D01*
X106553000Y-73024376D01*
X106330960Y-72903091D01*
X106066119Y-72997930D01*
X105824869Y-73142615D01*
X105616481Y-73331586D01*
X105448963Y-73557580D01*
X105328754Y-73811913D01*
X105288096Y-73945961D01*
X100453685Y-73945961D01*
X100439853Y-73876426D01*
X100331680Y-73615273D01*
X100174637Y-73380241D01*
X99974759Y-73180363D01*
X99945000Y-73160479D01*
X99945000Y-72549701D01*
X99984482Y-72545812D01*
X100104180Y-72509502D01*
X100214494Y-72450537D01*
X100311185Y-72371185D01*
X100390537Y-72274494D01*
X100449502Y-72164180D01*
X100485812Y-72044482D01*
X100498072Y-71920000D01*
X100498072Y-71469039D01*
X105288096Y-71469039D01*
X105328754Y-71603087D01*
X105448963Y-71857420D01*
X105616481Y-72083414D01*
X105824869Y-72272385D01*
X106066119Y-72417070D01*
X106330960Y-72511909D01*
X106553000Y-72390624D01*
X106553000Y-71247000D01*
X106807000Y-71247000D01*
X106807000Y-72390624D01*
X107029040Y-72511909D01*
X107293881Y-72417070D01*
X107535131Y-72272385D01*
X107743519Y-72083414D01*
X107911037Y-71857420D01*
X108006754Y-71654905D01*
X108782697Y-71654905D01*
X108782801Y-71671327D01*
X108785166Y-71693971D01*
X108784702Y-71716737D01*
X108785455Y-71725641D01*
X108786696Y-71739192D01*
X108791996Y-71766891D01*
X108794295Y-71794997D01*
X108795951Y-71803779D01*
X108798205Y-71815293D01*
X108806353Y-71842494D01*
X108811557Y-71870419D01*
X108814104Y-71878985D01*
X108817248Y-71889297D01*
X108825205Y-71908453D01*
X108830596Y-71928487D01*
X108833808Y-71936826D01*
X108837718Y-71946771D01*
X108841162Y-71953513D01*
X108843404Y-71960748D01*
X108846927Y-71968960D01*
X108851477Y-71979370D01*
X108851708Y-71979783D01*
X108851856Y-71980236D01*
X108855505Y-71988393D01*
X108856987Y-71991644D01*
X108876029Y-72024494D01*
X108892498Y-72058720D01*
X108897194Y-72066323D01*
X108922359Y-72106444D01*
X108960183Y-72155388D01*
X108997968Y-72204460D01*
X108998698Y-72205227D01*
X108998737Y-72205277D01*
X108998790Y-72205323D01*
X109004130Y-72210931D01*
X109038294Y-72246312D01*
X109038971Y-72246888D01*
X109039528Y-72247587D01*
X109086725Y-72287535D01*
X109133410Y-72327272D01*
X109134183Y-72327704D01*
X109134867Y-72328283D01*
X109142255Y-72333311D01*
X109180961Y-72359266D01*
X109205658Y-72372533D01*
X109219182Y-72382320D01*
X109244454Y-72393940D01*
X109275176Y-72411526D01*
X109283354Y-72415130D01*
X109287953Y-72417119D01*
X109289696Y-72417678D01*
X109290995Y-72418376D01*
X109310718Y-72424423D01*
X109310828Y-72424458D01*
X109332666Y-72434499D01*
X109341131Y-72437362D01*
X109355577Y-72442137D01*
X109367722Y-72444872D01*
X109379299Y-72449472D01*
X109387904Y-72451885D01*
X109410114Y-72457948D01*
X109414121Y-72458631D01*
X109417944Y-72460033D01*
X109426610Y-72462216D01*
X109457262Y-72469713D01*
X109457749Y-72469783D01*
X109458222Y-72469948D01*
X109466921Y-72471996D01*
X109506697Y-72481073D01*
X109506827Y-72481089D01*
X109512808Y-72482437D01*
X109562383Y-72493241D01*
X109562543Y-72493260D01*
X109566472Y-72494118D01*
X109626525Y-72506795D01*
X109626660Y-72506810D01*
X109629341Y-72507383D01*
X109700550Y-72522081D01*
X109700660Y-72522093D01*
X109702554Y-72522491D01*
X109785597Y-72539355D01*
X109785685Y-72539364D01*
X109787041Y-72539646D01*
X109882596Y-72558822D01*
X109882655Y-72558828D01*
X109883635Y-72559030D01*
X109992381Y-72580666D01*
X109992404Y-72580668D01*
X109992792Y-72580748D01*
X110382490Y-72658017D01*
X110402279Y-72671580D01*
X110423261Y-72683127D01*
X110442701Y-72697120D01*
X110450460Y-72701553D01*
X110479608Y-72717940D01*
X110497313Y-72725728D01*
X110513811Y-72735834D01*
X110521877Y-72739679D01*
X110530946Y-72743925D01*
X110538167Y-72746480D01*
X110544846Y-72750232D01*
X110553053Y-72753770D01*
X110572260Y-72761892D01*
X110602912Y-72771452D01*
X110612077Y-72775300D01*
X110618296Y-72778303D01*
X110620745Y-72778940D01*
X110632520Y-72783884D01*
X110641076Y-72786463D01*
X110658571Y-72791604D01*
X110681551Y-72795978D01*
X110691501Y-72799081D01*
X110698306Y-72799811D01*
X110705310Y-72800928D01*
X110739182Y-72809735D01*
X110748019Y-72811067D01*
X110767755Y-72813902D01*
X110778191Y-72814371D01*
X110781274Y-72814958D01*
X110789836Y-72814895D01*
X110794088Y-72815086D01*
X110820124Y-72819238D01*
X110829048Y-72819714D01*
X110854981Y-72820919D01*
X110863152Y-72820499D01*
X110871283Y-72821469D01*
X110880218Y-72821593D01*
X110916305Y-72821845D01*
X110916431Y-72821834D01*
X110922684Y-72821858D01*
X110951499Y-72821772D01*
X110955430Y-72821375D01*
X110959378Y-72821701D01*
X110968312Y-72821501D01*
X110995442Y-72820707D01*
X111017849Y-72817846D01*
X111027388Y-72817827D01*
X111028541Y-72817883D01*
X111028940Y-72817824D01*
X111040444Y-72817801D01*
X111049330Y-72816849D01*
X111069673Y-72814526D01*
X111107585Y-72806388D01*
X111119342Y-72804887D01*
X111121160Y-72804279D01*
X111129729Y-72803567D01*
X111134517Y-72802198D01*
X111152101Y-72799596D01*
X111160755Y-72797370D01*
X111178410Y-72792699D01*
X111188011Y-72789125D01*
X111191797Y-72788312D01*
X111201965Y-72783930D01*
X111213658Y-72779577D01*
X111249825Y-72769239D01*
X111258113Y-72765898D01*
X111277179Y-72758058D01*
X111289817Y-72751352D01*
X111303320Y-72746621D01*
X111311398Y-72742801D01*
X111335974Y-72730970D01*
X111343464Y-72726415D01*
X111351607Y-72723179D01*
X111359521Y-72719029D01*
X111386396Y-72704697D01*
X111407962Y-72690329D01*
X111431026Y-72678525D01*
X111438512Y-72673644D01*
X111466618Y-72655038D01*
X111489652Y-72636316D01*
X111514488Y-72620055D01*
X111521411Y-72614405D01*
X111549906Y-72590821D01*
X111563398Y-72577228D01*
X111578604Y-72565587D01*
X111585093Y-72559443D01*
X111618078Y-72527772D01*
X111622650Y-72522431D01*
X111628077Y-72517959D01*
X111634341Y-72511587D01*
X111653765Y-72491549D01*
X111661347Y-72482020D01*
X111670336Y-72473794D01*
X111676261Y-72467105D01*
X111715603Y-72422063D01*
X111728700Y-72403726D01*
X111743987Y-72387164D01*
X111749328Y-72380000D01*
X111784238Y-72332489D01*
X111795312Y-72313843D01*
X111808676Y-72296758D01*
X111813415Y-72289182D01*
X111846505Y-72235461D01*
X111853413Y-72221317D01*
X111862313Y-72208329D01*
X111866566Y-72200470D01*
X111900450Y-72136796D01*
X111902140Y-72132700D01*
X111904544Y-72128974D01*
X111908577Y-72120999D01*
X111915812Y-72106443D01*
X111918378Y-72099698D01*
X111922071Y-72093489D01*
X111925811Y-72085373D01*
X111969808Y-71988118D01*
X111974895Y-71973125D01*
X111982110Y-71959034D01*
X111985329Y-71950698D01*
X112024225Y-71847838D01*
X112027829Y-71834493D01*
X112033419Y-71821847D01*
X112036157Y-71813341D01*
X112071559Y-71700688D01*
X112072412Y-71696620D01*
X112073992Y-71692769D01*
X112076500Y-71684192D01*
X112079832Y-71672498D01*
X112080634Y-71668085D01*
X112082221Y-71663887D01*
X112084489Y-71655243D01*
X112118189Y-71523071D01*
X112119987Y-71511327D01*
X112123618Y-71500006D01*
X112125442Y-71491258D01*
X112151930Y-71359685D01*
X112153146Y-71347675D01*
X112156238Y-71335996D01*
X112157608Y-71327166D01*
X112176777Y-71197773D01*
X112177408Y-71184988D01*
X112180016Y-71172441D01*
X112180909Y-71163549D01*
X112192653Y-71037915D01*
X112192589Y-71023717D01*
X112194664Y-71009672D01*
X112195039Y-71000744D01*
X112199251Y-70880445D01*
X112198220Y-70864042D01*
X112199559Y-70847655D01*
X112199351Y-70838721D01*
X112195925Y-70725340D01*
X112193391Y-70705642D01*
X112193502Y-70685782D01*
X112192618Y-70676889D01*
X112181447Y-70572003D01*
X112176391Y-70547545D01*
X112174238Y-70522658D01*
X112172540Y-70513884D01*
X112153517Y-70419072D01*
X112147909Y-70400665D01*
X112144836Y-70381660D01*
X112142495Y-70373036D01*
X112135562Y-70348177D01*
X112127119Y-70326392D01*
X112121404Y-70303740D01*
X112118324Y-70295351D01*
X112090689Y-70221674D01*
X112072408Y-70184457D01*
X112056613Y-70146109D01*
X112052364Y-70138248D01*
X112017150Y-70074158D01*
X111991078Y-70036061D01*
X111966983Y-69996675D01*
X111961548Y-69989582D01*
X111919623Y-69935643D01*
X111884308Y-69898373D01*
X111850318Y-69859898D01*
X111843734Y-69853856D01*
X111795968Y-69810633D01*
X111750551Y-69776976D01*
X111705730Y-69742454D01*
X111698119Y-69737772D01*
X111645380Y-69705828D01*
X111590533Y-69679546D01*
X111535602Y-69652901D01*
X111532854Y-69651908D01*
X111532738Y-69651852D01*
X111532607Y-69651818D01*
X111527198Y-69649863D01*
X111470357Y-69629761D01*
X111469395Y-69629523D01*
X111468500Y-69629108D01*
X111408739Y-69614539D01*
X111349096Y-69599806D01*
X111348112Y-69599760D01*
X111347148Y-69599525D01*
X111338292Y-69598328D01*
X111278216Y-69590632D01*
X111277497Y-69590611D01*
X111276797Y-69590452D01*
X111214924Y-69588753D01*
X111153365Y-69586926D01*
X111152661Y-69587044D01*
X111151938Y-69587024D01*
X111143029Y-69587715D01*
X111080588Y-69592989D01*
X111021558Y-69603853D01*
X110991228Y-69609196D01*
X110604702Y-69532415D01*
X110604687Y-69532414D01*
X110604553Y-69532386D01*
X110584098Y-69528328D01*
X110584052Y-69528324D01*
X110583350Y-69528180D01*
X110497683Y-69511290D01*
X110497617Y-69511284D01*
X110496458Y-69511049D01*
X110414457Y-69495048D01*
X110414375Y-69495040D01*
X110413160Y-69494797D01*
X110335954Y-69479897D01*
X110335877Y-69479890D01*
X110334523Y-69479622D01*
X110263242Y-69466034D01*
X110263151Y-69466026D01*
X110261563Y-69465716D01*
X110206367Y-69455347D01*
X110206363Y-69455347D01*
X110206329Y-69455340D01*
X110197297Y-69453644D01*
X110197192Y-69453635D01*
X110195221Y-69453257D01*
X110139180Y-69442924D01*
X110139043Y-69442912D01*
X110136213Y-69442384D01*
X110089487Y-69433996D01*
X110089327Y-69433983D01*
X110084766Y-69433167D01*
X110048483Y-69426934D01*
X110048199Y-69426913D01*
X110047923Y-69426838D01*
X110039105Y-69425395D01*
X110014396Y-69421526D01*
X110003406Y-69420893D01*
X109992664Y-69418505D01*
X109983786Y-69417489D01*
X109971780Y-69416199D01*
X109912322Y-69415646D01*
X109889696Y-69414343D01*
X109882967Y-69415277D01*
X109849096Y-69414844D01*
X109846983Y-69415039D01*
X109846879Y-69415038D01*
X109846769Y-69415059D01*
X109840197Y-69415665D01*
X109807936Y-69418867D01*
X109748841Y-69430641D01*
X109689773Y-69441976D01*
X109685598Y-69443242D01*
X109685437Y-69443274D01*
X109685286Y-69443337D01*
X109681221Y-69444569D01*
X109632788Y-69459620D01*
X109628042Y-69461621D01*
X109623012Y-69462744D01*
X109570495Y-69485887D01*
X109517695Y-69508150D01*
X109513433Y-69511032D01*
X109508712Y-69513112D01*
X109500957Y-69517551D01*
X109456839Y-69543209D01*
X109453004Y-69545973D01*
X109448742Y-69547999D01*
X109402375Y-69582464D01*
X109355510Y-69616242D01*
X109352291Y-69619692D01*
X109348497Y-69622512D01*
X109341921Y-69628564D01*
X109305084Y-69662944D01*
X109297120Y-69671985D01*
X109287840Y-69679655D01*
X109255907Y-69718772D01*
X109222522Y-69756672D01*
X109216469Y-69767082D01*
X109208851Y-69776414D01*
X109203955Y-69783889D01*
X109177364Y-69825109D01*
X109169244Y-69840891D01*
X109159553Y-69854529D01*
X109148507Y-69879110D01*
X109134536Y-69902852D01*
X109130835Y-69910985D01*
X109130600Y-69911511D01*
X109126323Y-69924313D01*
X109120219Y-69936177D01*
X109115537Y-69952477D01*
X109108355Y-69968459D01*
X109105564Y-69976949D01*
X109100999Y-69991169D01*
X109097916Y-70005433D01*
X109092733Y-70019082D01*
X109090452Y-70027723D01*
X109083492Y-70054847D01*
X109083116Y-70057278D01*
X109082292Y-70059598D01*
X109080198Y-70068285D01*
X109070820Y-70108421D01*
X109070807Y-70108521D01*
X109069235Y-70115377D01*
X109057415Y-70168631D01*
X109057396Y-70168784D01*
X109056490Y-70172864D01*
X109042206Y-70239344D01*
X109042190Y-70239484D01*
X109041604Y-70242180D01*
X109024833Y-70321994D01*
X109024821Y-70322102D01*
X109024410Y-70324023D01*
X109005130Y-70417277D01*
X109005121Y-70417364D01*
X109004820Y-70418786D01*
X108983007Y-70525589D01*
X108983000Y-70525654D01*
X108982769Y-70526758D01*
X108958401Y-70647215D01*
X108958396Y-70647266D01*
X108958214Y-70648140D01*
X108931268Y-70782359D01*
X108931265Y-70782389D01*
X108931187Y-70782765D01*
X108927623Y-70800576D01*
X108927622Y-70800582D01*
X108927618Y-70800603D01*
X108904422Y-70916556D01*
X108904420Y-70916571D01*
X108904368Y-70916825D01*
X108883795Y-71019896D01*
X108883791Y-71019941D01*
X108883673Y-71020512D01*
X108865598Y-71111533D01*
X108865592Y-71111596D01*
X108865376Y-71112654D01*
X108849676Y-71192461D01*
X108849667Y-71192557D01*
X108849320Y-71194282D01*
X108835871Y-71263710D01*
X108835858Y-71263847D01*
X108835331Y-71266533D01*
X108824010Y-71326414D01*
X108823996Y-71326574D01*
X108823225Y-71330646D01*
X108813907Y-71381814D01*
X108813896Y-71381943D01*
X108812794Y-71388104D01*
X108805356Y-71431395D01*
X108805340Y-71431618D01*
X108805279Y-71431840D01*
X108803834Y-71440659D01*
X108798152Y-71476909D01*
X108798013Y-71479316D01*
X108797425Y-71481660D01*
X108796170Y-71490507D01*
X108792120Y-71520548D01*
X108791918Y-71526129D01*
X108790728Y-71531593D01*
X108789751Y-71540476D01*
X108787210Y-71565143D01*
X108787161Y-71575178D01*
X108785470Y-71585079D01*
X108784896Y-71593996D01*
X108783739Y-71614124D01*
X108784383Y-71630079D01*
X108782702Y-71645969D01*
X108782697Y-71654905D01*
X108006754Y-71654905D01*
X108031246Y-71603087D01*
X108071904Y-71469039D01*
X107949915Y-71247000D01*
X106807000Y-71247000D01*
X106553000Y-71247000D01*
X105410085Y-71247000D01*
X105288096Y-71469039D01*
X100498072Y-71469039D01*
X100498072Y-70770961D01*
X105288096Y-70770961D01*
X105410085Y-70993000D01*
X106553000Y-70993000D01*
X106553000Y-69849376D01*
X106807000Y-69849376D01*
X106807000Y-70993000D01*
X107949915Y-70993000D01*
X108071904Y-70770961D01*
X108031246Y-70636913D01*
X107911037Y-70382580D01*
X107743519Y-70156586D01*
X107535131Y-69967615D01*
X107293881Y-69822930D01*
X107029040Y-69728091D01*
X106807000Y-69849376D01*
X106553000Y-69849376D01*
X106330960Y-69728091D01*
X106066119Y-69822930D01*
X105824869Y-69967615D01*
X105616481Y-70156586D01*
X105448963Y-70382580D01*
X105328754Y-70636913D01*
X105288096Y-70770961D01*
X100498072Y-70770961D01*
X100498072Y-70320000D01*
X100485812Y-70195518D01*
X100449502Y-70075820D01*
X100390537Y-69965506D01*
X100311185Y-69868815D01*
X100214494Y-69789463D01*
X100104180Y-69730498D01*
X99984482Y-69694188D01*
X99860000Y-69681928D01*
X98260000Y-69681928D01*
X98135518Y-69694188D01*
X98015820Y-69730498D01*
X97905506Y-69789463D01*
X97808815Y-69868815D01*
X97729463Y-69965506D01*
X97670498Y-70075820D01*
X97634188Y-70195518D01*
X97630299Y-70235000D01*
X94023469Y-70235000D01*
X93980000Y-70230719D01*
X93936531Y-70235000D01*
X93936523Y-70235000D01*
X93806510Y-70247805D01*
X93639687Y-70298411D01*
X93511357Y-70367004D01*
X93485941Y-70380589D01*
X93384953Y-70463468D01*
X93384951Y-70463470D01*
X93351183Y-70491183D01*
X93323470Y-70524951D01*
X89118961Y-74729461D01*
X89046260Y-74715000D01*
X88753740Y-74715000D01*
X88466842Y-74772068D01*
X88196589Y-74884010D01*
X87953368Y-75046525D01*
X87746525Y-75253368D01*
X87584010Y-75496589D01*
X87472068Y-75766842D01*
X87415000Y-76053740D01*
X87415000Y-76346260D01*
X87472068Y-76633158D01*
X87584010Y-76903411D01*
X87746525Y-77146632D01*
X87878380Y-77278487D01*
X87805820Y-77300498D01*
X87695506Y-77359463D01*
X87598815Y-77438815D01*
X87519463Y-77535506D01*
X87460498Y-77645820D01*
X87424188Y-77765518D01*
X87411928Y-77890000D01*
X85775000Y-77890000D01*
X85775000Y-71970000D01*
X87411928Y-71970000D01*
X87424188Y-72094482D01*
X87460498Y-72214180D01*
X87519463Y-72324494D01*
X87598815Y-72421185D01*
X87695506Y-72500537D01*
X87805820Y-72559502D01*
X87925518Y-72595812D01*
X88050000Y-72608072D01*
X88614250Y-72605000D01*
X88773000Y-72446250D01*
X88773000Y-71247000D01*
X89027000Y-71247000D01*
X89027000Y-72446250D01*
X89185750Y-72605000D01*
X89750000Y-72608072D01*
X89874482Y-72595812D01*
X89994180Y-72559502D01*
X90104494Y-72500537D01*
X90201185Y-72421185D01*
X90280537Y-72324494D01*
X90339502Y-72214180D01*
X90375812Y-72094482D01*
X90388072Y-71970000D01*
X90385000Y-71405750D01*
X90226250Y-71247000D01*
X89027000Y-71247000D01*
X88773000Y-71247000D01*
X87573750Y-71247000D01*
X87415000Y-71405750D01*
X87411928Y-71970000D01*
X85775000Y-71970000D01*
X85775000Y-70270000D01*
X87411928Y-70270000D01*
X87415000Y-70834250D01*
X87573750Y-70993000D01*
X88773000Y-70993000D01*
X88773000Y-70973000D01*
X89027000Y-70973000D01*
X89027000Y-70993000D01*
X90226250Y-70993000D01*
X90385000Y-70834250D01*
X90388072Y-70270000D01*
X90375812Y-70145518D01*
X90339502Y-70025820D01*
X90280537Y-69915506D01*
X90201185Y-69818815D01*
X90104494Y-69739463D01*
X89994180Y-69680498D01*
X89921620Y-69658487D01*
X90053475Y-69526632D01*
X90215990Y-69283411D01*
X90327932Y-69013158D01*
X90385000Y-68726260D01*
X90385000Y-68433740D01*
X90327932Y-68146842D01*
X90215990Y-67876589D01*
X90167264Y-67803665D01*
X97625000Y-67803665D01*
X97625000Y-68086335D01*
X97680147Y-68363574D01*
X97788320Y-68624727D01*
X97945363Y-68859759D01*
X98145241Y-69059637D01*
X98380273Y-69216680D01*
X98641426Y-69324853D01*
X98918665Y-69380000D01*
X99201335Y-69380000D01*
X99478574Y-69324853D01*
X99739727Y-69216680D01*
X99974759Y-69059637D01*
X100174637Y-68859759D01*
X100331680Y-68624727D01*
X100439853Y-68363574D01*
X100495000Y-68086335D01*
X100495000Y-67803665D01*
X105245000Y-67803665D01*
X105245000Y-68086335D01*
X105300147Y-68363574D01*
X105408320Y-68624727D01*
X105565363Y-68859759D01*
X105765241Y-69059637D01*
X106000273Y-69216680D01*
X106261426Y-69324853D01*
X106538665Y-69380000D01*
X106821335Y-69380000D01*
X107098574Y-69324853D01*
X107359727Y-69216680D01*
X107594759Y-69059637D01*
X107794637Y-68859759D01*
X107814521Y-68830000D01*
X116696615Y-68830000D01*
X116730147Y-68998574D01*
X116838320Y-69259727D01*
X116995363Y-69494759D01*
X117195241Y-69694637D01*
X117430273Y-69851680D01*
X117691426Y-69959853D01*
X117968665Y-70015000D01*
X118251335Y-70015000D01*
X118528574Y-69959853D01*
X118789727Y-69851680D01*
X119024759Y-69694637D01*
X119224637Y-69494759D01*
X119380000Y-69262241D01*
X119535363Y-69494759D01*
X119644513Y-69603909D01*
X118784956Y-70463466D01*
X118751183Y-70491183D01*
X118640589Y-70625942D01*
X118558411Y-70779688D01*
X118524577Y-70891223D01*
X118507805Y-70946510D01*
X118507094Y-70953733D01*
X118495000Y-71076524D01*
X118495000Y-71076531D01*
X118490719Y-71120000D01*
X118495000Y-71163469D01*
X118495001Y-72525478D01*
X118465241Y-72545363D01*
X118265363Y-72745241D01*
X118110000Y-72977759D01*
X117954637Y-72745241D01*
X117754759Y-72545363D01*
X117519727Y-72388320D01*
X117258574Y-72280147D01*
X116981335Y-72225000D01*
X116698665Y-72225000D01*
X116421426Y-72280147D01*
X116160273Y-72388320D01*
X115925241Y-72545363D01*
X115725363Y-72745241D01*
X115568320Y-72980273D01*
X115460147Y-73241426D01*
X115405000Y-73518665D01*
X115405000Y-73801335D01*
X115460147Y-74078574D01*
X115568320Y-74339727D01*
X115725363Y-74574759D01*
X115925241Y-74774637D01*
X116160273Y-74931680D01*
X116421426Y-75039853D01*
X116698665Y-75095000D01*
X116981335Y-75095000D01*
X117258574Y-75039853D01*
X117519727Y-74931680D01*
X117754759Y-74774637D01*
X117954637Y-74574759D01*
X118110000Y-74342241D01*
X118265363Y-74574759D01*
X118465241Y-74774637D01*
X118700273Y-74931680D01*
X118961426Y-75039853D01*
X119238665Y-75095000D01*
X119521335Y-75095000D01*
X119798574Y-75039853D01*
X120059727Y-74931680D01*
X120294759Y-74774637D01*
X120494637Y-74574759D01*
X120514521Y-74545000D01*
X120785479Y-74545000D01*
X120805363Y-74574759D01*
X121005241Y-74774637D01*
X121240273Y-74931680D01*
X121501426Y-75039853D01*
X121778665Y-75095000D01*
X122061335Y-75095000D01*
X122338574Y-75039853D01*
X122599727Y-74931680D01*
X122834759Y-74774637D01*
X123034637Y-74574759D01*
X123190000Y-74342241D01*
X123345363Y-74574759D01*
X123545241Y-74774637D01*
X123780273Y-74931680D01*
X124041426Y-75039853D01*
X124318665Y-75095000D01*
X124601335Y-75095000D01*
X124636439Y-75088017D01*
X128655000Y-79106579D01*
X128655000Y-79510478D01*
X128625241Y-79530363D01*
X128425363Y-79730241D01*
X128268320Y-79965273D01*
X128160147Y-80226426D01*
X128105000Y-80503665D01*
X128105000Y-80786335D01*
X128160147Y-81063574D01*
X128268320Y-81324727D01*
X128425363Y-81559759D01*
X128625241Y-81759637D01*
X128860273Y-81916680D01*
X129121426Y-82024853D01*
X129398665Y-82080000D01*
X129681335Y-82080000D01*
X129958574Y-82024853D01*
X130219727Y-81916680D01*
X130454759Y-81759637D01*
X130654637Y-81559759D01*
X130811680Y-81324727D01*
X130919853Y-81063574D01*
X130975000Y-80786335D01*
X130975000Y-80503665D01*
X130919853Y-80226426D01*
X130811680Y-79965273D01*
X130654637Y-79730241D01*
X130454759Y-79530363D01*
X130425000Y-79510479D01*
X130425000Y-78783469D01*
X130429281Y-78740000D01*
X130425000Y-78696531D01*
X130425000Y-78696523D01*
X130412195Y-78566510D01*
X130361589Y-78399687D01*
X130279411Y-78245941D01*
X130168817Y-78111183D01*
X130135051Y-78083472D01*
X127339281Y-75287702D01*
X128726903Y-75287702D01*
X128798486Y-75531671D01*
X129053996Y-75652571D01*
X129328184Y-75721300D01*
X129610512Y-75735217D01*
X129890130Y-75693787D01*
X130156292Y-75598603D01*
X130281514Y-75531671D01*
X130353097Y-75287702D01*
X129540000Y-74474605D01*
X128726903Y-75287702D01*
X127339281Y-75287702D01*
X126417091Y-74365512D01*
X128099783Y-74365512D01*
X128141213Y-74645130D01*
X128236397Y-74911292D01*
X128303329Y-75036514D01*
X128547298Y-75108097D01*
X129360395Y-74295000D01*
X129719605Y-74295000D01*
X130532702Y-75108097D01*
X130776671Y-75036514D01*
X130897571Y-74781004D01*
X130966300Y-74506816D01*
X130980217Y-74224488D01*
X130938787Y-73944870D01*
X130843603Y-73678708D01*
X130776671Y-73553486D01*
X130532702Y-73481903D01*
X129719605Y-74295000D01*
X129360395Y-74295000D01*
X128547298Y-73481903D01*
X128303329Y-73553486D01*
X128182429Y-73808996D01*
X128113700Y-74083184D01*
X128099783Y-74365512D01*
X126417091Y-74365512D01*
X125888017Y-73836439D01*
X125895000Y-73801335D01*
X125895000Y-73518665D01*
X125851962Y-73302298D01*
X128726903Y-73302298D01*
X129540000Y-74115395D01*
X130353097Y-73302298D01*
X130281514Y-73058329D01*
X130026004Y-72937429D01*
X129751816Y-72868700D01*
X129469488Y-72854783D01*
X129189870Y-72896213D01*
X128923708Y-72991397D01*
X128798486Y-73058329D01*
X128726903Y-73302298D01*
X125851962Y-73302298D01*
X125839853Y-73241426D01*
X125731680Y-72980273D01*
X125574637Y-72745241D01*
X125374759Y-72545363D01*
X125139727Y-72388320D01*
X124878574Y-72280147D01*
X124605709Y-72225870D01*
X126651579Y-70180000D01*
X128405479Y-70180000D01*
X128425363Y-70209759D01*
X128625241Y-70409637D01*
X128860273Y-70566680D01*
X129121426Y-70674853D01*
X129398665Y-70730000D01*
X129681335Y-70730000D01*
X129958574Y-70674853D01*
X130219727Y-70566680D01*
X130454759Y-70409637D01*
X130654637Y-70209759D01*
X130811680Y-69974727D01*
X130919853Y-69713574D01*
X130975000Y-69436335D01*
X130975000Y-69153665D01*
X130919853Y-68876426D01*
X130811680Y-68615273D01*
X130654637Y-68380241D01*
X130454759Y-68180363D01*
X130219727Y-68023320D01*
X129958574Y-67915147D01*
X129681335Y-67860000D01*
X129398665Y-67860000D01*
X129121426Y-67915147D01*
X128860273Y-68023320D01*
X128625241Y-68180363D01*
X128425363Y-68380241D01*
X128405479Y-68410000D01*
X126328465Y-68410000D01*
X126284999Y-68405719D01*
X126241533Y-68410000D01*
X126241523Y-68410000D01*
X126111510Y-68422805D01*
X125944687Y-68473411D01*
X125790941Y-68555589D01*
X125790939Y-68555590D01*
X125790940Y-68555590D01*
X125689953Y-68638468D01*
X125689951Y-68638470D01*
X125656183Y-68666183D01*
X125628470Y-68699951D01*
X122096439Y-72231983D01*
X122061335Y-72225000D01*
X121778665Y-72225000D01*
X121501426Y-72280147D01*
X121240273Y-72388320D01*
X121005241Y-72545363D01*
X120805363Y-72745241D01*
X120785479Y-72775000D01*
X120514521Y-72775000D01*
X120494637Y-72745241D01*
X120294759Y-72545363D01*
X120265000Y-72525479D01*
X120265000Y-71486578D01*
X121245049Y-70506530D01*
X121278817Y-70478817D01*
X121306859Y-70444649D01*
X121365670Y-70372987D01*
X121389411Y-70344059D01*
X121471589Y-70190313D01*
X121522195Y-70023490D01*
X121535000Y-69893477D01*
X121535000Y-69893467D01*
X121539281Y-69850001D01*
X121535000Y-69806535D01*
X121535000Y-69714521D01*
X121564759Y-69694637D01*
X121764637Y-69494759D01*
X121920000Y-69262241D01*
X122075363Y-69494759D01*
X122275241Y-69694637D01*
X122510273Y-69851680D01*
X122771426Y-69959853D01*
X123048665Y-70015000D01*
X123331335Y-70015000D01*
X123608574Y-69959853D01*
X123869727Y-69851680D01*
X124104759Y-69694637D01*
X124304637Y-69494759D01*
X124461680Y-69259727D01*
X124569853Y-68998574D01*
X124625000Y-68721335D01*
X124625000Y-68438665D01*
X124569853Y-68161426D01*
X124461680Y-67900273D01*
X124304637Y-67665241D01*
X124104759Y-67465363D01*
X123869727Y-67308320D01*
X123608574Y-67200147D01*
X123331335Y-67145000D01*
X123048665Y-67145000D01*
X122771426Y-67200147D01*
X122510273Y-67308320D01*
X122275241Y-67465363D01*
X122075363Y-67665241D01*
X121920000Y-67897759D01*
X121764637Y-67665241D01*
X121564759Y-67465363D01*
X121329727Y-67308320D01*
X121068574Y-67200147D01*
X120791335Y-67145000D01*
X120508665Y-67145000D01*
X120231426Y-67200147D01*
X119970273Y-67308320D01*
X119735241Y-67465363D01*
X119535363Y-67665241D01*
X119380000Y-67897759D01*
X119224637Y-67665241D01*
X119024759Y-67465363D01*
X118789727Y-67308320D01*
X118528574Y-67200147D01*
X118251335Y-67145000D01*
X117968665Y-67145000D01*
X117886341Y-67161376D01*
X117815313Y-67123411D01*
X117648490Y-67072805D01*
X117518477Y-67060000D01*
X117518469Y-67060000D01*
X117475000Y-67055719D01*
X117431531Y-67060000D01*
X107814521Y-67060000D01*
X107794637Y-67030241D01*
X107594759Y-66830363D01*
X107359727Y-66673320D01*
X107098574Y-66565147D01*
X106821335Y-66510000D01*
X106538665Y-66510000D01*
X106261426Y-66565147D01*
X106000273Y-66673320D01*
X105765241Y-66830363D01*
X105565363Y-67030241D01*
X105408320Y-67265273D01*
X105300147Y-67526426D01*
X105245000Y-67803665D01*
X100495000Y-67803665D01*
X100439853Y-67526426D01*
X100331680Y-67265273D01*
X100174637Y-67030241D01*
X99974759Y-66830363D01*
X99739727Y-66673320D01*
X99478574Y-66565147D01*
X99201335Y-66510000D01*
X98918665Y-66510000D01*
X98641426Y-66565147D01*
X98380273Y-66673320D01*
X98145241Y-66830363D01*
X97945363Y-67030241D01*
X97788320Y-67265273D01*
X97680147Y-67526426D01*
X97625000Y-67803665D01*
X90167264Y-67803665D01*
X90053475Y-67633368D01*
X89846632Y-67426525D01*
X89603411Y-67264010D01*
X89333158Y-67152068D01*
X89046260Y-67095000D01*
X88753740Y-67095000D01*
X88466842Y-67152068D01*
X88196589Y-67264010D01*
X87953368Y-67426525D01*
X87746525Y-67633368D01*
X87584010Y-67876589D01*
X87472068Y-68146842D01*
X87415000Y-68433740D01*
X87415000Y-68726260D01*
X87472068Y-69013158D01*
X87584010Y-69283411D01*
X87746525Y-69526632D01*
X87878380Y-69658487D01*
X87805820Y-69680498D01*
X87695506Y-69739463D01*
X87598815Y-69818815D01*
X87519463Y-69915506D01*
X87460498Y-70025820D01*
X87424188Y-70145518D01*
X87411928Y-70270000D01*
X85775000Y-70270000D01*
X85775000Y-65455000D01*
X92443094Y-65455000D01*
X92491447Y-65607430D01*
%TA.AperFunction,Conductor*%
D20*
G36*
X92491447Y-65607430D02*
G01*
X92515905Y-65664494D01*
X92539564Y-65721895D01*
X92544113Y-65730308D01*
X92694548Y-66003948D01*
X92729615Y-66055163D01*
X92763982Y-66106888D01*
X92770078Y-66114258D01*
X92970800Y-66353467D01*
X93015157Y-66396905D01*
X93058903Y-66440957D01*
X93066315Y-66447002D01*
X93309674Y-66642669D01*
X93361651Y-66676682D01*
X93413097Y-66711382D01*
X93421541Y-66715872D01*
X93698271Y-66860544D01*
X93755843Y-66883804D01*
X93813068Y-66907859D01*
X93822224Y-66910624D01*
X94121785Y-66998790D01*
X94182802Y-67010430D01*
X94243589Y-67022907D01*
X94253104Y-67023841D01*
X94253108Y-67023841D01*
X94564087Y-67052142D01*
X94626137Y-67051708D01*
X94688254Y-67052142D01*
X94697773Y-67051208D01*
X95008328Y-67018567D01*
X95069135Y-67006085D01*
X95130128Y-66994450D01*
X95139284Y-66991686D01*
X95437585Y-66899347D01*
X95494851Y-66875275D01*
X95552383Y-66852030D01*
X95560823Y-66847542D01*
X95560828Y-66847540D01*
X95560832Y-66847537D01*
X95835512Y-66699019D01*
X95886984Y-66664301D01*
X95938933Y-66630306D01*
X95946345Y-66624262D01*
X96186949Y-66425216D01*
X96230696Y-66381162D01*
X96275054Y-66337724D01*
X96281150Y-66330355D01*
X96478511Y-66088366D01*
X96512888Y-66036625D01*
X96547943Y-65985428D01*
X96552489Y-65977020D01*
X96552494Y-65977013D01*
X96552497Y-65977005D01*
X96699093Y-65701302D01*
X96722757Y-65643889D01*
X96747210Y-65586835D01*
X96750036Y-65577706D01*
X96750038Y-65577700D01*
X96750039Y-65577694D01*
X96787083Y-65455000D01*
X127368094Y-65455000D01*
X127416447Y-65607430D01*
X127440905Y-65664494D01*
X127464564Y-65721895D01*
X127469113Y-65730308D01*
X127619548Y-66003948D01*
X127654615Y-66055163D01*
X127688982Y-66106888D01*
X127695078Y-66114258D01*
X127895800Y-66353467D01*
X127940157Y-66396905D01*
X127983903Y-66440957D01*
X127991315Y-66447002D01*
X128234674Y-66642669D01*
X128286651Y-66676682D01*
X128338097Y-66711382D01*
X128346541Y-66715872D01*
X128623271Y-66860544D01*
X128680843Y-66883804D01*
X128738068Y-66907859D01*
X128747224Y-66910624D01*
X129046785Y-66998790D01*
X129107802Y-67010430D01*
X129168589Y-67022907D01*
X129178104Y-67023841D01*
X129178108Y-67023841D01*
X129489087Y-67052142D01*
X129551137Y-67051708D01*
X129613254Y-67052142D01*
X129622773Y-67051208D01*
X129933328Y-67018567D01*
X129994135Y-67006085D01*
X130055128Y-66994450D01*
X130064284Y-66991686D01*
X130362585Y-66899347D01*
X130419851Y-66875275D01*
X130477383Y-66852030D01*
X130485823Y-66847542D01*
X130485828Y-66847540D01*
X130485832Y-66847537D01*
X130760512Y-66699019D01*
X130811984Y-66664301D01*
X130863933Y-66630306D01*
X130871345Y-66624262D01*
X131111949Y-66425216D01*
X131155696Y-66381162D01*
X131200054Y-66337724D01*
X131206150Y-66330355D01*
X131403511Y-66088366D01*
X131437888Y-66036625D01*
X131472943Y-65985428D01*
X131477489Y-65977020D01*
X131477494Y-65977013D01*
X131477497Y-65977005D01*
X131624093Y-65701302D01*
X131647757Y-65643889D01*
X131672210Y-65586835D01*
X131675036Y-65577706D01*
X131675038Y-65577700D01*
X131675039Y-65577694D01*
X131712083Y-65455000D01*
X132665000Y-65455000D01*
X132665001Y-89485000D01*
X131711906Y-89485000D01*
X131663553Y-89332571D01*
X131639101Y-89275520D01*
X131615436Y-89218105D01*
X131610887Y-89209691D01*
X131460452Y-88936052D01*
X131425385Y-88884837D01*
X131391018Y-88833112D01*
X131384922Y-88825743D01*
X131184201Y-88586533D01*
X131139824Y-88543076D01*
X131096097Y-88499043D01*
X131088685Y-88492998D01*
X130845325Y-88297331D01*
X130793384Y-88263342D01*
X130741904Y-88228618D01*
X130733459Y-88224128D01*
X130456729Y-88079457D01*
X130399190Y-88056210D01*
X130341932Y-88032141D01*
X130332776Y-88029376D01*
X130033215Y-87941210D01*
X129972198Y-87929570D01*
X129911411Y-87917093D01*
X129901896Y-87916159D01*
X129901892Y-87916159D01*
X129590912Y-87887858D01*
X129528862Y-87888292D01*
X129466746Y-87887858D01*
X129457228Y-87888792D01*
X129457226Y-87888792D01*
X129146672Y-87921433D01*
X129085871Y-87933914D01*
X129024872Y-87945550D01*
X129015716Y-87948314D01*
X128717416Y-88040653D01*
X128660162Y-88064721D01*
X128602618Y-88087970D01*
X128594173Y-88092459D01*
X128319489Y-88240981D01*
X128268017Y-88275699D01*
X128216068Y-88309694D01*
X128208656Y-88315738D01*
X127968051Y-88514783D01*
X127924301Y-88558840D01*
X127879946Y-88602276D01*
X127873850Y-88609645D01*
X127676489Y-88851634D01*
X127642124Y-88903357D01*
X127607057Y-88954571D01*
X127602508Y-88962984D01*
X127455908Y-89238698D01*
X127432258Y-89296076D01*
X127407790Y-89353166D01*
X127404962Y-89362302D01*
X127367918Y-89485000D01*
X96786906Y-89485000D01*
X96738553Y-89332571D01*
X96714101Y-89275520D01*
X96690436Y-89218105D01*
X96685887Y-89209691D01*
X96535452Y-88936052D01*
X96500385Y-88884837D01*
X96466018Y-88833112D01*
X96459922Y-88825743D01*
X96259201Y-88586533D01*
X96214824Y-88543076D01*
X96171097Y-88499043D01*
X96163685Y-88492998D01*
X95920325Y-88297331D01*
X95868384Y-88263342D01*
X95816904Y-88228618D01*
X95808459Y-88224128D01*
X95531729Y-88079457D01*
X95474190Y-88056210D01*
X95416932Y-88032141D01*
X95407776Y-88029376D01*
X95108215Y-87941210D01*
X95047198Y-87929570D01*
X94986411Y-87917093D01*
X94976896Y-87916159D01*
X94976892Y-87916159D01*
X94665912Y-87887858D01*
X94603862Y-87888292D01*
X94541746Y-87887858D01*
X94532228Y-87888792D01*
X94532226Y-87888792D01*
X94221672Y-87921433D01*
X94160871Y-87933914D01*
X94099872Y-87945550D01*
X94090716Y-87948314D01*
X93792416Y-88040653D01*
X93735162Y-88064721D01*
X93677618Y-88087970D01*
X93669173Y-88092459D01*
X93394489Y-88240981D01*
X93343017Y-88275699D01*
X93291068Y-88309694D01*
X93283656Y-88315738D01*
X93043051Y-88514783D01*
X92999301Y-88558840D01*
X92954946Y-88602276D01*
X92948850Y-88609645D01*
X92751489Y-88851634D01*
X92717124Y-88903357D01*
X92682057Y-88954571D01*
X92677508Y-88962984D01*
X92530908Y-89238698D01*
X92507258Y-89296076D01*
X92482790Y-89353166D01*
X92479962Y-89362302D01*
X92442918Y-89485000D01*
X85775000Y-89485000D01*
X85775000Y-87210000D01*
X87411928Y-87210000D01*
X87424188Y-87334482D01*
X87460498Y-87454180D01*
X87519463Y-87564494D01*
X87598815Y-87661185D01*
X87695506Y-87740537D01*
X87805820Y-87799502D01*
X87925518Y-87835812D01*
X88050000Y-87848072D01*
X88614250Y-87845000D01*
X88773000Y-87686250D01*
X88773000Y-86487000D01*
X89027000Y-86487000D01*
X89027000Y-87686250D01*
X89185750Y-87845000D01*
X89750000Y-87848072D01*
X89874482Y-87835812D01*
X89994180Y-87799502D01*
X90104494Y-87740537D01*
X90201185Y-87661185D01*
X90280537Y-87564494D01*
X90339502Y-87454180D01*
X90375812Y-87334482D01*
X90388072Y-87210000D01*
X90385000Y-86645750D01*
X90226250Y-86487000D01*
X89027000Y-86487000D01*
X88773000Y-86487000D01*
X87573750Y-86487000D01*
X87415000Y-86645750D01*
X87411928Y-87210000D01*
X85775000Y-87210000D01*
X85775000Y-85510000D01*
X87411928Y-85510000D01*
X87415000Y-86074250D01*
X87573750Y-86233000D01*
X88773000Y-86233000D01*
X88773000Y-86213000D01*
X89027000Y-86213000D01*
X89027000Y-86233000D01*
X90226250Y-86233000D01*
X90385000Y-86074250D01*
X90388072Y-85510000D01*
X90375812Y-85385518D01*
X90339502Y-85265820D01*
X90280537Y-85155506D01*
X90201185Y-85058815D01*
X90104494Y-84979463D01*
X89994180Y-84920498D01*
X89921620Y-84898487D01*
X90053475Y-84766632D01*
X90094656Y-84705000D01*
X95518422Y-84705000D01*
X97631983Y-86818561D01*
X97625000Y-86853665D01*
X97625000Y-87136335D01*
X97680147Y-87413574D01*
X97788320Y-87674727D01*
X97945363Y-87909759D01*
X98145241Y-88109637D01*
X98380273Y-88266680D01*
X98641426Y-88374853D01*
X98918665Y-88430000D01*
X99201335Y-88430000D01*
X99478574Y-88374853D01*
X99739727Y-88266680D01*
X99974759Y-88109637D01*
X100174637Y-87909759D01*
X100331680Y-87674727D01*
X100439853Y-87413574D01*
X100495000Y-87136335D01*
X100495000Y-86853665D01*
X100439853Y-86576426D01*
X100331680Y-86315273D01*
X100174637Y-86080241D01*
X99974759Y-85880363D01*
X99739727Y-85723320D01*
X99478574Y-85615147D01*
X99201335Y-85560000D01*
X98918665Y-85560000D01*
X98883561Y-85566983D01*
X98428047Y-85111469D01*
X98641426Y-85199853D01*
X98918665Y-85255000D01*
X99201335Y-85255000D01*
X99478574Y-85199853D01*
X99739727Y-85091680D01*
X99974759Y-84934637D01*
X100174637Y-84734759D01*
X100331680Y-84499727D01*
X100439853Y-84238574D01*
X100495000Y-83961335D01*
X100495000Y-83678665D01*
X100439853Y-83401426D01*
X100331680Y-83140273D01*
X100174637Y-82905241D01*
X99974759Y-82705363D01*
X99739727Y-82548320D01*
X99478574Y-82440147D01*
X99201335Y-82385000D01*
X98918665Y-82385000D01*
X98883561Y-82391983D01*
X98428048Y-81936469D01*
X98641426Y-82024853D01*
X98918665Y-82080000D01*
X99201335Y-82080000D01*
X99478574Y-82024853D01*
X99739727Y-81916680D01*
X99974759Y-81759637D01*
X100174637Y-81559759D01*
X100331680Y-81324727D01*
X100439853Y-81063574D01*
X100495000Y-80786335D01*
X100495000Y-80503665D01*
X100439853Y-80226426D01*
X100331680Y-79965273D01*
X100174637Y-79730241D01*
X99974759Y-79530363D01*
X99739727Y-79373320D01*
X99478574Y-79265147D01*
X99201335Y-79210000D01*
X98918665Y-79210000D01*
X98641426Y-79265147D01*
X98380273Y-79373320D01*
X98145241Y-79530363D01*
X97945363Y-79730241D01*
X97788320Y-79965273D01*
X97680147Y-80226426D01*
X97625000Y-80503665D01*
X97625000Y-80786335D01*
X97680147Y-81063574D01*
X97768531Y-81276953D01*
X95408017Y-78916439D01*
X95415000Y-78881335D01*
X95415000Y-78598665D01*
X95359853Y-78321426D01*
X95251680Y-78060273D01*
X95094637Y-77825241D01*
X94896039Y-77626643D01*
X94904482Y-77625812D01*
X95024180Y-77589502D01*
X95134494Y-77530537D01*
X95231185Y-77451185D01*
X95310537Y-77354494D01*
X95369502Y-77244180D01*
X95405812Y-77124482D01*
X95418072Y-77000000D01*
X95415000Y-76485750D01*
X95256250Y-76327000D01*
X94107000Y-76327000D01*
X94107000Y-76347000D01*
X93853000Y-76347000D01*
X93853000Y-76327000D01*
X92703750Y-76327000D01*
X92545000Y-76485750D01*
X92541928Y-77000000D01*
X92554188Y-77124482D01*
X92590498Y-77244180D01*
X92649463Y-77354494D01*
X92728815Y-77451185D01*
X92825506Y-77530537D01*
X92935820Y-77589502D01*
X93055518Y-77625812D01*
X93063961Y-77626643D01*
X92865363Y-77825241D01*
X92708320Y-78060273D01*
X92600147Y-78321426D01*
X92545000Y-78598665D01*
X92545000Y-78881335D01*
X92600147Y-79158574D01*
X92708320Y-79419727D01*
X92865363Y-79654759D01*
X93065241Y-79854637D01*
X93300273Y-80011680D01*
X93561426Y-80119853D01*
X93838665Y-80175000D01*
X94121335Y-80175000D01*
X94156439Y-80168017D01*
X97631983Y-83643561D01*
X97625000Y-83678665D01*
X97625000Y-83961335D01*
X97680147Y-84238574D01*
X97768531Y-84451953D01*
X96541534Y-83224956D01*
X96513817Y-83191183D01*
X96379059Y-83080589D01*
X96225313Y-82998411D01*
X96058490Y-82947805D01*
X95928477Y-82935000D01*
X95928469Y-82935000D01*
X95885000Y-82930719D01*
X95841531Y-82935000D01*
X90094656Y-82935000D01*
X90053475Y-82873368D01*
X89846632Y-82666525D01*
X89603411Y-82504010D01*
X89333158Y-82392068D01*
X89046260Y-82335000D01*
X88753740Y-82335000D01*
X88466842Y-82392068D01*
X88196589Y-82504010D01*
X87953368Y-82666525D01*
X87746525Y-82873368D01*
X87584010Y-83116589D01*
X87472068Y-83386842D01*
X87415000Y-83673740D01*
X87415000Y-83966260D01*
X87472068Y-84253158D01*
X87584010Y-84523411D01*
X87746525Y-84766632D01*
X87878380Y-84898487D01*
X87805820Y-84920498D01*
X87695506Y-84979463D01*
X87598815Y-85058815D01*
X87519463Y-85155506D01*
X87460498Y-85265820D01*
X87424188Y-85385518D01*
X87411928Y-85510000D01*
X85775000Y-85510000D01*
X85775000Y-79590000D01*
X87411928Y-79590000D01*
X87424188Y-79714482D01*
X87460498Y-79834180D01*
X87519463Y-79944494D01*
X87598815Y-80041185D01*
X87695506Y-80120537D01*
X87805820Y-80179502D01*
X87925518Y-80215812D01*
X88050000Y-80228072D01*
X88614250Y-80225000D01*
X88773000Y-80066250D01*
X88773000Y-78867000D01*
X89027000Y-78867000D01*
X89027000Y-80066250D01*
X89185750Y-80225000D01*
X89750000Y-80228072D01*
X89874482Y-80215812D01*
X89994180Y-80179502D01*
X90104494Y-80120537D01*
X90201185Y-80041185D01*
X90280537Y-79944494D01*
X90339502Y-79834180D01*
X90375812Y-79714482D01*
X90388072Y-79590000D01*
X90385000Y-79025750D01*
X90226250Y-78867000D01*
X89027000Y-78867000D01*
X88773000Y-78867000D01*
X87573750Y-78867000D01*
X87415000Y-79025750D01*
X87411928Y-79590000D01*
X85775000Y-79590000D01*
X85775000Y-77890000D01*
X87411928Y-77890000D01*
X87415000Y-78454250D01*
X87573750Y-78613000D01*
X88773000Y-78613000D01*
X88773000Y-78593000D01*
X89027000Y-78593000D01*
X89027000Y-78613000D01*
X90226250Y-78613000D01*
X90385000Y-78454250D01*
X90388072Y-77890000D01*
X90375812Y-77765518D01*
X90339502Y-77645820D01*
X90280537Y-77535506D01*
X90201185Y-77438815D01*
X90104494Y-77359463D01*
X89994180Y-77300498D01*
X89921620Y-77278487D01*
X90053475Y-77146632D01*
X90215990Y-76903411D01*
X90327932Y-76633158D01*
X90385000Y-76346260D01*
X90385000Y-76053740D01*
X90370539Y-75981039D01*
X90951578Y-75400000D01*
X92541928Y-75400000D01*
X92545000Y-75914250D01*
X92703750Y-76073000D01*
X93853000Y-76073000D01*
X93853000Y-74923750D01*
X94107000Y-74923750D01*
X94107000Y-76073000D01*
X95256250Y-76073000D01*
X95415000Y-75914250D01*
X95418072Y-75400000D01*
X95405812Y-75275518D01*
X95369502Y-75155820D01*
X95310537Y-75045506D01*
X95231185Y-74948815D01*
X95134494Y-74869463D01*
X95024180Y-74810498D01*
X94904482Y-74774188D01*
X94780000Y-74761928D01*
X94265750Y-74765000D01*
X94107000Y-74923750D01*
X93853000Y-74923750D01*
X93694250Y-74765000D01*
X93180000Y-74761928D01*
X93055518Y-74774188D01*
X92935820Y-74810498D01*
X92825506Y-74869463D01*
X92728815Y-74948815D01*
X92649463Y-75045506D01*
X92590498Y-75155820D01*
X92554188Y-75275518D01*
X92541928Y-75400000D01*
X90951578Y-75400000D01*
X94346579Y-72005000D01*
X97630299Y-72005000D01*
X97634188Y-72044482D01*
X97670498Y-72164180D01*
X97729463Y-72274494D01*
X97808815Y-72371185D01*
X97905506Y-72450537D01*
X98015820Y-72509502D01*
X98135518Y-72545812D01*
X98175001Y-72549701D01*
X98175000Y-73160478D01*
X98145241Y-73180363D01*
X97945363Y-73380241D01*
X97788320Y-73615273D01*
X97680147Y-73876426D01*
X97625000Y-74153665D01*
X97625000Y-74436335D01*
X97680147Y-74713574D01*
X97788320Y-74974727D01*
X97945363Y-75209759D01*
X98145241Y-75409637D01*
X98175001Y-75429522D01*
X98175000Y-76335478D01*
X98145241Y-76355363D01*
X97945363Y-76555241D01*
X97788320Y-76790273D01*
X97680147Y-77051426D01*
X97625000Y-77328665D01*
X97625000Y-77611335D01*
X97680147Y-77888574D01*
X97788320Y-78149727D01*
X97945363Y-78384759D01*
X98145241Y-78584637D01*
X98380273Y-78741680D01*
X98641426Y-78849853D01*
X98918665Y-78905000D01*
X99201335Y-78905000D01*
X99478574Y-78849853D01*
X99739727Y-78741680D01*
X99974759Y-78584637D01*
X100174637Y-78384759D01*
X100331680Y-78149727D01*
X100439853Y-77888574D01*
X100495000Y-77611335D01*
X100495000Y-77328665D01*
X105245000Y-77328665D01*
X105245000Y-77611335D01*
X105300147Y-77888574D01*
X105408320Y-78149727D01*
X105565363Y-78384759D01*
X105765241Y-78584637D01*
X106000273Y-78741680D01*
X106261426Y-78849853D01*
X106538665Y-78905000D01*
X106821335Y-78905000D01*
X107098574Y-78849853D01*
X107311953Y-78761469D01*
X106856439Y-79216983D01*
X106821335Y-79210000D01*
X106538665Y-79210000D01*
X106261426Y-79265147D01*
X106000273Y-79373320D01*
X105765241Y-79530363D01*
X105565363Y-79730241D01*
X105408320Y-79965273D01*
X105300147Y-80226426D01*
X105245000Y-80503665D01*
X105245000Y-80786335D01*
X105300147Y-81063574D01*
X105408320Y-81324727D01*
X105565363Y-81559759D01*
X105765241Y-81759637D01*
X106000273Y-81916680D01*
X106261426Y-82024853D01*
X106538665Y-82080000D01*
X106821335Y-82080000D01*
X106856439Y-82073017D01*
X107311953Y-82528531D01*
X107098574Y-82440147D01*
X106821335Y-82385000D01*
X106538665Y-82385000D01*
X106261426Y-82440147D01*
X106000273Y-82548320D01*
X105765241Y-82705363D01*
X105565363Y-82905241D01*
X105408320Y-83140273D01*
X105300147Y-83401426D01*
X105245000Y-83678665D01*
X105245000Y-83961335D01*
X105300147Y-84238574D01*
X105408320Y-84499727D01*
X105565363Y-84734759D01*
X105765241Y-84934637D01*
X106000273Y-85091680D01*
X106261426Y-85199853D01*
X106538665Y-85255000D01*
X106821335Y-85255000D01*
X107098574Y-85199853D01*
X107311953Y-85111469D01*
X106856439Y-85566983D01*
X106821335Y-85560000D01*
X106538665Y-85560000D01*
X106261426Y-85615147D01*
X106000273Y-85723320D01*
X105765241Y-85880363D01*
X105565363Y-86080241D01*
X105408320Y-86315273D01*
X105300147Y-86576426D01*
X105245000Y-86853665D01*
X105245000Y-87136335D01*
X105300147Y-87413574D01*
X105408320Y-87674727D01*
X105565363Y-87909759D01*
X105765241Y-88109637D01*
X106000273Y-88266680D01*
X106261426Y-88374853D01*
X106538665Y-88430000D01*
X106821335Y-88430000D01*
X107098574Y-88374853D01*
X107359727Y-88266680D01*
X107594759Y-88109637D01*
X107794637Y-87909759D01*
X107951680Y-87674727D01*
X108059853Y-87413574D01*
X108071961Y-87352702D01*
X117296903Y-87352702D01*
X117368486Y-87596671D01*
X117623996Y-87717571D01*
X117898184Y-87786300D01*
X118180512Y-87800217D01*
X118460130Y-87758787D01*
X118726292Y-87663603D01*
X118851514Y-87596671D01*
X118923097Y-87352702D01*
X118110000Y-86539605D01*
X117296903Y-87352702D01*
X108071961Y-87352702D01*
X108115000Y-87136335D01*
X108115000Y-86853665D01*
X108108017Y-86818561D01*
X109269079Y-85657500D01*
X116854869Y-85657500D01*
X116752429Y-85873996D01*
X116683700Y-86148184D01*
X116669783Y-86430512D01*
X116711213Y-86710130D01*
X116806397Y-86976292D01*
X116873329Y-87101514D01*
X117117298Y-87173097D01*
X117930395Y-86360000D01*
X117916253Y-86345858D01*
X118095858Y-86166253D01*
X118110000Y-86180395D01*
X118124143Y-86166253D01*
X118303748Y-86345858D01*
X118289605Y-86360000D01*
X119102702Y-87173097D01*
X119346671Y-87101514D01*
X119377194Y-87037008D01*
X119378320Y-87039727D01*
X119535363Y-87274759D01*
X119735241Y-87474637D01*
X119970273Y-87631680D01*
X120231426Y-87739853D01*
X120508665Y-87795000D01*
X120791335Y-87795000D01*
X121068574Y-87739853D01*
X121329727Y-87631680D01*
X121564759Y-87474637D01*
X121764637Y-87274759D01*
X121920000Y-87042241D01*
X122075363Y-87274759D01*
X122275241Y-87474637D01*
X122510273Y-87631680D01*
X122771426Y-87739853D01*
X123048665Y-87795000D01*
X123331335Y-87795000D01*
X123608574Y-87739853D01*
X123869727Y-87631680D01*
X124104759Y-87474637D01*
X124304637Y-87274759D01*
X124461680Y-87039727D01*
X124569853Y-86778574D01*
X124597874Y-86637702D01*
X128726903Y-86637702D01*
X128798486Y-86881671D01*
X129053996Y-87002571D01*
X129328184Y-87071300D01*
X129610512Y-87085217D01*
X129890130Y-87043787D01*
X130156292Y-86948603D01*
X130281514Y-86881671D01*
X130353097Y-86637702D01*
X129540000Y-85824605D01*
X128726903Y-86637702D01*
X124597874Y-86637702D01*
X124625000Y-86501335D01*
X124625000Y-86218665D01*
X124569853Y-85941426D01*
X124476277Y-85715512D01*
X128099783Y-85715512D01*
X128141213Y-85995130D01*
X128236397Y-86261292D01*
X128303329Y-86386514D01*
X128547298Y-86458097D01*
X129360395Y-85645000D01*
X129719605Y-85645000D01*
X130532702Y-86458097D01*
X130776671Y-86386514D01*
X130897571Y-86131004D01*
X130966300Y-85856816D01*
X130980217Y-85574488D01*
X130938787Y-85294870D01*
X130843603Y-85028708D01*
X130776671Y-84903486D01*
X130532702Y-84831903D01*
X129719605Y-85645000D01*
X129360395Y-85645000D01*
X128547298Y-84831903D01*
X128303329Y-84903486D01*
X128182429Y-85158996D01*
X128113700Y-85433184D01*
X128099783Y-85715512D01*
X124476277Y-85715512D01*
X124461680Y-85680273D01*
X124304637Y-85445241D01*
X124104759Y-85245363D01*
X124075000Y-85225479D01*
X124075000Y-85133465D01*
X124079281Y-85089999D01*
X124075000Y-85046533D01*
X124075000Y-85046523D01*
X124062195Y-84916510D01*
X124011589Y-84749687D01*
X123959535Y-84652298D01*
X128726903Y-84652298D01*
X129540000Y-85465395D01*
X130353097Y-84652298D01*
X130281514Y-84408329D01*
X130026004Y-84287429D01*
X129751816Y-84218700D01*
X129469488Y-84204783D01*
X129189870Y-84246213D01*
X128923708Y-84341397D01*
X128798486Y-84408329D01*
X128726903Y-84652298D01*
X123959535Y-84652298D01*
X123929411Y-84595941D01*
X123818817Y-84461183D01*
X123785049Y-84433470D01*
X122805000Y-83453422D01*
X122805000Y-82414521D01*
X122834759Y-82394637D01*
X123034637Y-82194759D01*
X123190000Y-81962241D01*
X123345363Y-82194759D01*
X123545241Y-82394637D01*
X123780273Y-82551680D01*
X124041426Y-82659853D01*
X124318665Y-82715000D01*
X124601335Y-82715000D01*
X124878574Y-82659853D01*
X125139727Y-82551680D01*
X125374759Y-82394637D01*
X125574637Y-82194759D01*
X125731680Y-81959727D01*
X125839853Y-81698574D01*
X125895000Y-81421335D01*
X125895000Y-81138665D01*
X125839853Y-80861426D01*
X125731680Y-80600273D01*
X125574637Y-80365241D01*
X125374759Y-80165363D01*
X125139727Y-80008320D01*
X124878574Y-79900147D01*
X124601335Y-79845000D01*
X124318665Y-79845000D01*
X124041426Y-79900147D01*
X123780273Y-80008320D01*
X123545241Y-80165363D01*
X123345363Y-80365241D01*
X123190000Y-80597759D01*
X123034637Y-80365241D01*
X122834759Y-80165363D01*
X122599727Y-80008320D01*
X122338574Y-79900147D01*
X122061335Y-79845000D01*
X121778665Y-79845000D01*
X121501426Y-79900147D01*
X121240273Y-80008320D01*
X121005241Y-80165363D01*
X120805363Y-80365241D01*
X120650000Y-80597759D01*
X120494637Y-80365241D01*
X120294759Y-80165363D01*
X120059727Y-80008320D01*
X119798574Y-79900147D01*
X119521335Y-79845000D01*
X119238665Y-79845000D01*
X118961426Y-79900147D01*
X118700273Y-80008320D01*
X118465241Y-80165363D01*
X118266643Y-80363961D01*
X118265812Y-80355518D01*
X118229502Y-80235820D01*
X118170537Y-80125506D01*
X118091185Y-80028815D01*
X117994494Y-79949463D01*
X117884180Y-79890498D01*
X117764482Y-79854188D01*
X117640000Y-79841928D01*
X117125750Y-79845000D01*
X116967000Y-80003750D01*
X116967000Y-81153000D01*
X116987000Y-81153000D01*
X116987000Y-81407000D01*
X116967000Y-81407000D01*
X116967000Y-81427000D01*
X116713000Y-81427000D01*
X116713000Y-81407000D01*
X115563750Y-81407000D01*
X115405000Y-81565750D01*
X115402510Y-81982500D01*
X109269079Y-81982500D01*
X108108017Y-80821439D01*
X108115000Y-80786335D01*
X108115000Y-80503665D01*
X108110293Y-80480000D01*
X115401928Y-80480000D01*
X115405000Y-80994250D01*
X115563750Y-81153000D01*
X116713000Y-81153000D01*
X116713000Y-80003750D01*
X116554250Y-79845000D01*
X116040000Y-79841928D01*
X115915518Y-79854188D01*
X115795820Y-79890498D01*
X115685506Y-79949463D01*
X115588815Y-80028815D01*
X115509463Y-80125506D01*
X115450498Y-80235820D01*
X115414188Y-80355518D01*
X115401928Y-80480000D01*
X108110293Y-80480000D01*
X108108017Y-80468561D01*
X108951579Y-79625000D01*
X110483982Y-79625000D01*
X110558815Y-79716185D01*
X110655506Y-79795537D01*
X110765820Y-79854502D01*
X110885518Y-79890812D01*
X111010000Y-79903072D01*
X112510000Y-79903072D01*
X112634482Y-79890812D01*
X112754180Y-79854502D01*
X112864494Y-79795537D01*
X112961185Y-79716185D01*
X113040537Y-79619494D01*
X113099502Y-79509180D01*
X113135812Y-79389482D01*
X113148072Y-79265000D01*
X113148072Y-78215000D01*
X113135812Y-78090518D01*
X113099502Y-77970820D01*
X113064907Y-77906098D01*
X113128215Y-77697400D01*
X113150612Y-77470000D01*
X113128215Y-77242600D01*
X113061885Y-77023940D01*
X112961071Y-76835331D01*
X113002275Y-76776882D01*
X113095272Y-76567337D01*
X113103964Y-76505810D01*
X112978163Y-76327000D01*
X112213109Y-76327000D01*
X112212400Y-76326785D01*
X112041979Y-76310000D01*
X111478021Y-76310000D01*
X111307600Y-76326785D01*
X111306891Y-76327000D01*
X110541837Y-76327000D01*
X110416036Y-76505810D01*
X110424728Y-76567337D01*
X110432567Y-76585000D01*
X107814521Y-76585000D01*
X107794637Y-76555241D01*
X107594759Y-76355363D01*
X107359727Y-76198320D01*
X107098574Y-76090147D01*
X106821335Y-76035000D01*
X106538665Y-76035000D01*
X106261426Y-76090147D01*
X106000273Y-76198320D01*
X105765241Y-76355363D01*
X105565363Y-76555241D01*
X105408320Y-76790273D01*
X105300147Y-77051426D01*
X105245000Y-77328665D01*
X100495000Y-77328665D01*
X100439853Y-77051426D01*
X100331680Y-76790273D01*
X100174637Y-76555241D01*
X99974759Y-76355363D01*
X99945000Y-76335479D01*
X99945000Y-75894190D01*
X110416036Y-75894190D01*
X110541837Y-76073000D01*
X111633000Y-76073000D01*
X111633000Y-75193402D01*
X111887000Y-75193402D01*
X111887000Y-76073000D01*
X112978163Y-76073000D01*
X113103964Y-75894190D01*
X113095272Y-75832663D01*
X113002275Y-75623118D01*
X112870184Y-75435742D01*
X112704076Y-75277736D01*
X112510334Y-75155172D01*
X112296404Y-75072761D01*
X112070507Y-75033669D01*
X111887000Y-75193402D01*
X111633000Y-75193402D01*
X111449493Y-75033669D01*
X111223596Y-75072761D01*
X111009666Y-75155172D01*
X110815924Y-75277736D01*
X110649816Y-75435742D01*
X110517725Y-75623118D01*
X110424728Y-75832663D01*
X110416036Y-75894190D01*
X99945000Y-75894190D01*
X99945000Y-75429521D01*
X99974759Y-75409637D01*
X100174637Y-75209759D01*
X100331680Y-74974727D01*
X100439853Y-74713574D01*
X100453684Y-74644039D01*
X105288096Y-74644039D01*
X105328754Y-74778087D01*
X105448963Y-75032420D01*
X105616481Y-75258414D01*
X105824869Y-75447385D01*
X106066119Y-75592070D01*
X106330960Y-75686909D01*
X106553000Y-75565624D01*
X106553000Y-74422000D01*
X106807000Y-74422000D01*
X106807000Y-75565624D01*
X107029040Y-75686909D01*
X107293881Y-75592070D01*
X107535131Y-75447385D01*
X107743519Y-75258414D01*
X107911037Y-75032420D01*
X108031246Y-74778087D01*
X108071904Y-74644039D01*
X107949915Y-74422000D01*
X106807000Y-74422000D01*
X106553000Y-74422000D01*
X105410085Y-74422000D01*
X105288096Y-74644039D01*
X100453684Y-74644039D01*
X100495000Y-74436335D01*
X100495000Y-74153665D01*
X100453685Y-73945961D01*
X105288096Y-73945961D01*
X105410085Y-74168000D01*
X106553000Y-74168000D01*
X106553000Y-73024376D01*
X106807000Y-73024376D01*
X106807000Y-74168000D01*
X107949915Y-74168000D01*
X108071904Y-73945961D01*
X108031246Y-73811913D01*
X107911037Y-73557580D01*
X107743519Y-73331586D01*
X107535131Y-73142615D01*
X107293881Y-72997930D01*
X107029040Y-72903091D01*
X106807000Y-73024376D01*
X106553000Y-73024376D01*
X106330960Y-72903091D01*
X106066119Y-72997930D01*
X105824869Y-73142615D01*
X105616481Y-73331586D01*
X105448963Y-73557580D01*
X105328754Y-73811913D01*
X105288096Y-73945961D01*
X100453685Y-73945961D01*
X100439853Y-73876426D01*
X100331680Y-73615273D01*
X100174637Y-73380241D01*
X99974759Y-73180363D01*
X99945000Y-73160479D01*
X99945000Y-72549701D01*
X99984482Y-72545812D01*
X100104180Y-72509502D01*
X100214494Y-72450537D01*
X100311185Y-72371185D01*
X100390537Y-72274494D01*
X100449502Y-72164180D01*
X100485812Y-72044482D01*
X100498072Y-71920000D01*
X100498072Y-71469039D01*
X105288096Y-71469039D01*
X105328754Y-71603087D01*
X105448963Y-71857420D01*
X105616481Y-72083414D01*
X105824869Y-72272385D01*
X106066119Y-72417070D01*
X106330960Y-72511909D01*
X106553000Y-72390624D01*
X106553000Y-71247000D01*
X106807000Y-71247000D01*
X106807000Y-72390624D01*
X107029040Y-72511909D01*
X107293881Y-72417070D01*
X107535131Y-72272385D01*
X107743519Y-72083414D01*
X107911037Y-71857420D01*
X108006754Y-71654905D01*
X108782697Y-71654905D01*
X108782801Y-71671327D01*
X108785166Y-71693971D01*
X108784702Y-71716737D01*
X108785455Y-71725641D01*
X108786696Y-71739192D01*
X108791996Y-71766891D01*
X108794295Y-71794997D01*
X108795951Y-71803779D01*
X108798205Y-71815293D01*
X108806353Y-71842494D01*
X108811557Y-71870419D01*
X108814104Y-71878985D01*
X108817248Y-71889297D01*
X108825205Y-71908453D01*
X108830596Y-71928487D01*
X108833808Y-71936826D01*
X108837718Y-71946771D01*
X108841162Y-71953513D01*
X108843404Y-71960748D01*
X108846927Y-71968960D01*
X108851477Y-71979370D01*
X108851708Y-71979783D01*
X108851856Y-71980236D01*
X108855505Y-71988393D01*
X108856987Y-71991644D01*
X108876029Y-72024494D01*
X108892498Y-72058720D01*
X108897194Y-72066323D01*
X108922359Y-72106444D01*
X108960183Y-72155388D01*
X108997968Y-72204460D01*
X108998698Y-72205227D01*
X108998737Y-72205277D01*
X108998790Y-72205323D01*
X109004130Y-72210931D01*
X109038294Y-72246312D01*
X109038971Y-72246888D01*
X109039528Y-72247587D01*
X109086725Y-72287535D01*
X109133410Y-72327272D01*
X109134183Y-72327704D01*
X109134867Y-72328283D01*
X109142255Y-72333311D01*
X109180961Y-72359266D01*
X109205658Y-72372533D01*
X109219182Y-72382320D01*
X109244454Y-72393940D01*
X109275176Y-72411526D01*
X109283354Y-72415130D01*
X109287953Y-72417119D01*
X109289696Y-72417678D01*
X109290995Y-72418376D01*
X109310718Y-72424423D01*
X109310828Y-72424458D01*
X109332666Y-72434499D01*
X109341131Y-72437362D01*
X109355577Y-72442137D01*
X109367722Y-72444872D01*
X109379299Y-72449472D01*
X109387904Y-72451885D01*
X109410114Y-72457948D01*
X109414121Y-72458631D01*
X109417944Y-72460033D01*
X109426610Y-72462216D01*
X109457262Y-72469713D01*
X109457749Y-72469783D01*
X109458222Y-72469948D01*
X109466921Y-72471996D01*
X109506697Y-72481073D01*
X109506827Y-72481089D01*
X109512808Y-72482437D01*
X109562383Y-72493241D01*
X109562543Y-72493260D01*
X109566472Y-72494118D01*
X109626525Y-72506795D01*
X109626660Y-72506810D01*
X109629341Y-72507383D01*
X109700550Y-72522081D01*
X109700660Y-72522093D01*
X109702554Y-72522491D01*
X109785597Y-72539355D01*
X109785685Y-72539364D01*
X109787041Y-72539646D01*
X109882596Y-72558822D01*
X109882655Y-72558828D01*
X109883635Y-72559030D01*
X109992381Y-72580666D01*
X109992404Y-72580668D01*
X109992792Y-72580748D01*
X110382490Y-72658017D01*
X110402279Y-72671580D01*
X110423261Y-72683127D01*
X110442701Y-72697120D01*
X110450460Y-72701553D01*
X110479608Y-72717940D01*
X110497313Y-72725728D01*
X110513811Y-72735834D01*
X110521877Y-72739679D01*
X110530946Y-72743925D01*
X110538167Y-72746480D01*
X110544846Y-72750232D01*
X110553053Y-72753770D01*
X110572260Y-72761892D01*
X110602912Y-72771452D01*
X110612077Y-72775300D01*
X110618296Y-72778303D01*
X110620745Y-72778940D01*
X110632520Y-72783884D01*
X110641076Y-72786463D01*
X110658571Y-72791604D01*
X110681551Y-72795978D01*
X110691501Y-72799081D01*
X110698306Y-72799811D01*
X110705310Y-72800928D01*
X110739182Y-72809735D01*
X110748019Y-72811067D01*
X110767755Y-72813902D01*
X110778191Y-72814371D01*
X110781274Y-72814958D01*
X110789836Y-72814895D01*
X110794088Y-72815086D01*
X110820124Y-72819238D01*
X110829048Y-72819714D01*
X110854981Y-72820919D01*
X110863152Y-72820499D01*
X110871283Y-72821469D01*
X110880218Y-72821593D01*
X110916305Y-72821845D01*
X110916431Y-72821834D01*
X110922684Y-72821858D01*
X110951499Y-72821772D01*
X110955430Y-72821375D01*
X110959378Y-72821701D01*
X110968312Y-72821501D01*
X110995442Y-72820707D01*
X111017849Y-72817846D01*
X111027388Y-72817827D01*
X111028541Y-72817883D01*
X111028940Y-72817824D01*
X111040444Y-72817801D01*
X111049330Y-72816849D01*
X111069673Y-72814526D01*
X111107585Y-72806388D01*
X111119342Y-72804887D01*
X111121160Y-72804279D01*
X111129729Y-72803567D01*
X111134517Y-72802198D01*
X111152101Y-72799596D01*
X111160755Y-72797370D01*
X111178410Y-72792699D01*
X111188011Y-72789125D01*
X111191797Y-72788312D01*
X111201965Y-72783930D01*
X111213658Y-72779577D01*
X111249825Y-72769239D01*
X111258113Y-72765898D01*
X111277179Y-72758058D01*
X111289817Y-72751352D01*
X111303320Y-72746621D01*
X111311398Y-72742801D01*
X111335974Y-72730970D01*
X111343464Y-72726415D01*
X111351607Y-72723179D01*
X111359521Y-72719029D01*
X111386396Y-72704697D01*
X111407962Y-72690329D01*
X111431026Y-72678525D01*
X111438512Y-72673644D01*
X111466618Y-72655038D01*
X111489652Y-72636316D01*
X111514488Y-72620055D01*
X111521411Y-72614405D01*
X111549906Y-72590821D01*
X111563398Y-72577228D01*
X111578604Y-72565587D01*
X111585093Y-72559443D01*
X111618078Y-72527772D01*
X111622650Y-72522431D01*
X111628077Y-72517959D01*
X111634341Y-72511587D01*
X111653765Y-72491549D01*
X111661347Y-72482020D01*
X111670336Y-72473794D01*
X111676261Y-72467105D01*
X111715603Y-72422063D01*
X111728700Y-72403726D01*
X111743987Y-72387164D01*
X111749328Y-72380000D01*
X111784238Y-72332489D01*
X111795312Y-72313843D01*
X111808676Y-72296758D01*
X111813415Y-72289182D01*
X111846505Y-72235461D01*
X111853413Y-72221317D01*
X111862313Y-72208329D01*
X111866566Y-72200470D01*
X111900450Y-72136796D01*
X111902140Y-72132700D01*
X111904544Y-72128974D01*
X111908577Y-72120999D01*
X111915812Y-72106443D01*
X111918378Y-72099698D01*
X111922071Y-72093489D01*
X111925811Y-72085373D01*
X111969808Y-71988118D01*
X111974895Y-71973125D01*
X111982110Y-71959034D01*
X111985329Y-71950698D01*
X112024225Y-71847838D01*
X112027829Y-71834493D01*
X112033419Y-71821847D01*
X112036157Y-71813341D01*
X112071559Y-71700688D01*
X112072412Y-71696620D01*
X112073992Y-71692769D01*
X112076500Y-71684192D01*
X112079832Y-71672498D01*
X112080634Y-71668085D01*
X112082221Y-71663887D01*
X112084489Y-71655243D01*
X112118189Y-71523071D01*
X112119987Y-71511327D01*
X112123618Y-71500006D01*
X112125442Y-71491258D01*
X112151930Y-71359685D01*
X112153146Y-71347675D01*
X112156238Y-71335996D01*
X112157608Y-71327166D01*
X112176777Y-71197773D01*
X112177408Y-71184988D01*
X112180016Y-71172441D01*
X112180909Y-71163549D01*
X112192653Y-71037915D01*
X112192589Y-71023717D01*
X112194664Y-71009672D01*
X112195039Y-71000744D01*
X112199251Y-70880445D01*
X112198220Y-70864042D01*
X112199559Y-70847655D01*
X112199351Y-70838721D01*
X112195925Y-70725340D01*
X112193391Y-70705642D01*
X112193502Y-70685782D01*
X112192618Y-70676889D01*
X112181447Y-70572003D01*
X112176391Y-70547545D01*
X112174238Y-70522658D01*
X112172540Y-70513884D01*
X112153517Y-70419072D01*
X112147909Y-70400665D01*
X112144836Y-70381660D01*
X112142495Y-70373036D01*
X112135562Y-70348177D01*
X112127119Y-70326392D01*
X112121404Y-70303740D01*
X112118324Y-70295351D01*
X112090689Y-70221674D01*
X112072408Y-70184457D01*
X112056613Y-70146109D01*
X112052364Y-70138248D01*
X112017150Y-70074158D01*
X111991078Y-70036061D01*
X111966983Y-69996675D01*
X111961548Y-69989582D01*
X111919623Y-69935643D01*
X111884308Y-69898373D01*
X111850318Y-69859898D01*
X111843734Y-69853856D01*
X111795968Y-69810633D01*
X111750551Y-69776976D01*
X111705730Y-69742454D01*
X111698119Y-69737772D01*
X111645380Y-69705828D01*
X111590533Y-69679546D01*
X111535602Y-69652901D01*
X111532854Y-69651908D01*
X111532738Y-69651852D01*
X111532607Y-69651818D01*
X111527198Y-69649863D01*
X111470357Y-69629761D01*
X111469395Y-69629523D01*
X111468500Y-69629108D01*
X111408739Y-69614539D01*
X111349096Y-69599806D01*
X111348112Y-69599760D01*
X111347148Y-69599525D01*
X111338292Y-69598328D01*
X111278216Y-69590632D01*
X111277497Y-69590611D01*
X111276797Y-69590452D01*
X111214924Y-69588753D01*
X111153365Y-69586926D01*
X111152661Y-69587044D01*
X111151938Y-69587024D01*
X111143029Y-69587715D01*
X111080588Y-69592989D01*
X111021558Y-69603853D01*
X110991228Y-69609196D01*
X110604702Y-69532415D01*
X110604687Y-69532414D01*
X110604553Y-69532386D01*
X110584098Y-69528328D01*
X110584052Y-69528324D01*
X110583350Y-69528180D01*
X110497683Y-69511290D01*
X110497617Y-69511284D01*
X110496458Y-69511049D01*
X110414457Y-69495048D01*
X110414375Y-69495040D01*
X110413160Y-69494797D01*
X110335954Y-69479897D01*
X110335877Y-69479890D01*
X110334523Y-69479622D01*
X110263242Y-69466034D01*
X110263151Y-69466026D01*
X110261563Y-69465716D01*
X110206367Y-69455347D01*
X110206363Y-69455347D01*
X110206329Y-69455340D01*
X110197297Y-69453644D01*
X110197192Y-69453635D01*
X110195221Y-69453257D01*
X110139180Y-69442924D01*
X110139043Y-69442912D01*
X110136213Y-69442384D01*
X110089487Y-69433996D01*
X110089327Y-69433983D01*
X110084766Y-69433167D01*
X110048483Y-69426934D01*
X110048199Y-69426913D01*
X110047923Y-69426838D01*
X110039105Y-69425395D01*
X110014396Y-69421526D01*
X110003406Y-69420893D01*
X109992664Y-69418505D01*
X109983786Y-69417489D01*
X109971780Y-69416199D01*
X109912322Y-69415646D01*
X109889696Y-69414343D01*
X109882967Y-69415277D01*
X109849096Y-69414844D01*
X109846983Y-69415039D01*
X109846879Y-69415038D01*
X109846769Y-69415059D01*
X109840197Y-69415665D01*
X109807936Y-69418867D01*
X109748841Y-69430641D01*
X109689773Y-69441976D01*
X109685598Y-69443242D01*
X109685437Y-69443274D01*
X109685286Y-69443337D01*
X109681221Y-69444569D01*
X109632788Y-69459620D01*
X109628042Y-69461621D01*
X109623012Y-69462744D01*
X109570495Y-69485887D01*
X109517695Y-69508150D01*
X109513433Y-69511032D01*
X109508712Y-69513112D01*
X109500957Y-69517551D01*
X109456839Y-69543209D01*
X109453004Y-69545973D01*
X109448742Y-69547999D01*
X109402375Y-69582464D01*
X109355510Y-69616242D01*
X109352291Y-69619692D01*
X109348497Y-69622512D01*
X109341921Y-69628564D01*
X109305084Y-69662944D01*
X109297120Y-69671985D01*
X109287840Y-69679655D01*
X109255907Y-69718772D01*
X109222522Y-69756672D01*
X109216469Y-69767082D01*
X109208851Y-69776414D01*
X109203955Y-69783889D01*
X109177364Y-69825109D01*
X109169244Y-69840891D01*
X109159553Y-69854529D01*
X109148507Y-69879110D01*
X109134536Y-69902852D01*
X109130835Y-69910985D01*
X109130600Y-69911511D01*
X109126323Y-69924313D01*
X109120219Y-69936177D01*
X109115537Y-69952477D01*
X109108355Y-69968459D01*
X109105564Y-69976949D01*
X109100999Y-69991169D01*
X109097916Y-70005433D01*
X109092733Y-70019082D01*
X109090452Y-70027723D01*
X109083492Y-70054847D01*
X109083116Y-70057278D01*
X109082292Y-70059598D01*
X109080198Y-70068285D01*
X109070820Y-70108421D01*
X109070807Y-70108521D01*
X109069235Y-70115377D01*
X109057415Y-70168631D01*
X109057396Y-70168784D01*
X109056490Y-70172864D01*
X109042206Y-70239344D01*
X109042190Y-70239484D01*
X109041604Y-70242180D01*
X109024833Y-70321994D01*
X109024821Y-70322102D01*
X109024410Y-70324023D01*
X109005130Y-70417277D01*
X109005121Y-70417364D01*
X109004820Y-70418786D01*
X108983007Y-70525589D01*
X108983000Y-70525654D01*
X108982769Y-70526758D01*
X108958401Y-70647215D01*
X108958396Y-70647266D01*
X108958214Y-70648140D01*
X108931268Y-70782359D01*
X108931265Y-70782389D01*
X108931187Y-70782765D01*
X108927623Y-70800576D01*
X108927622Y-70800582D01*
X108927618Y-70800603D01*
X108904422Y-70916556D01*
X108904420Y-70916571D01*
X108904368Y-70916825D01*
X108883795Y-71019896D01*
X108883791Y-71019941D01*
X108883673Y-71020512D01*
X108865598Y-71111533D01*
X108865592Y-71111596D01*
X108865376Y-71112654D01*
X108849676Y-71192461D01*
X108849667Y-71192557D01*
X108849320Y-71194282D01*
X108835871Y-71263710D01*
X108835858Y-71263847D01*
X108835331Y-71266533D01*
X108824010Y-71326414D01*
X108823996Y-71326574D01*
X108823225Y-71330646D01*
X108813907Y-71381814D01*
X108813896Y-71381943D01*
X108812794Y-71388104D01*
X108805356Y-71431395D01*
X108805340Y-71431618D01*
X108805279Y-71431840D01*
X108803834Y-71440659D01*
X108798152Y-71476909D01*
X108798013Y-71479316D01*
X108797425Y-71481660D01*
X108796170Y-71490507D01*
X108792120Y-71520548D01*
X108791918Y-71526129D01*
X108790728Y-71531593D01*
X108789751Y-71540476D01*
X108787210Y-71565143D01*
X108787161Y-71575178D01*
X108785470Y-71585079D01*
X108784896Y-71593996D01*
X108783739Y-71614124D01*
X108784383Y-71630079D01*
X108782702Y-71645969D01*
X108782697Y-71654905D01*
X108006754Y-71654905D01*
X108031246Y-71603087D01*
X108071904Y-71469039D01*
X107949915Y-71247000D01*
X106807000Y-71247000D01*
X106553000Y-71247000D01*
X105410085Y-71247000D01*
X105288096Y-71469039D01*
X100498072Y-71469039D01*
X100498072Y-70770961D01*
X105288096Y-70770961D01*
X105410085Y-70993000D01*
X106553000Y-70993000D01*
X106553000Y-69849376D01*
X106807000Y-69849376D01*
X106807000Y-70993000D01*
X107949915Y-70993000D01*
X108071904Y-70770961D01*
X108031246Y-70636913D01*
X107911037Y-70382580D01*
X107743519Y-70156586D01*
X107535131Y-69967615D01*
X107293881Y-69822930D01*
X107029040Y-69728091D01*
X106807000Y-69849376D01*
X106553000Y-69849376D01*
X106330960Y-69728091D01*
X106066119Y-69822930D01*
X105824869Y-69967615D01*
X105616481Y-70156586D01*
X105448963Y-70382580D01*
X105328754Y-70636913D01*
X105288096Y-70770961D01*
X100498072Y-70770961D01*
X100498072Y-70320000D01*
X100485812Y-70195518D01*
X100449502Y-70075820D01*
X100390537Y-69965506D01*
X100311185Y-69868815D01*
X100214494Y-69789463D01*
X100104180Y-69730498D01*
X99984482Y-69694188D01*
X99860000Y-69681928D01*
X98260000Y-69681928D01*
X98135518Y-69694188D01*
X98015820Y-69730498D01*
X97905506Y-69789463D01*
X97808815Y-69868815D01*
X97729463Y-69965506D01*
X97670498Y-70075820D01*
X97634188Y-70195518D01*
X97630299Y-70235000D01*
X94023469Y-70235000D01*
X93980000Y-70230719D01*
X93936531Y-70235000D01*
X93936523Y-70235000D01*
X93806510Y-70247805D01*
X93639687Y-70298411D01*
X93511357Y-70367004D01*
X93485941Y-70380589D01*
X93384953Y-70463468D01*
X93384951Y-70463470D01*
X93351183Y-70491183D01*
X93323470Y-70524951D01*
X89118961Y-74729461D01*
X89046260Y-74715000D01*
X88753740Y-74715000D01*
X88466842Y-74772068D01*
X88196589Y-74884010D01*
X87953368Y-75046525D01*
X87746525Y-75253368D01*
X87584010Y-75496589D01*
X87472068Y-75766842D01*
X87415000Y-76053740D01*
X87415000Y-76346260D01*
X87472068Y-76633158D01*
X87584010Y-76903411D01*
X87746525Y-77146632D01*
X87878380Y-77278487D01*
X87805820Y-77300498D01*
X87695506Y-77359463D01*
X87598815Y-77438815D01*
X87519463Y-77535506D01*
X87460498Y-77645820D01*
X87424188Y-77765518D01*
X87411928Y-77890000D01*
X85775000Y-77890000D01*
X85775000Y-71970000D01*
X87411928Y-71970000D01*
X87424188Y-72094482D01*
X87460498Y-72214180D01*
X87519463Y-72324494D01*
X87598815Y-72421185D01*
X87695506Y-72500537D01*
X87805820Y-72559502D01*
X87925518Y-72595812D01*
X88050000Y-72608072D01*
X88614250Y-72605000D01*
X88773000Y-72446250D01*
X88773000Y-71247000D01*
X89027000Y-71247000D01*
X89027000Y-72446250D01*
X89185750Y-72605000D01*
X89750000Y-72608072D01*
X89874482Y-72595812D01*
X89994180Y-72559502D01*
X90104494Y-72500537D01*
X90201185Y-72421185D01*
X90280537Y-72324494D01*
X90339502Y-72214180D01*
X90375812Y-72094482D01*
X90388072Y-71970000D01*
X90385000Y-71405750D01*
X90226250Y-71247000D01*
X89027000Y-71247000D01*
X88773000Y-71247000D01*
X87573750Y-71247000D01*
X87415000Y-71405750D01*
X87411928Y-71970000D01*
X85775000Y-71970000D01*
X85775000Y-70270000D01*
X87411928Y-70270000D01*
X87415000Y-70834250D01*
X87573750Y-70993000D01*
X88773000Y-70993000D01*
X88773000Y-70973000D01*
X89027000Y-70973000D01*
X89027000Y-70993000D01*
X90226250Y-70993000D01*
X90385000Y-70834250D01*
X90388072Y-70270000D01*
X90375812Y-70145518D01*
X90339502Y-70025820D01*
X90280537Y-69915506D01*
X90201185Y-69818815D01*
X90104494Y-69739463D01*
X89994180Y-69680498D01*
X89921620Y-69658487D01*
X90053475Y-69526632D01*
X90215990Y-69283411D01*
X90327932Y-69013158D01*
X90385000Y-68726260D01*
X90385000Y-68433740D01*
X90327932Y-68146842D01*
X90215990Y-67876589D01*
X90167264Y-67803665D01*
X97625000Y-67803665D01*
X97625000Y-68086335D01*
X97680147Y-68363574D01*
X97788320Y-68624727D01*
X97945363Y-68859759D01*
X98145241Y-69059637D01*
X98380273Y-69216680D01*
X98641426Y-69324853D01*
X98918665Y-69380000D01*
X99201335Y-69380000D01*
X99478574Y-69324853D01*
X99739727Y-69216680D01*
X99974759Y-69059637D01*
X100174637Y-68859759D01*
X100331680Y-68624727D01*
X100439853Y-68363574D01*
X100495000Y-68086335D01*
X100495000Y-67803665D01*
X105245000Y-67803665D01*
X105245000Y-68086335D01*
X105300147Y-68363574D01*
X105408320Y-68624727D01*
X105565363Y-68859759D01*
X105765241Y-69059637D01*
X106000273Y-69216680D01*
X106261426Y-69324853D01*
X106538665Y-69380000D01*
X106821335Y-69380000D01*
X107098574Y-69324853D01*
X107359727Y-69216680D01*
X107594759Y-69059637D01*
X107794637Y-68859759D01*
X107814521Y-68830000D01*
X116696615Y-68830000D01*
X116730147Y-68998574D01*
X116838320Y-69259727D01*
X116995363Y-69494759D01*
X117195241Y-69694637D01*
X117430273Y-69851680D01*
X117691426Y-69959853D01*
X117968665Y-70015000D01*
X118251335Y-70015000D01*
X118528574Y-69959853D01*
X118789727Y-69851680D01*
X119024759Y-69694637D01*
X119224637Y-69494759D01*
X119380000Y-69262241D01*
X119535363Y-69494759D01*
X119644513Y-69603909D01*
X118784956Y-70463466D01*
X118751183Y-70491183D01*
X118640589Y-70625942D01*
X118558411Y-70779688D01*
X118524577Y-70891223D01*
X118507805Y-70946510D01*
X118507094Y-70953733D01*
X118495000Y-71076524D01*
X118495000Y-71076531D01*
X118490719Y-71120000D01*
X118495000Y-71163469D01*
X118495001Y-72525478D01*
X118465241Y-72545363D01*
X118265363Y-72745241D01*
X118110000Y-72977759D01*
X117954637Y-72745241D01*
X117754759Y-72545363D01*
X117519727Y-72388320D01*
X117258574Y-72280147D01*
X116981335Y-72225000D01*
X116698665Y-72225000D01*
X116421426Y-72280147D01*
X116160273Y-72388320D01*
X115925241Y-72545363D01*
X115725363Y-72745241D01*
X115568320Y-72980273D01*
X115460147Y-73241426D01*
X115405000Y-73518665D01*
X115405000Y-73801335D01*
X115460147Y-74078574D01*
X115568320Y-74339727D01*
X115725363Y-74574759D01*
X115925241Y-74774637D01*
X116160273Y-74931680D01*
X116421426Y-75039853D01*
X116698665Y-75095000D01*
X116981335Y-75095000D01*
X117258574Y-75039853D01*
X117519727Y-74931680D01*
X117754759Y-74774637D01*
X117954637Y-74574759D01*
X118110000Y-74342241D01*
X118265363Y-74574759D01*
X118465241Y-74774637D01*
X118700273Y-74931680D01*
X118961426Y-75039853D01*
X119238665Y-75095000D01*
X119521335Y-75095000D01*
X119798574Y-75039853D01*
X120059727Y-74931680D01*
X120294759Y-74774637D01*
X120494637Y-74574759D01*
X120514521Y-74545000D01*
X120785479Y-74545000D01*
X120805363Y-74574759D01*
X121005241Y-74774637D01*
X121240273Y-74931680D01*
X121501426Y-75039853D01*
X121778665Y-75095000D01*
X122061335Y-75095000D01*
X122338574Y-75039853D01*
X122599727Y-74931680D01*
X122834759Y-74774637D01*
X123034637Y-74574759D01*
X123190000Y-74342241D01*
X123345363Y-74574759D01*
X123545241Y-74774637D01*
X123780273Y-74931680D01*
X124041426Y-75039853D01*
X124318665Y-75095000D01*
X124601335Y-75095000D01*
X124636439Y-75088017D01*
X128655000Y-79106579D01*
X128655000Y-79510478D01*
X128625241Y-79530363D01*
X128425363Y-79730241D01*
X128268320Y-79965273D01*
X128160147Y-80226426D01*
X128105000Y-80503665D01*
X128105000Y-80786335D01*
X128160147Y-81063574D01*
X128268320Y-81324727D01*
X128425363Y-81559759D01*
X128625241Y-81759637D01*
X128860273Y-81916680D01*
X129121426Y-82024853D01*
X129398665Y-82080000D01*
X129681335Y-82080000D01*
X129958574Y-82024853D01*
X130219727Y-81916680D01*
X130454759Y-81759637D01*
X130654637Y-81559759D01*
X130811680Y-81324727D01*
X130919853Y-81063574D01*
X130975000Y-80786335D01*
X130975000Y-80503665D01*
X130919853Y-80226426D01*
X130811680Y-79965273D01*
X130654637Y-79730241D01*
X130454759Y-79530363D01*
X130425000Y-79510479D01*
X130425000Y-78783469D01*
X130429281Y-78740000D01*
X130425000Y-78696531D01*
X130425000Y-78696523D01*
X130412195Y-78566510D01*
X130361589Y-78399687D01*
X130279411Y-78245941D01*
X130168817Y-78111183D01*
X130135051Y-78083472D01*
X127339281Y-75287702D01*
X128726903Y-75287702D01*
X128798486Y-75531671D01*
X129053996Y-75652571D01*
X129328184Y-75721300D01*
X129610512Y-75735217D01*
X129890130Y-75693787D01*
X130156292Y-75598603D01*
X130281514Y-75531671D01*
X130353097Y-75287702D01*
X129540000Y-74474605D01*
X128726903Y-75287702D01*
X127339281Y-75287702D01*
X126417091Y-74365512D01*
X128099783Y-74365512D01*
X128141213Y-74645130D01*
X128236397Y-74911292D01*
X128303329Y-75036514D01*
X128547298Y-75108097D01*
X129360395Y-74295000D01*
X129719605Y-74295000D01*
X130532702Y-75108097D01*
X130776671Y-75036514D01*
X130897571Y-74781004D01*
X130966300Y-74506816D01*
X130980217Y-74224488D01*
X130938787Y-73944870D01*
X130843603Y-73678708D01*
X130776671Y-73553486D01*
X130532702Y-73481903D01*
X129719605Y-74295000D01*
X129360395Y-74295000D01*
X128547298Y-73481903D01*
X128303329Y-73553486D01*
X128182429Y-73808996D01*
X128113700Y-74083184D01*
X128099783Y-74365512D01*
X126417091Y-74365512D01*
X125888017Y-73836439D01*
X125895000Y-73801335D01*
X125895000Y-73518665D01*
X125851962Y-73302298D01*
X128726903Y-73302298D01*
X129540000Y-74115395D01*
X130353097Y-73302298D01*
X130281514Y-73058329D01*
X130026004Y-72937429D01*
X129751816Y-72868700D01*
X129469488Y-72854783D01*
X129189870Y-72896213D01*
X128923708Y-72991397D01*
X128798486Y-73058329D01*
X128726903Y-73302298D01*
X125851962Y-73302298D01*
X125839853Y-73241426D01*
X125731680Y-72980273D01*
X125574637Y-72745241D01*
X125374759Y-72545363D01*
X125139727Y-72388320D01*
X124878574Y-72280147D01*
X124605709Y-72225870D01*
X126651579Y-70180000D01*
X128405479Y-70180000D01*
X128425363Y-70209759D01*
X128625241Y-70409637D01*
X128860273Y-70566680D01*
X129121426Y-70674853D01*
X129398665Y-70730000D01*
X129681335Y-70730000D01*
X129958574Y-70674853D01*
X130219727Y-70566680D01*
X130454759Y-70409637D01*
X130654637Y-70209759D01*
X130811680Y-69974727D01*
X130919853Y-69713574D01*
X130975000Y-69436335D01*
X130975000Y-69153665D01*
X130919853Y-68876426D01*
X130811680Y-68615273D01*
X130654637Y-68380241D01*
X130454759Y-68180363D01*
X130219727Y-68023320D01*
X129958574Y-67915147D01*
X129681335Y-67860000D01*
X129398665Y-67860000D01*
X129121426Y-67915147D01*
X128860273Y-68023320D01*
X128625241Y-68180363D01*
X128425363Y-68380241D01*
X128405479Y-68410000D01*
X126328465Y-68410000D01*
X126284999Y-68405719D01*
X126241533Y-68410000D01*
X126241523Y-68410000D01*
X126111510Y-68422805D01*
X125944687Y-68473411D01*
X125790941Y-68555589D01*
X125790939Y-68555590D01*
X125790940Y-68555590D01*
X125689953Y-68638468D01*
X125689951Y-68638470D01*
X125656183Y-68666183D01*
X125628470Y-68699951D01*
X122096439Y-72231983D01*
X122061335Y-72225000D01*
X121778665Y-72225000D01*
X121501426Y-72280147D01*
X121240273Y-72388320D01*
X121005241Y-72545363D01*
X120805363Y-72745241D01*
X120785479Y-72775000D01*
X120514521Y-72775000D01*
X120494637Y-72745241D01*
X120294759Y-72545363D01*
X120265000Y-72525479D01*
X120265000Y-71486578D01*
X121245049Y-70506530D01*
X121278817Y-70478817D01*
X121306859Y-70444649D01*
X121365670Y-70372987D01*
X121389411Y-70344059D01*
X121471589Y-70190313D01*
X121522195Y-70023490D01*
X121535000Y-69893477D01*
X121535000Y-69893467D01*
X121539281Y-69850001D01*
X121535000Y-69806535D01*
X121535000Y-69714521D01*
X121564759Y-69694637D01*
X121764637Y-69494759D01*
X121920000Y-69262241D01*
X122075363Y-69494759D01*
X122275241Y-69694637D01*
X122510273Y-69851680D01*
X122771426Y-69959853D01*
X123048665Y-70015000D01*
X123331335Y-70015000D01*
X123608574Y-69959853D01*
X123869727Y-69851680D01*
X124104759Y-69694637D01*
X124304637Y-69494759D01*
X124461680Y-69259727D01*
X124569853Y-68998574D01*
X124625000Y-68721335D01*
X124625000Y-68438665D01*
X124569853Y-68161426D01*
X124461680Y-67900273D01*
X124304637Y-67665241D01*
X124104759Y-67465363D01*
X123869727Y-67308320D01*
X123608574Y-67200147D01*
X123331335Y-67145000D01*
X123048665Y-67145000D01*
X122771426Y-67200147D01*
X122510273Y-67308320D01*
X122275241Y-67465363D01*
X122075363Y-67665241D01*
X121920000Y-67897759D01*
X121764637Y-67665241D01*
X121564759Y-67465363D01*
X121329727Y-67308320D01*
X121068574Y-67200147D01*
X120791335Y-67145000D01*
X120508665Y-67145000D01*
X120231426Y-67200147D01*
X119970273Y-67308320D01*
X119735241Y-67465363D01*
X119535363Y-67665241D01*
X119380000Y-67897759D01*
X119224637Y-67665241D01*
X119024759Y-67465363D01*
X118789727Y-67308320D01*
X118528574Y-67200147D01*
X118251335Y-67145000D01*
X117968665Y-67145000D01*
X117886341Y-67161376D01*
X117815313Y-67123411D01*
X117648490Y-67072805D01*
X117518477Y-67060000D01*
X117518469Y-67060000D01*
X117475000Y-67055719D01*
X117431531Y-67060000D01*
X107814521Y-67060000D01*
X107794637Y-67030241D01*
X107594759Y-66830363D01*
X107359727Y-66673320D01*
X107098574Y-66565147D01*
X106821335Y-66510000D01*
X106538665Y-66510000D01*
X106261426Y-66565147D01*
X106000273Y-66673320D01*
X105765241Y-66830363D01*
X105565363Y-67030241D01*
X105408320Y-67265273D01*
X105300147Y-67526426D01*
X105245000Y-67803665D01*
X100495000Y-67803665D01*
X100439853Y-67526426D01*
X100331680Y-67265273D01*
X100174637Y-67030241D01*
X99974759Y-66830363D01*
X99739727Y-66673320D01*
X99478574Y-66565147D01*
X99201335Y-66510000D01*
X98918665Y-66510000D01*
X98641426Y-66565147D01*
X98380273Y-66673320D01*
X98145241Y-66830363D01*
X97945363Y-67030241D01*
X97788320Y-67265273D01*
X97680147Y-67526426D01*
X97625000Y-67803665D01*
X90167264Y-67803665D01*
X90053475Y-67633368D01*
X89846632Y-67426525D01*
X89603411Y-67264010D01*
X89333158Y-67152068D01*
X89046260Y-67095000D01*
X88753740Y-67095000D01*
X88466842Y-67152068D01*
X88196589Y-67264010D01*
X87953368Y-67426525D01*
X87746525Y-67633368D01*
X87584010Y-67876589D01*
X87472068Y-68146842D01*
X87415000Y-68433740D01*
X87415000Y-68726260D01*
X87472068Y-69013158D01*
X87584010Y-69283411D01*
X87746525Y-69526632D01*
X87878380Y-69658487D01*
X87805820Y-69680498D01*
X87695506Y-69739463D01*
X87598815Y-69818815D01*
X87519463Y-69915506D01*
X87460498Y-70025820D01*
X87424188Y-70145518D01*
X87411928Y-70270000D01*
X85775000Y-70270000D01*
X85775000Y-65455000D01*
X92443094Y-65455000D01*
X92491447Y-65607430D01*
G37*
%TD.AperFunction*%
%TD*%
M02*
