%TF.GenerationSoftware,KiCad,Pcbnew,5.1.7-a382d34a8~88~ubuntu16.04.1*%
%TF.CreationDate,2021-06-30T18:42:57+02:00*%
%TF.ProjectId,555-piezo-trigger,3535352d-7069-4657-9a6f-2d7472696767,rev?*%
%TF.SameCoordinates,Original*%
%TF.FileFunction,Copper,L2,Bot*%
%TF.FilePolarity,Positive*%
%FSLAX46Y46*%
G04 Gerber Fmt 4.6, Leading zero omitted, Abs format (unit mm)*
G04 Created by KiCad (PCBNEW 5.1.7-a382d34a8~88~ubuntu16.04.1) date 2021-06-30 18:42:57*
%MOMM*%
%LPD*%
G01*
G04 APERTURE LIST*
%TA.AperFunction,ComponentPad*%
%ADD10O,1.700000X1.700000*%
%TD*%
%TA.AperFunction,ComponentPad*%
%ADD11R,1.700000X1.700000*%
%TD*%
%TA.AperFunction,ComponentPad*%
%ADD12R,1.600000X1.600000*%
%TD*%
%TA.AperFunction,ComponentPad*%
%ADD13C,1.600000*%
%TD*%
%TA.AperFunction,ComponentPad*%
%ADD14O,1.600000X1.600000*%
%TD*%
%TA.AperFunction,ComponentPad*%
%ADD15O,1.500000X1.050000*%
%TD*%
%TA.AperFunction,ComponentPad*%
%ADD16R,1.500000X1.050000*%
%TD*%
%TA.AperFunction,Conductor*%
%ADD17C,0.500000*%
%TD*%
%TA.AperFunction,Conductor*%
%ADD18C,0.254000*%
%TD*%
%TA.AperFunction,Conductor*%
%ADD19C,0.100000*%
%TD*%
G04 APERTURE END LIST*
D10*
%TO.P,J3,1*%
%TO.N,Net-(J3-Pad1)*%
X88900000Y-83820000D03*
D11*
%TO.P,J3,2*%
%TO.N,GND*%
X88900000Y-86360000D03*
%TD*%
D10*
%TO.P,J1,1*%
%TO.N,+12V*%
X88900000Y-68580000D03*
D11*
%TO.P,J1,2*%
%TO.N,GND*%
X88900000Y-71120000D03*
%TD*%
D10*
%TO.P,J2,1*%
%TO.N,Net-(D1-Pad1)*%
X88900000Y-76200000D03*
D11*
%TO.P,J2,2*%
%TO.N,GND*%
X88900000Y-78740000D03*
%TD*%
D12*
%TO.P,D2,1*%
%TO.N,GND*%
X93980000Y-76200000D03*
D13*
%TO.P,D2,2*%
%TO.N,Net-(D2-Pad2)*%
X93980000Y-78740000D03*
%TD*%
%TO.P,C1,2*%
%TO.N,GND*%
X129540000Y-74295000D03*
%TO.P,C1,1*%
%TO.N,Net-(C1-Pad1)*%
X129540000Y-69295000D03*
%TD*%
%TO.P,C2,1*%
%TO.N,Net-(C2-Pad1)*%
X129540000Y-80645000D03*
%TO.P,C2,2*%
%TO.N,GND*%
X129540000Y-85645000D03*
%TD*%
D12*
%TO.P,D1,1*%
%TO.N,Net-(D1-Pad1)*%
X99060000Y-71120000D03*
D14*
%TO.P,D1,2*%
%TO.N,GND*%
X106680000Y-71120000D03*
%TD*%
D15*
%TO.P,Q1,2*%
%TO.N,Net-(Q1-Pad2)*%
X111760000Y-77470000D03*
%TO.P,Q1,3*%
%TO.N,GND*%
X111760000Y-76200000D03*
D16*
%TO.P,Q1,1*%
%TO.N,Net-(Q1-Pad1)*%
X111760000Y-78740000D03*
%TD*%
D14*
%TO.P,R4,2*%
%TO.N,Net-(Q1-Pad1)*%
X106680000Y-80645000D03*
D13*
%TO.P,R4,1*%
%TO.N,+12V*%
X99060000Y-80645000D03*
%TD*%
%TO.P,R5,1*%
%TO.N,Net-(D2-Pad2)*%
X99060000Y-83820000D03*
D14*
%TO.P,R5,2*%
%TO.N,Net-(R5-Pad2)*%
X106680000Y-83820000D03*
%TD*%
%TO.P,R2,2*%
%TO.N,GND*%
X106680000Y-74295000D03*
D13*
%TO.P,R2,1*%
%TO.N,Net-(D1-Pad1)*%
X99060000Y-74295000D03*
%TD*%
%TO.P,RV1,1*%
%TO.N,Net-(R1-Pad1)*%
X118110000Y-68580000D03*
%TO.P,RV1,2*%
%TO.N,Net-(C1-Pad1)*%
X120650000Y-68580000D03*
%TO.P,RV1,3*%
%TO.N,Net-(RV1-Pad3)*%
X123190000Y-68580000D03*
%TD*%
%TO.P,RV2,3*%
%TO.N,GND*%
X118110000Y-86360000D03*
%TO.P,RV2,2*%
%TO.N,Net-(R6-Pad2)*%
X120650000Y-86360000D03*
%TO.P,RV2,1*%
%TO.N,Net-(R5-Pad2)*%
X123190000Y-86360000D03*
%TD*%
D12*
%TO.P,U1,1*%
%TO.N,GND*%
X116840000Y-81280000D03*
D14*
%TO.P,U1,5*%
%TO.N,Net-(C2-Pad1)*%
X124460000Y-73660000D03*
%TO.P,U1,2*%
%TO.N,Net-(Q1-Pad1)*%
X119380000Y-81280000D03*
%TO.P,U1,6*%
%TO.N,Net-(C1-Pad1)*%
X121920000Y-73660000D03*
%TO.P,U1,3*%
%TO.N,Net-(R5-Pad2)*%
X121920000Y-81280000D03*
%TO.P,U1,7*%
%TO.N,Net-(C1-Pad1)*%
X119380000Y-73660000D03*
%TO.P,U1,4*%
%TO.N,+12V*%
X124460000Y-81280000D03*
%TO.P,U1,8*%
X116840000Y-73660000D03*
%TD*%
D13*
%TO.P,R3,1*%
%TO.N,Net-(Q1-Pad2)*%
X106680000Y-77470000D03*
D14*
%TO.P,R3,2*%
%TO.N,Net-(D1-Pad1)*%
X99060000Y-77470000D03*
%TD*%
D13*
%TO.P,R1,1*%
%TO.N,Net-(R1-Pad1)*%
X106680000Y-67945000D03*
D14*
%TO.P,R1,2*%
%TO.N,+12V*%
X99060000Y-67945000D03*
%TD*%
%TO.P,R6,2*%
%TO.N,Net-(R6-Pad2)*%
X106680000Y-86995000D03*
D13*
%TO.P,R6,1*%
%TO.N,Net-(J3-Pad1)*%
X99060000Y-86995000D03*
%TD*%
D17*
%TO.N,+12V*%
X116840000Y-73660000D02*
X124460000Y-81280000D01*
X116840000Y-73660000D02*
X112712500Y-69532500D01*
X100647500Y-69532500D02*
X112712500Y-69532500D01*
X99060000Y-67945000D02*
X100647500Y-69532500D01*
X100647500Y-74612500D02*
X100647500Y-69532500D01*
X100647500Y-79057500D02*
X100647500Y-74612500D01*
X99060000Y-80645000D02*
X100647500Y-79057500D01*
X98425000Y-68580000D02*
X99060000Y-67945000D01*
X88900000Y-68580000D02*
X98425000Y-68580000D01*
%TD*%
D18*
%TO.N,GND*%
X92491447Y-65607430D02*
X92515905Y-65664494D01*
X92539564Y-65721895D01*
X92544113Y-65730308D01*
X92694548Y-66003948D01*
X92729615Y-66055163D01*
X92763982Y-66106888D01*
X92770078Y-66114258D01*
X92970800Y-66353467D01*
X93015157Y-66396905D01*
X93058903Y-66440957D01*
X93066315Y-66447002D01*
X93309674Y-66642669D01*
X93361651Y-66676682D01*
X93413097Y-66711382D01*
X93421541Y-66715872D01*
X93698271Y-66860544D01*
X93755843Y-66883804D01*
X93813068Y-66907859D01*
X93822224Y-66910624D01*
X94121785Y-66998790D01*
X94182802Y-67010430D01*
X94243589Y-67022907D01*
X94253104Y-67023841D01*
X94253108Y-67023841D01*
X94564087Y-67052142D01*
X94626137Y-67051708D01*
X94688254Y-67052142D01*
X94697773Y-67051208D01*
X95008328Y-67018567D01*
X95069135Y-67006085D01*
X95130128Y-66994450D01*
X95139284Y-66991686D01*
X95437585Y-66899347D01*
X95494851Y-66875275D01*
X95552383Y-66852030D01*
X95560823Y-66847542D01*
X95560828Y-66847540D01*
X95560832Y-66847537D01*
X95835512Y-66699019D01*
X95886984Y-66664301D01*
X95938933Y-66630306D01*
X95946345Y-66624262D01*
X96186949Y-66425216D01*
X96230696Y-66381162D01*
X96275054Y-66337724D01*
X96281150Y-66330355D01*
X96478511Y-66088366D01*
X96512888Y-66036625D01*
X96547943Y-65985428D01*
X96552489Y-65977020D01*
X96552494Y-65977013D01*
X96552497Y-65977005D01*
X96699093Y-65701302D01*
X96722757Y-65643889D01*
X96747210Y-65586835D01*
X96750036Y-65577706D01*
X96750038Y-65577700D01*
X96750039Y-65577694D01*
X96787083Y-65455000D01*
X127368094Y-65455000D01*
X127416447Y-65607430D01*
X127440905Y-65664494D01*
X127464564Y-65721895D01*
X127469113Y-65730308D01*
X127619548Y-66003948D01*
X127654615Y-66055163D01*
X127688982Y-66106888D01*
X127695078Y-66114258D01*
X127895800Y-66353467D01*
X127940157Y-66396905D01*
X127983903Y-66440957D01*
X127991315Y-66447002D01*
X128234674Y-66642669D01*
X128286651Y-66676682D01*
X128338097Y-66711382D01*
X128346541Y-66715872D01*
X128623271Y-66860544D01*
X128680843Y-66883804D01*
X128738068Y-66907859D01*
X128747224Y-66910624D01*
X129046785Y-66998790D01*
X129107802Y-67010430D01*
X129168589Y-67022907D01*
X129178104Y-67023841D01*
X129178108Y-67023841D01*
X129489087Y-67052142D01*
X129551137Y-67051708D01*
X129613254Y-67052142D01*
X129622773Y-67051208D01*
X129933328Y-67018567D01*
X129994135Y-67006085D01*
X130055128Y-66994450D01*
X130064284Y-66991686D01*
X130362585Y-66899347D01*
X130419851Y-66875275D01*
X130477383Y-66852030D01*
X130485823Y-66847542D01*
X130485828Y-66847540D01*
X130485832Y-66847537D01*
X130760512Y-66699019D01*
X130811984Y-66664301D01*
X130863933Y-66630306D01*
X130871345Y-66624262D01*
X131111949Y-66425216D01*
X131155696Y-66381162D01*
X131200054Y-66337724D01*
X131206150Y-66330355D01*
X131403511Y-66088366D01*
X131437888Y-66036625D01*
X131472943Y-65985428D01*
X131477489Y-65977020D01*
X131477494Y-65977013D01*
X131477497Y-65977005D01*
X131624093Y-65701302D01*
X131647757Y-65643889D01*
X131672210Y-65586835D01*
X131675036Y-65577706D01*
X131675038Y-65577700D01*
X131675039Y-65577694D01*
X131712083Y-65455000D01*
X132665000Y-65455000D01*
X132665001Y-89485000D01*
X131711906Y-89485000D01*
X131663553Y-89332571D01*
X131639101Y-89275520D01*
X131615436Y-89218105D01*
X131610887Y-89209691D01*
X131460452Y-88936052D01*
X131425385Y-88884837D01*
X131391018Y-88833112D01*
X131384922Y-88825743D01*
X131184201Y-88586533D01*
X131139824Y-88543076D01*
X131096097Y-88499043D01*
X131088685Y-88492998D01*
X130845325Y-88297331D01*
X130793384Y-88263342D01*
X130741904Y-88228618D01*
X130733459Y-88224128D01*
X130456729Y-88079457D01*
X130399190Y-88056210D01*
X130341932Y-88032141D01*
X130332776Y-88029376D01*
X130033215Y-87941210D01*
X129972198Y-87929570D01*
X129911411Y-87917093D01*
X129901896Y-87916159D01*
X129901892Y-87916159D01*
X129590912Y-87887858D01*
X129528862Y-87888292D01*
X129466746Y-87887858D01*
X129457228Y-87888792D01*
X129457226Y-87888792D01*
X129146672Y-87921433D01*
X129085871Y-87933914D01*
X129024872Y-87945550D01*
X129015716Y-87948314D01*
X128717416Y-88040653D01*
X128660162Y-88064721D01*
X128602618Y-88087970D01*
X128594173Y-88092459D01*
X128319489Y-88240981D01*
X128268017Y-88275699D01*
X128216068Y-88309694D01*
X128208656Y-88315738D01*
X127968051Y-88514783D01*
X127924301Y-88558840D01*
X127879946Y-88602276D01*
X127873850Y-88609645D01*
X127676489Y-88851634D01*
X127642124Y-88903357D01*
X127607057Y-88954571D01*
X127602508Y-88962984D01*
X127455908Y-89238698D01*
X127432258Y-89296076D01*
X127407790Y-89353166D01*
X127404962Y-89362302D01*
X127367918Y-89485000D01*
X96786906Y-89485000D01*
X96738553Y-89332571D01*
X96714101Y-89275520D01*
X96690436Y-89218105D01*
X96685887Y-89209691D01*
X96535452Y-88936052D01*
X96500385Y-88884837D01*
X96466018Y-88833112D01*
X96459922Y-88825743D01*
X96259201Y-88586533D01*
X96214824Y-88543076D01*
X96171097Y-88499043D01*
X96163685Y-88492998D01*
X95920325Y-88297331D01*
X95868384Y-88263342D01*
X95816904Y-88228618D01*
X95808459Y-88224128D01*
X95531729Y-88079457D01*
X95474190Y-88056210D01*
X95416932Y-88032141D01*
X95407776Y-88029376D01*
X95108215Y-87941210D01*
X95047198Y-87929570D01*
X94986411Y-87917093D01*
X94976896Y-87916159D01*
X94976892Y-87916159D01*
X94665912Y-87887858D01*
X94603862Y-87888292D01*
X94541746Y-87887858D01*
X94532228Y-87888792D01*
X94532226Y-87888792D01*
X94221672Y-87921433D01*
X94160871Y-87933914D01*
X94099872Y-87945550D01*
X94090716Y-87948314D01*
X93792416Y-88040653D01*
X93735162Y-88064721D01*
X93677618Y-88087970D01*
X93669173Y-88092459D01*
X93394489Y-88240981D01*
X93343017Y-88275699D01*
X93291068Y-88309694D01*
X93283656Y-88315738D01*
X93043051Y-88514783D01*
X92999301Y-88558840D01*
X92954946Y-88602276D01*
X92948850Y-88609645D01*
X92751489Y-88851634D01*
X92717124Y-88903357D01*
X92682057Y-88954571D01*
X92677508Y-88962984D01*
X92530908Y-89238698D01*
X92507258Y-89296076D01*
X92482790Y-89353166D01*
X92479962Y-89362302D01*
X92442918Y-89485000D01*
X85775000Y-89485000D01*
X85775000Y-87210000D01*
X87411928Y-87210000D01*
X87424188Y-87334482D01*
X87460498Y-87454180D01*
X87519463Y-87564494D01*
X87598815Y-87661185D01*
X87695506Y-87740537D01*
X87805820Y-87799502D01*
X87925518Y-87835812D01*
X88050000Y-87848072D01*
X88614250Y-87845000D01*
X88773000Y-87686250D01*
X88773000Y-86487000D01*
X89027000Y-86487000D01*
X89027000Y-87686250D01*
X89185750Y-87845000D01*
X89750000Y-87848072D01*
X89874482Y-87835812D01*
X89994180Y-87799502D01*
X90104494Y-87740537D01*
X90201185Y-87661185D01*
X90280537Y-87564494D01*
X90339502Y-87454180D01*
X90375812Y-87334482D01*
X90388072Y-87210000D01*
X90386132Y-86853665D01*
X97625000Y-86853665D01*
X97625000Y-87136335D01*
X97680147Y-87413574D01*
X97788320Y-87674727D01*
X97945363Y-87909759D01*
X98145241Y-88109637D01*
X98380273Y-88266680D01*
X98641426Y-88374853D01*
X98918665Y-88430000D01*
X99201335Y-88430000D01*
X99478574Y-88374853D01*
X99739727Y-88266680D01*
X99974759Y-88109637D01*
X100174637Y-87909759D01*
X100331680Y-87674727D01*
X100439853Y-87413574D01*
X100495000Y-87136335D01*
X100495000Y-86853665D01*
X105245000Y-86853665D01*
X105245000Y-87136335D01*
X105300147Y-87413574D01*
X105408320Y-87674727D01*
X105565363Y-87909759D01*
X105765241Y-88109637D01*
X106000273Y-88266680D01*
X106261426Y-88374853D01*
X106538665Y-88430000D01*
X106821335Y-88430000D01*
X107098574Y-88374853D01*
X107359727Y-88266680D01*
X107594759Y-88109637D01*
X107794637Y-87909759D01*
X107951680Y-87674727D01*
X108059853Y-87413574D01*
X108071961Y-87352702D01*
X117296903Y-87352702D01*
X117368486Y-87596671D01*
X117623996Y-87717571D01*
X117898184Y-87786300D01*
X118180512Y-87800217D01*
X118460130Y-87758787D01*
X118726292Y-87663603D01*
X118851514Y-87596671D01*
X118923097Y-87352702D01*
X118110000Y-86539605D01*
X117296903Y-87352702D01*
X108071961Y-87352702D01*
X108115000Y-87136335D01*
X108115000Y-86853665D01*
X108059853Y-86576426D01*
X107999414Y-86430512D01*
X116669783Y-86430512D01*
X116711213Y-86710130D01*
X116806397Y-86976292D01*
X116873329Y-87101514D01*
X117117298Y-87173097D01*
X117930395Y-86360000D01*
X118289605Y-86360000D01*
X119102702Y-87173097D01*
X119346671Y-87101514D01*
X119377194Y-87037008D01*
X119378320Y-87039727D01*
X119535363Y-87274759D01*
X119735241Y-87474637D01*
X119970273Y-87631680D01*
X120231426Y-87739853D01*
X120508665Y-87795000D01*
X120791335Y-87795000D01*
X121068574Y-87739853D01*
X121329727Y-87631680D01*
X121564759Y-87474637D01*
X121764637Y-87274759D01*
X121920000Y-87042241D01*
X122075363Y-87274759D01*
X122275241Y-87474637D01*
X122510273Y-87631680D01*
X122771426Y-87739853D01*
X123048665Y-87795000D01*
X123331335Y-87795000D01*
X123608574Y-87739853D01*
X123869727Y-87631680D01*
X124104759Y-87474637D01*
X124304637Y-87274759D01*
X124461680Y-87039727D01*
X124569853Y-86778574D01*
X124597874Y-86637702D01*
X128726903Y-86637702D01*
X128798486Y-86881671D01*
X129053996Y-87002571D01*
X129328184Y-87071300D01*
X129610512Y-87085217D01*
X129890130Y-87043787D01*
X130156292Y-86948603D01*
X130281514Y-86881671D01*
X130353097Y-86637702D01*
X129540000Y-85824605D01*
X128726903Y-86637702D01*
X124597874Y-86637702D01*
X124625000Y-86501335D01*
X124625000Y-86218665D01*
X124569853Y-85941426D01*
X124476277Y-85715512D01*
X128099783Y-85715512D01*
X128141213Y-85995130D01*
X128236397Y-86261292D01*
X128303329Y-86386514D01*
X128547298Y-86458097D01*
X129360395Y-85645000D01*
X129719605Y-85645000D01*
X130532702Y-86458097D01*
X130776671Y-86386514D01*
X130897571Y-86131004D01*
X130966300Y-85856816D01*
X130980217Y-85574488D01*
X130938787Y-85294870D01*
X130843603Y-85028708D01*
X130776671Y-84903486D01*
X130532702Y-84831903D01*
X129719605Y-85645000D01*
X129360395Y-85645000D01*
X128547298Y-84831903D01*
X128303329Y-84903486D01*
X128182429Y-85158996D01*
X128113700Y-85433184D01*
X128099783Y-85715512D01*
X124476277Y-85715512D01*
X124461680Y-85680273D01*
X124304637Y-85445241D01*
X124104759Y-85245363D01*
X123869727Y-85088320D01*
X123608574Y-84980147D01*
X123331335Y-84925000D01*
X123048665Y-84925000D01*
X122771426Y-84980147D01*
X122510273Y-85088320D01*
X122275241Y-85245363D01*
X122075363Y-85445241D01*
X121920000Y-85677759D01*
X121764637Y-85445241D01*
X121564759Y-85245363D01*
X121329727Y-85088320D01*
X121068574Y-84980147D01*
X120791335Y-84925000D01*
X120508665Y-84925000D01*
X120231426Y-84980147D01*
X119970273Y-85088320D01*
X119735241Y-85245363D01*
X119535363Y-85445241D01*
X119379085Y-85679128D01*
X119346671Y-85618486D01*
X119102702Y-85546903D01*
X118289605Y-86360000D01*
X117930395Y-86360000D01*
X117117298Y-85546903D01*
X116873329Y-85618486D01*
X116752429Y-85873996D01*
X116683700Y-86148184D01*
X116669783Y-86430512D01*
X107999414Y-86430512D01*
X107951680Y-86315273D01*
X107794637Y-86080241D01*
X107594759Y-85880363D01*
X107359727Y-85723320D01*
X107098574Y-85615147D01*
X106821335Y-85560000D01*
X106538665Y-85560000D01*
X106261426Y-85615147D01*
X106000273Y-85723320D01*
X105765241Y-85880363D01*
X105565363Y-86080241D01*
X105408320Y-86315273D01*
X105300147Y-86576426D01*
X105245000Y-86853665D01*
X100495000Y-86853665D01*
X100439853Y-86576426D01*
X100331680Y-86315273D01*
X100174637Y-86080241D01*
X99974759Y-85880363D01*
X99739727Y-85723320D01*
X99478574Y-85615147D01*
X99201335Y-85560000D01*
X98918665Y-85560000D01*
X98641426Y-85615147D01*
X98380273Y-85723320D01*
X98145241Y-85880363D01*
X97945363Y-86080241D01*
X97788320Y-86315273D01*
X97680147Y-86576426D01*
X97625000Y-86853665D01*
X90386132Y-86853665D01*
X90385000Y-86645750D01*
X90226250Y-86487000D01*
X89027000Y-86487000D01*
X88773000Y-86487000D01*
X87573750Y-86487000D01*
X87415000Y-86645750D01*
X87411928Y-87210000D01*
X85775000Y-87210000D01*
X85775000Y-85510000D01*
X87411928Y-85510000D01*
X87415000Y-86074250D01*
X87573750Y-86233000D01*
X88773000Y-86233000D01*
X88773000Y-86213000D01*
X89027000Y-86213000D01*
X89027000Y-86233000D01*
X90226250Y-86233000D01*
X90385000Y-86074250D01*
X90388072Y-85510000D01*
X90375812Y-85385518D01*
X90370286Y-85367298D01*
X117296903Y-85367298D01*
X118110000Y-86180395D01*
X118923097Y-85367298D01*
X118851514Y-85123329D01*
X118596004Y-85002429D01*
X118321816Y-84933700D01*
X118039488Y-84919783D01*
X117759870Y-84961213D01*
X117493708Y-85056397D01*
X117368486Y-85123329D01*
X117296903Y-85367298D01*
X90370286Y-85367298D01*
X90339502Y-85265820D01*
X90280537Y-85155506D01*
X90201185Y-85058815D01*
X90104494Y-84979463D01*
X89994180Y-84920498D01*
X89921620Y-84898487D01*
X90053475Y-84766632D01*
X90215990Y-84523411D01*
X90327932Y-84253158D01*
X90385000Y-83966260D01*
X90385000Y-83678665D01*
X97625000Y-83678665D01*
X97625000Y-83961335D01*
X97680147Y-84238574D01*
X97788320Y-84499727D01*
X97945363Y-84734759D01*
X98145241Y-84934637D01*
X98380273Y-85091680D01*
X98641426Y-85199853D01*
X98918665Y-85255000D01*
X99201335Y-85255000D01*
X99478574Y-85199853D01*
X99739727Y-85091680D01*
X99974759Y-84934637D01*
X100174637Y-84734759D01*
X100331680Y-84499727D01*
X100439853Y-84238574D01*
X100495000Y-83961335D01*
X100495000Y-83678665D01*
X105245000Y-83678665D01*
X105245000Y-83961335D01*
X105300147Y-84238574D01*
X105408320Y-84499727D01*
X105565363Y-84734759D01*
X105765241Y-84934637D01*
X106000273Y-85091680D01*
X106261426Y-85199853D01*
X106538665Y-85255000D01*
X106821335Y-85255000D01*
X107098574Y-85199853D01*
X107359727Y-85091680D01*
X107594759Y-84934637D01*
X107794637Y-84734759D01*
X107849735Y-84652298D01*
X128726903Y-84652298D01*
X129540000Y-85465395D01*
X130353097Y-84652298D01*
X130281514Y-84408329D01*
X130026004Y-84287429D01*
X129751816Y-84218700D01*
X129469488Y-84204783D01*
X129189870Y-84246213D01*
X128923708Y-84341397D01*
X128798486Y-84408329D01*
X128726903Y-84652298D01*
X107849735Y-84652298D01*
X107951680Y-84499727D01*
X108059853Y-84238574D01*
X108115000Y-83961335D01*
X108115000Y-83678665D01*
X108059853Y-83401426D01*
X107951680Y-83140273D01*
X107794637Y-82905241D01*
X107594759Y-82705363D01*
X107359727Y-82548320D01*
X107098574Y-82440147D01*
X106821335Y-82385000D01*
X106538665Y-82385000D01*
X106261426Y-82440147D01*
X106000273Y-82548320D01*
X105765241Y-82705363D01*
X105565363Y-82905241D01*
X105408320Y-83140273D01*
X105300147Y-83401426D01*
X105245000Y-83678665D01*
X100495000Y-83678665D01*
X100439853Y-83401426D01*
X100331680Y-83140273D01*
X100174637Y-82905241D01*
X99974759Y-82705363D01*
X99739727Y-82548320D01*
X99478574Y-82440147D01*
X99201335Y-82385000D01*
X98918665Y-82385000D01*
X98641426Y-82440147D01*
X98380273Y-82548320D01*
X98145241Y-82705363D01*
X97945363Y-82905241D01*
X97788320Y-83140273D01*
X97680147Y-83401426D01*
X97625000Y-83678665D01*
X90385000Y-83678665D01*
X90385000Y-83673740D01*
X90327932Y-83386842D01*
X90215990Y-83116589D01*
X90053475Y-82873368D01*
X89846632Y-82666525D01*
X89603411Y-82504010D01*
X89333158Y-82392068D01*
X89046260Y-82335000D01*
X88753740Y-82335000D01*
X88466842Y-82392068D01*
X88196589Y-82504010D01*
X87953368Y-82666525D01*
X87746525Y-82873368D01*
X87584010Y-83116589D01*
X87472068Y-83386842D01*
X87415000Y-83673740D01*
X87415000Y-83966260D01*
X87472068Y-84253158D01*
X87584010Y-84523411D01*
X87746525Y-84766632D01*
X87878380Y-84898487D01*
X87805820Y-84920498D01*
X87695506Y-84979463D01*
X87598815Y-85058815D01*
X87519463Y-85155506D01*
X87460498Y-85265820D01*
X87424188Y-85385518D01*
X87411928Y-85510000D01*
X85775000Y-85510000D01*
X85775000Y-79590000D01*
X87411928Y-79590000D01*
X87424188Y-79714482D01*
X87460498Y-79834180D01*
X87519463Y-79944494D01*
X87598815Y-80041185D01*
X87695506Y-80120537D01*
X87805820Y-80179502D01*
X87925518Y-80215812D01*
X88050000Y-80228072D01*
X88614250Y-80225000D01*
X88773000Y-80066250D01*
X88773000Y-78867000D01*
X89027000Y-78867000D01*
X89027000Y-80066250D01*
X89185750Y-80225000D01*
X89750000Y-80228072D01*
X89874482Y-80215812D01*
X89994180Y-80179502D01*
X90104494Y-80120537D01*
X90201185Y-80041185D01*
X90280537Y-79944494D01*
X90339502Y-79834180D01*
X90375812Y-79714482D01*
X90388072Y-79590000D01*
X90385000Y-79025750D01*
X90226250Y-78867000D01*
X89027000Y-78867000D01*
X88773000Y-78867000D01*
X87573750Y-78867000D01*
X87415000Y-79025750D01*
X87411928Y-79590000D01*
X85775000Y-79590000D01*
X85775000Y-77890000D01*
X87411928Y-77890000D01*
X87415000Y-78454250D01*
X87573750Y-78613000D01*
X88773000Y-78613000D01*
X88773000Y-78593000D01*
X89027000Y-78593000D01*
X89027000Y-78613000D01*
X90226250Y-78613000D01*
X90385000Y-78454250D01*
X90388072Y-77890000D01*
X90375812Y-77765518D01*
X90339502Y-77645820D01*
X90280537Y-77535506D01*
X90201185Y-77438815D01*
X90104494Y-77359463D01*
X89994180Y-77300498D01*
X89921620Y-77278487D01*
X90053475Y-77146632D01*
X90151451Y-77000000D01*
X92541928Y-77000000D01*
X92554188Y-77124482D01*
X92590498Y-77244180D01*
X92649463Y-77354494D01*
X92728815Y-77451185D01*
X92825506Y-77530537D01*
X92935820Y-77589502D01*
X93055518Y-77625812D01*
X93063961Y-77626643D01*
X92865363Y-77825241D01*
X92708320Y-78060273D01*
X92600147Y-78321426D01*
X92545000Y-78598665D01*
X92545000Y-78881335D01*
X92600147Y-79158574D01*
X92708320Y-79419727D01*
X92865363Y-79654759D01*
X93065241Y-79854637D01*
X93300273Y-80011680D01*
X93561426Y-80119853D01*
X93838665Y-80175000D01*
X94121335Y-80175000D01*
X94398574Y-80119853D01*
X94659727Y-80011680D01*
X94894759Y-79854637D01*
X95094637Y-79654759D01*
X95251680Y-79419727D01*
X95359853Y-79158574D01*
X95415000Y-78881335D01*
X95415000Y-78598665D01*
X95359853Y-78321426D01*
X95251680Y-78060273D01*
X95094637Y-77825241D01*
X94896039Y-77626643D01*
X94904482Y-77625812D01*
X95024180Y-77589502D01*
X95134494Y-77530537D01*
X95231185Y-77451185D01*
X95310537Y-77354494D01*
X95369502Y-77244180D01*
X95405812Y-77124482D01*
X95418072Y-77000000D01*
X95415000Y-76485750D01*
X95256250Y-76327000D01*
X94107000Y-76327000D01*
X94107000Y-76347000D01*
X93853000Y-76347000D01*
X93853000Y-76327000D01*
X92703750Y-76327000D01*
X92545000Y-76485750D01*
X92541928Y-77000000D01*
X90151451Y-77000000D01*
X90215990Y-76903411D01*
X90327932Y-76633158D01*
X90385000Y-76346260D01*
X90385000Y-76053740D01*
X90327932Y-75766842D01*
X90215990Y-75496589D01*
X90151452Y-75400000D01*
X92541928Y-75400000D01*
X92545000Y-75914250D01*
X92703750Y-76073000D01*
X93853000Y-76073000D01*
X93853000Y-74923750D01*
X94107000Y-74923750D01*
X94107000Y-76073000D01*
X95256250Y-76073000D01*
X95415000Y-75914250D01*
X95418072Y-75400000D01*
X95405812Y-75275518D01*
X95369502Y-75155820D01*
X95310537Y-75045506D01*
X95231185Y-74948815D01*
X95134494Y-74869463D01*
X95024180Y-74810498D01*
X94904482Y-74774188D01*
X94780000Y-74761928D01*
X94265750Y-74765000D01*
X94107000Y-74923750D01*
X93853000Y-74923750D01*
X93694250Y-74765000D01*
X93180000Y-74761928D01*
X93055518Y-74774188D01*
X92935820Y-74810498D01*
X92825506Y-74869463D01*
X92728815Y-74948815D01*
X92649463Y-75045506D01*
X92590498Y-75155820D01*
X92554188Y-75275518D01*
X92541928Y-75400000D01*
X90151452Y-75400000D01*
X90053475Y-75253368D01*
X89846632Y-75046525D01*
X89603411Y-74884010D01*
X89333158Y-74772068D01*
X89046260Y-74715000D01*
X88753740Y-74715000D01*
X88466842Y-74772068D01*
X88196589Y-74884010D01*
X87953368Y-75046525D01*
X87746525Y-75253368D01*
X87584010Y-75496589D01*
X87472068Y-75766842D01*
X87415000Y-76053740D01*
X87415000Y-76346260D01*
X87472068Y-76633158D01*
X87584010Y-76903411D01*
X87746525Y-77146632D01*
X87878380Y-77278487D01*
X87805820Y-77300498D01*
X87695506Y-77359463D01*
X87598815Y-77438815D01*
X87519463Y-77535506D01*
X87460498Y-77645820D01*
X87424188Y-77765518D01*
X87411928Y-77890000D01*
X85775000Y-77890000D01*
X85775000Y-71970000D01*
X87411928Y-71970000D01*
X87424188Y-72094482D01*
X87460498Y-72214180D01*
X87519463Y-72324494D01*
X87598815Y-72421185D01*
X87695506Y-72500537D01*
X87805820Y-72559502D01*
X87925518Y-72595812D01*
X88050000Y-72608072D01*
X88614250Y-72605000D01*
X88773000Y-72446250D01*
X88773000Y-71247000D01*
X89027000Y-71247000D01*
X89027000Y-72446250D01*
X89185750Y-72605000D01*
X89750000Y-72608072D01*
X89874482Y-72595812D01*
X89994180Y-72559502D01*
X90104494Y-72500537D01*
X90201185Y-72421185D01*
X90280537Y-72324494D01*
X90339502Y-72214180D01*
X90375812Y-72094482D01*
X90388072Y-71970000D01*
X90385000Y-71405750D01*
X90226250Y-71247000D01*
X89027000Y-71247000D01*
X88773000Y-71247000D01*
X87573750Y-71247000D01*
X87415000Y-71405750D01*
X87411928Y-71970000D01*
X85775000Y-71970000D01*
X85775000Y-70270000D01*
X87411928Y-70270000D01*
X87415000Y-70834250D01*
X87573750Y-70993000D01*
X88773000Y-70993000D01*
X88773000Y-70973000D01*
X89027000Y-70973000D01*
X89027000Y-70993000D01*
X90226250Y-70993000D01*
X90385000Y-70834250D01*
X90388072Y-70270000D01*
X90375812Y-70145518D01*
X90339502Y-70025820D01*
X90280537Y-69915506D01*
X90201185Y-69818815D01*
X90104494Y-69739463D01*
X89994180Y-69680498D01*
X89921620Y-69658487D01*
X90053475Y-69526632D01*
X90094656Y-69465000D01*
X98381531Y-69465000D01*
X98425000Y-69469281D01*
X98468469Y-69465000D01*
X98468477Y-69465000D01*
X98598490Y-69452195D01*
X98765313Y-69401589D01*
X98836341Y-69363624D01*
X98918665Y-69380000D01*
X99201335Y-69380000D01*
X99236439Y-69373017D01*
X99545349Y-69681928D01*
X98260000Y-69681928D01*
X98135518Y-69694188D01*
X98015820Y-69730498D01*
X97905506Y-69789463D01*
X97808815Y-69868815D01*
X97729463Y-69965506D01*
X97670498Y-70075820D01*
X97634188Y-70195518D01*
X97621928Y-70320000D01*
X97621928Y-71920000D01*
X97634188Y-72044482D01*
X97670498Y-72164180D01*
X97729463Y-72274494D01*
X97808815Y-72371185D01*
X97905506Y-72450537D01*
X98015820Y-72509502D01*
X98135518Y-72545812D01*
X98260000Y-72558072D01*
X99762500Y-72558072D01*
X99762500Y-73038537D01*
X99739727Y-73023320D01*
X99478574Y-72915147D01*
X99201335Y-72860000D01*
X98918665Y-72860000D01*
X98641426Y-72915147D01*
X98380273Y-73023320D01*
X98145241Y-73180363D01*
X97945363Y-73380241D01*
X97788320Y-73615273D01*
X97680147Y-73876426D01*
X97625000Y-74153665D01*
X97625000Y-74436335D01*
X97680147Y-74713574D01*
X97788320Y-74974727D01*
X97945363Y-75209759D01*
X98145241Y-75409637D01*
X98380273Y-75566680D01*
X98641426Y-75674853D01*
X98918665Y-75730000D01*
X99201335Y-75730000D01*
X99478574Y-75674853D01*
X99739727Y-75566680D01*
X99762501Y-75551463D01*
X99762501Y-76213537D01*
X99739727Y-76198320D01*
X99478574Y-76090147D01*
X99201335Y-76035000D01*
X98918665Y-76035000D01*
X98641426Y-76090147D01*
X98380273Y-76198320D01*
X98145241Y-76355363D01*
X97945363Y-76555241D01*
X97788320Y-76790273D01*
X97680147Y-77051426D01*
X97625000Y-77328665D01*
X97625000Y-77611335D01*
X97680147Y-77888574D01*
X97788320Y-78149727D01*
X97945363Y-78384759D01*
X98145241Y-78584637D01*
X98380273Y-78741680D01*
X98641426Y-78849853D01*
X98918665Y-78905000D01*
X99201335Y-78905000D01*
X99478574Y-78849853D01*
X99691952Y-78761469D01*
X99236439Y-79216983D01*
X99201335Y-79210000D01*
X98918665Y-79210000D01*
X98641426Y-79265147D01*
X98380273Y-79373320D01*
X98145241Y-79530363D01*
X97945363Y-79730241D01*
X97788320Y-79965273D01*
X97680147Y-80226426D01*
X97625000Y-80503665D01*
X97625000Y-80786335D01*
X97680147Y-81063574D01*
X97788320Y-81324727D01*
X97945363Y-81559759D01*
X98145241Y-81759637D01*
X98380273Y-81916680D01*
X98641426Y-82024853D01*
X98918665Y-82080000D01*
X99201335Y-82080000D01*
X99478574Y-82024853D01*
X99739727Y-81916680D01*
X99974759Y-81759637D01*
X100174637Y-81559759D01*
X100331680Y-81324727D01*
X100439853Y-81063574D01*
X100495000Y-80786335D01*
X100495000Y-80503665D01*
X105245000Y-80503665D01*
X105245000Y-80786335D01*
X105300147Y-81063574D01*
X105408320Y-81324727D01*
X105565363Y-81559759D01*
X105765241Y-81759637D01*
X106000273Y-81916680D01*
X106261426Y-82024853D01*
X106538665Y-82080000D01*
X106821335Y-82080000D01*
X115401928Y-82080000D01*
X115414188Y-82204482D01*
X115450498Y-82324180D01*
X115509463Y-82434494D01*
X115588815Y-82531185D01*
X115685506Y-82610537D01*
X115795820Y-82669502D01*
X115915518Y-82705812D01*
X116040000Y-82718072D01*
X116554250Y-82715000D01*
X116713000Y-82556250D01*
X116713000Y-81407000D01*
X115563750Y-81407000D01*
X115405000Y-81565750D01*
X115401928Y-82080000D01*
X106821335Y-82080000D01*
X107098574Y-82024853D01*
X107359727Y-81916680D01*
X107594759Y-81759637D01*
X107794637Y-81559759D01*
X107951680Y-81324727D01*
X108059853Y-81063574D01*
X108115000Y-80786335D01*
X108115000Y-80503665D01*
X108110293Y-80480000D01*
X115401928Y-80480000D01*
X115405000Y-80994250D01*
X115563750Y-81153000D01*
X116713000Y-81153000D01*
X116713000Y-80003750D01*
X116554250Y-79845000D01*
X116040000Y-79841928D01*
X115915518Y-79854188D01*
X115795820Y-79890498D01*
X115685506Y-79949463D01*
X115588815Y-80028815D01*
X115509463Y-80125506D01*
X115450498Y-80235820D01*
X115414188Y-80355518D01*
X115401928Y-80480000D01*
X108110293Y-80480000D01*
X108059853Y-80226426D01*
X107951680Y-79965273D01*
X107794637Y-79730241D01*
X107594759Y-79530363D01*
X107359727Y-79373320D01*
X107098574Y-79265147D01*
X106821335Y-79210000D01*
X106538665Y-79210000D01*
X106261426Y-79265147D01*
X106000273Y-79373320D01*
X105765241Y-79530363D01*
X105565363Y-79730241D01*
X105408320Y-79965273D01*
X105300147Y-80226426D01*
X105245000Y-80503665D01*
X100495000Y-80503665D01*
X100488017Y-80468561D01*
X101242550Y-79714029D01*
X101276317Y-79686317D01*
X101386911Y-79551559D01*
X101469089Y-79397813D01*
X101519695Y-79230990D01*
X101532500Y-79100977D01*
X101532500Y-79100967D01*
X101536781Y-79057501D01*
X101532500Y-79014034D01*
X101532500Y-77328665D01*
X105245000Y-77328665D01*
X105245000Y-77611335D01*
X105300147Y-77888574D01*
X105408320Y-78149727D01*
X105565363Y-78384759D01*
X105765241Y-78584637D01*
X106000273Y-78741680D01*
X106261426Y-78849853D01*
X106538665Y-78905000D01*
X106821335Y-78905000D01*
X107098574Y-78849853D01*
X107359727Y-78741680D01*
X107594759Y-78584637D01*
X107794637Y-78384759D01*
X107951680Y-78149727D01*
X108059853Y-77888574D01*
X108115000Y-77611335D01*
X108115000Y-77470000D01*
X110369388Y-77470000D01*
X110391785Y-77697400D01*
X110455093Y-77906098D01*
X110420498Y-77970820D01*
X110384188Y-78090518D01*
X110371928Y-78215000D01*
X110371928Y-79265000D01*
X110384188Y-79389482D01*
X110420498Y-79509180D01*
X110479463Y-79619494D01*
X110558815Y-79716185D01*
X110655506Y-79795537D01*
X110765820Y-79854502D01*
X110885518Y-79890812D01*
X111010000Y-79903072D01*
X112510000Y-79903072D01*
X112634482Y-79890812D01*
X112754180Y-79854502D01*
X112864494Y-79795537D01*
X112961185Y-79716185D01*
X113040537Y-79619494D01*
X113099502Y-79509180D01*
X113135812Y-79389482D01*
X113148072Y-79265000D01*
X113148072Y-78215000D01*
X113135812Y-78090518D01*
X113099502Y-77970820D01*
X113064907Y-77906098D01*
X113128215Y-77697400D01*
X113150612Y-77470000D01*
X113128215Y-77242600D01*
X113061885Y-77023940D01*
X112961071Y-76835331D01*
X113002275Y-76776882D01*
X113095272Y-76567337D01*
X113103964Y-76505810D01*
X112978163Y-76327000D01*
X112213109Y-76327000D01*
X112212400Y-76326785D01*
X112041979Y-76310000D01*
X111478021Y-76310000D01*
X111307600Y-76326785D01*
X111306891Y-76327000D01*
X110541837Y-76327000D01*
X110416036Y-76505810D01*
X110424728Y-76567337D01*
X110517725Y-76776882D01*
X110558929Y-76835331D01*
X110458115Y-77023940D01*
X110391785Y-77242600D01*
X110369388Y-77470000D01*
X108115000Y-77470000D01*
X108115000Y-77328665D01*
X108059853Y-77051426D01*
X107951680Y-76790273D01*
X107794637Y-76555241D01*
X107594759Y-76355363D01*
X107359727Y-76198320D01*
X107098574Y-76090147D01*
X106821335Y-76035000D01*
X106538665Y-76035000D01*
X106261426Y-76090147D01*
X106000273Y-76198320D01*
X105765241Y-76355363D01*
X105565363Y-76555241D01*
X105408320Y-76790273D01*
X105300147Y-77051426D01*
X105245000Y-77328665D01*
X101532500Y-77328665D01*
X101532500Y-75894190D01*
X110416036Y-75894190D01*
X110541837Y-76073000D01*
X111633000Y-76073000D01*
X111633000Y-75193402D01*
X111887000Y-75193402D01*
X111887000Y-76073000D01*
X112978163Y-76073000D01*
X113103964Y-75894190D01*
X113095272Y-75832663D01*
X113002275Y-75623118D01*
X112870184Y-75435742D01*
X112704076Y-75277736D01*
X112510334Y-75155172D01*
X112296404Y-75072761D01*
X112070507Y-75033669D01*
X111887000Y-75193402D01*
X111633000Y-75193402D01*
X111449493Y-75033669D01*
X111223596Y-75072761D01*
X111009666Y-75155172D01*
X110815924Y-75277736D01*
X110649816Y-75435742D01*
X110517725Y-75623118D01*
X110424728Y-75832663D01*
X110416036Y-75894190D01*
X101532500Y-75894190D01*
X101532500Y-74644039D01*
X105288096Y-74644039D01*
X105328754Y-74778087D01*
X105448963Y-75032420D01*
X105616481Y-75258414D01*
X105824869Y-75447385D01*
X106066119Y-75592070D01*
X106330960Y-75686909D01*
X106553000Y-75565624D01*
X106553000Y-74422000D01*
X106807000Y-74422000D01*
X106807000Y-75565624D01*
X107029040Y-75686909D01*
X107293881Y-75592070D01*
X107535131Y-75447385D01*
X107743519Y-75258414D01*
X107911037Y-75032420D01*
X108031246Y-74778087D01*
X108071904Y-74644039D01*
X107949915Y-74422000D01*
X106807000Y-74422000D01*
X106553000Y-74422000D01*
X105410085Y-74422000D01*
X105288096Y-74644039D01*
X101532500Y-74644039D01*
X101532500Y-73945961D01*
X105288096Y-73945961D01*
X105410085Y-74168000D01*
X106553000Y-74168000D01*
X106553000Y-73024376D01*
X106807000Y-73024376D01*
X106807000Y-74168000D01*
X107949915Y-74168000D01*
X108071904Y-73945961D01*
X108031246Y-73811913D01*
X107911037Y-73557580D01*
X107743519Y-73331586D01*
X107535131Y-73142615D01*
X107293881Y-72997930D01*
X107029040Y-72903091D01*
X106807000Y-73024376D01*
X106553000Y-73024376D01*
X106330960Y-72903091D01*
X106066119Y-72997930D01*
X105824869Y-73142615D01*
X105616481Y-73331586D01*
X105448963Y-73557580D01*
X105328754Y-73811913D01*
X105288096Y-73945961D01*
X101532500Y-73945961D01*
X101532500Y-71469039D01*
X105288096Y-71469039D01*
X105328754Y-71603087D01*
X105448963Y-71857420D01*
X105616481Y-72083414D01*
X105824869Y-72272385D01*
X106066119Y-72417070D01*
X106330960Y-72511909D01*
X106553000Y-72390624D01*
X106553000Y-71247000D01*
X106807000Y-71247000D01*
X106807000Y-72390624D01*
X107029040Y-72511909D01*
X107293881Y-72417070D01*
X107535131Y-72272385D01*
X107743519Y-72083414D01*
X107911037Y-71857420D01*
X108031246Y-71603087D01*
X108071904Y-71469039D01*
X107949915Y-71247000D01*
X106807000Y-71247000D01*
X106553000Y-71247000D01*
X105410085Y-71247000D01*
X105288096Y-71469039D01*
X101532500Y-71469039D01*
X101532500Y-70417500D01*
X105432458Y-70417500D01*
X105328754Y-70636913D01*
X105288096Y-70770961D01*
X105410085Y-70993000D01*
X106553000Y-70993000D01*
X106553000Y-70973000D01*
X106807000Y-70973000D01*
X106807000Y-70993000D01*
X107949915Y-70993000D01*
X108071904Y-70770961D01*
X108031246Y-70636913D01*
X107927542Y-70417500D01*
X112345922Y-70417500D01*
X115411983Y-73483561D01*
X115405000Y-73518665D01*
X115405000Y-73801335D01*
X115460147Y-74078574D01*
X115568320Y-74339727D01*
X115725363Y-74574759D01*
X115925241Y-74774637D01*
X116160273Y-74931680D01*
X116421426Y-75039853D01*
X116698665Y-75095000D01*
X116981335Y-75095000D01*
X117016439Y-75088017D01*
X121774291Y-79845870D01*
X121501426Y-79900147D01*
X121240273Y-80008320D01*
X121005241Y-80165363D01*
X120805363Y-80365241D01*
X120650000Y-80597759D01*
X120494637Y-80365241D01*
X120294759Y-80165363D01*
X120059727Y-80008320D01*
X119798574Y-79900147D01*
X119521335Y-79845000D01*
X119238665Y-79845000D01*
X118961426Y-79900147D01*
X118700273Y-80008320D01*
X118465241Y-80165363D01*
X118266643Y-80363961D01*
X118265812Y-80355518D01*
X118229502Y-80235820D01*
X118170537Y-80125506D01*
X118091185Y-80028815D01*
X117994494Y-79949463D01*
X117884180Y-79890498D01*
X117764482Y-79854188D01*
X117640000Y-79841928D01*
X117125750Y-79845000D01*
X116967000Y-80003750D01*
X116967000Y-81153000D01*
X116987000Y-81153000D01*
X116987000Y-81407000D01*
X116967000Y-81407000D01*
X116967000Y-82556250D01*
X117125750Y-82715000D01*
X117640000Y-82718072D01*
X117764482Y-82705812D01*
X117884180Y-82669502D01*
X117994494Y-82610537D01*
X118091185Y-82531185D01*
X118170537Y-82434494D01*
X118229502Y-82324180D01*
X118265812Y-82204482D01*
X118266643Y-82196039D01*
X118465241Y-82394637D01*
X118700273Y-82551680D01*
X118961426Y-82659853D01*
X119238665Y-82715000D01*
X119521335Y-82715000D01*
X119798574Y-82659853D01*
X120059727Y-82551680D01*
X120294759Y-82394637D01*
X120494637Y-82194759D01*
X120650000Y-81962241D01*
X120805363Y-82194759D01*
X121005241Y-82394637D01*
X121240273Y-82551680D01*
X121501426Y-82659853D01*
X121778665Y-82715000D01*
X122061335Y-82715000D01*
X122338574Y-82659853D01*
X122599727Y-82551680D01*
X122834759Y-82394637D01*
X123034637Y-82194759D01*
X123190000Y-81962241D01*
X123345363Y-82194759D01*
X123545241Y-82394637D01*
X123780273Y-82551680D01*
X124041426Y-82659853D01*
X124318665Y-82715000D01*
X124601335Y-82715000D01*
X124878574Y-82659853D01*
X125139727Y-82551680D01*
X125374759Y-82394637D01*
X125574637Y-82194759D01*
X125731680Y-81959727D01*
X125839853Y-81698574D01*
X125895000Y-81421335D01*
X125895000Y-81138665D01*
X125839853Y-80861426D01*
X125731680Y-80600273D01*
X125667129Y-80503665D01*
X128105000Y-80503665D01*
X128105000Y-80786335D01*
X128160147Y-81063574D01*
X128268320Y-81324727D01*
X128425363Y-81559759D01*
X128625241Y-81759637D01*
X128860273Y-81916680D01*
X129121426Y-82024853D01*
X129398665Y-82080000D01*
X129681335Y-82080000D01*
X129958574Y-82024853D01*
X130219727Y-81916680D01*
X130454759Y-81759637D01*
X130654637Y-81559759D01*
X130811680Y-81324727D01*
X130919853Y-81063574D01*
X130975000Y-80786335D01*
X130975000Y-80503665D01*
X130919853Y-80226426D01*
X130811680Y-79965273D01*
X130654637Y-79730241D01*
X130454759Y-79530363D01*
X130219727Y-79373320D01*
X129958574Y-79265147D01*
X129681335Y-79210000D01*
X129398665Y-79210000D01*
X129121426Y-79265147D01*
X128860273Y-79373320D01*
X128625241Y-79530363D01*
X128425363Y-79730241D01*
X128268320Y-79965273D01*
X128160147Y-80226426D01*
X128105000Y-80503665D01*
X125667129Y-80503665D01*
X125574637Y-80365241D01*
X125374759Y-80165363D01*
X125139727Y-80008320D01*
X124878574Y-79900147D01*
X124601335Y-79845000D01*
X124318665Y-79845000D01*
X124283562Y-79851983D01*
X119719281Y-75287702D01*
X128726903Y-75287702D01*
X128798486Y-75531671D01*
X129053996Y-75652571D01*
X129328184Y-75721300D01*
X129610512Y-75735217D01*
X129890130Y-75693787D01*
X130156292Y-75598603D01*
X130281514Y-75531671D01*
X130353097Y-75287702D01*
X129540000Y-74474605D01*
X128726903Y-75287702D01*
X119719281Y-75287702D01*
X119525708Y-75094130D01*
X119798574Y-75039853D01*
X120059727Y-74931680D01*
X120294759Y-74774637D01*
X120494637Y-74574759D01*
X120650000Y-74342241D01*
X120805363Y-74574759D01*
X121005241Y-74774637D01*
X121240273Y-74931680D01*
X121501426Y-75039853D01*
X121778665Y-75095000D01*
X122061335Y-75095000D01*
X122338574Y-75039853D01*
X122599727Y-74931680D01*
X122834759Y-74774637D01*
X123034637Y-74574759D01*
X123190000Y-74342241D01*
X123345363Y-74574759D01*
X123545241Y-74774637D01*
X123780273Y-74931680D01*
X124041426Y-75039853D01*
X124318665Y-75095000D01*
X124601335Y-75095000D01*
X124878574Y-75039853D01*
X125139727Y-74931680D01*
X125374759Y-74774637D01*
X125574637Y-74574759D01*
X125714451Y-74365512D01*
X128099783Y-74365512D01*
X128141213Y-74645130D01*
X128236397Y-74911292D01*
X128303329Y-75036514D01*
X128547298Y-75108097D01*
X129360395Y-74295000D01*
X129719605Y-74295000D01*
X130532702Y-75108097D01*
X130776671Y-75036514D01*
X130897571Y-74781004D01*
X130966300Y-74506816D01*
X130980217Y-74224488D01*
X130938787Y-73944870D01*
X130843603Y-73678708D01*
X130776671Y-73553486D01*
X130532702Y-73481903D01*
X129719605Y-74295000D01*
X129360395Y-74295000D01*
X128547298Y-73481903D01*
X128303329Y-73553486D01*
X128182429Y-73808996D01*
X128113700Y-74083184D01*
X128099783Y-74365512D01*
X125714451Y-74365512D01*
X125731680Y-74339727D01*
X125839853Y-74078574D01*
X125895000Y-73801335D01*
X125895000Y-73518665D01*
X125851962Y-73302298D01*
X128726903Y-73302298D01*
X129540000Y-74115395D01*
X130353097Y-73302298D01*
X130281514Y-73058329D01*
X130026004Y-72937429D01*
X129751816Y-72868700D01*
X129469488Y-72854783D01*
X129189870Y-72896213D01*
X128923708Y-72991397D01*
X128798486Y-73058329D01*
X128726903Y-73302298D01*
X125851962Y-73302298D01*
X125839853Y-73241426D01*
X125731680Y-72980273D01*
X125574637Y-72745241D01*
X125374759Y-72545363D01*
X125139727Y-72388320D01*
X124878574Y-72280147D01*
X124601335Y-72225000D01*
X124318665Y-72225000D01*
X124041426Y-72280147D01*
X123780273Y-72388320D01*
X123545241Y-72545363D01*
X123345363Y-72745241D01*
X123190000Y-72977759D01*
X123034637Y-72745241D01*
X122834759Y-72545363D01*
X122599727Y-72388320D01*
X122338574Y-72280147D01*
X122061335Y-72225000D01*
X121778665Y-72225000D01*
X121501426Y-72280147D01*
X121240273Y-72388320D01*
X121005241Y-72545363D01*
X120805363Y-72745241D01*
X120650000Y-72977759D01*
X120494637Y-72745241D01*
X120294759Y-72545363D01*
X120059727Y-72388320D01*
X119798574Y-72280147D01*
X119521335Y-72225000D01*
X119238665Y-72225000D01*
X118961426Y-72280147D01*
X118700273Y-72388320D01*
X118465241Y-72545363D01*
X118265363Y-72745241D01*
X118110000Y-72977759D01*
X117954637Y-72745241D01*
X117754759Y-72545363D01*
X117519727Y-72388320D01*
X117258574Y-72280147D01*
X116981335Y-72225000D01*
X116698665Y-72225000D01*
X116663561Y-72231983D01*
X113369034Y-68937456D01*
X113341317Y-68903683D01*
X113206559Y-68793089D01*
X113052813Y-68710911D01*
X112885990Y-68660305D01*
X112755977Y-68647500D01*
X112755969Y-68647500D01*
X112712500Y-68643219D01*
X112669031Y-68647500D01*
X107936464Y-68647500D01*
X107951680Y-68624727D01*
X108028749Y-68438665D01*
X116675000Y-68438665D01*
X116675000Y-68721335D01*
X116730147Y-68998574D01*
X116838320Y-69259727D01*
X116995363Y-69494759D01*
X117195241Y-69694637D01*
X117430273Y-69851680D01*
X117691426Y-69959853D01*
X117968665Y-70015000D01*
X118251335Y-70015000D01*
X118528574Y-69959853D01*
X118789727Y-69851680D01*
X119024759Y-69694637D01*
X119224637Y-69494759D01*
X119380000Y-69262241D01*
X119535363Y-69494759D01*
X119735241Y-69694637D01*
X119970273Y-69851680D01*
X120231426Y-69959853D01*
X120508665Y-70015000D01*
X120791335Y-70015000D01*
X121068574Y-69959853D01*
X121329727Y-69851680D01*
X121564759Y-69694637D01*
X121764637Y-69494759D01*
X121920000Y-69262241D01*
X122075363Y-69494759D01*
X122275241Y-69694637D01*
X122510273Y-69851680D01*
X122771426Y-69959853D01*
X123048665Y-70015000D01*
X123331335Y-70015000D01*
X123608574Y-69959853D01*
X123869727Y-69851680D01*
X124104759Y-69694637D01*
X124304637Y-69494759D01*
X124461680Y-69259727D01*
X124505612Y-69153665D01*
X128105000Y-69153665D01*
X128105000Y-69436335D01*
X128160147Y-69713574D01*
X128268320Y-69974727D01*
X128425363Y-70209759D01*
X128625241Y-70409637D01*
X128860273Y-70566680D01*
X129121426Y-70674853D01*
X129398665Y-70730000D01*
X129681335Y-70730000D01*
X129958574Y-70674853D01*
X130219727Y-70566680D01*
X130454759Y-70409637D01*
X130654637Y-70209759D01*
X130811680Y-69974727D01*
X130919853Y-69713574D01*
X130975000Y-69436335D01*
X130975000Y-69153665D01*
X130919853Y-68876426D01*
X130811680Y-68615273D01*
X130654637Y-68380241D01*
X130454759Y-68180363D01*
X130219727Y-68023320D01*
X129958574Y-67915147D01*
X129681335Y-67860000D01*
X129398665Y-67860000D01*
X129121426Y-67915147D01*
X128860273Y-68023320D01*
X128625241Y-68180363D01*
X128425363Y-68380241D01*
X128268320Y-68615273D01*
X128160147Y-68876426D01*
X128105000Y-69153665D01*
X124505612Y-69153665D01*
X124569853Y-68998574D01*
X124625000Y-68721335D01*
X124625000Y-68438665D01*
X124569853Y-68161426D01*
X124461680Y-67900273D01*
X124304637Y-67665241D01*
X124104759Y-67465363D01*
X123869727Y-67308320D01*
X123608574Y-67200147D01*
X123331335Y-67145000D01*
X123048665Y-67145000D01*
X122771426Y-67200147D01*
X122510273Y-67308320D01*
X122275241Y-67465363D01*
X122075363Y-67665241D01*
X121920000Y-67897759D01*
X121764637Y-67665241D01*
X121564759Y-67465363D01*
X121329727Y-67308320D01*
X121068574Y-67200147D01*
X120791335Y-67145000D01*
X120508665Y-67145000D01*
X120231426Y-67200147D01*
X119970273Y-67308320D01*
X119735241Y-67465363D01*
X119535363Y-67665241D01*
X119380000Y-67897759D01*
X119224637Y-67665241D01*
X119024759Y-67465363D01*
X118789727Y-67308320D01*
X118528574Y-67200147D01*
X118251335Y-67145000D01*
X117968665Y-67145000D01*
X117691426Y-67200147D01*
X117430273Y-67308320D01*
X117195241Y-67465363D01*
X116995363Y-67665241D01*
X116838320Y-67900273D01*
X116730147Y-68161426D01*
X116675000Y-68438665D01*
X108028749Y-68438665D01*
X108059853Y-68363574D01*
X108115000Y-68086335D01*
X108115000Y-67803665D01*
X108059853Y-67526426D01*
X107951680Y-67265273D01*
X107794637Y-67030241D01*
X107594759Y-66830363D01*
X107359727Y-66673320D01*
X107098574Y-66565147D01*
X106821335Y-66510000D01*
X106538665Y-66510000D01*
X106261426Y-66565147D01*
X106000273Y-66673320D01*
X105765241Y-66830363D01*
X105565363Y-67030241D01*
X105408320Y-67265273D01*
X105300147Y-67526426D01*
X105245000Y-67803665D01*
X105245000Y-68086335D01*
X105300147Y-68363574D01*
X105408320Y-68624727D01*
X105423536Y-68647500D01*
X101014079Y-68647500D01*
X100488017Y-68121439D01*
X100495000Y-68086335D01*
X100495000Y-67803665D01*
X100439853Y-67526426D01*
X100331680Y-67265273D01*
X100174637Y-67030241D01*
X99974759Y-66830363D01*
X99739727Y-66673320D01*
X99478574Y-66565147D01*
X99201335Y-66510000D01*
X98918665Y-66510000D01*
X98641426Y-66565147D01*
X98380273Y-66673320D01*
X98145241Y-66830363D01*
X97945363Y-67030241D01*
X97788320Y-67265273D01*
X97680147Y-67526426D01*
X97646615Y-67695000D01*
X90094656Y-67695000D01*
X90053475Y-67633368D01*
X89846632Y-67426525D01*
X89603411Y-67264010D01*
X89333158Y-67152068D01*
X89046260Y-67095000D01*
X88753740Y-67095000D01*
X88466842Y-67152068D01*
X88196589Y-67264010D01*
X87953368Y-67426525D01*
X87746525Y-67633368D01*
X87584010Y-67876589D01*
X87472068Y-68146842D01*
X87415000Y-68433740D01*
X87415000Y-68726260D01*
X87472068Y-69013158D01*
X87584010Y-69283411D01*
X87746525Y-69526632D01*
X87878380Y-69658487D01*
X87805820Y-69680498D01*
X87695506Y-69739463D01*
X87598815Y-69818815D01*
X87519463Y-69915506D01*
X87460498Y-70025820D01*
X87424188Y-70145518D01*
X87411928Y-70270000D01*
X85775000Y-70270000D01*
X85775000Y-65455000D01*
X92443094Y-65455000D01*
X92491447Y-65607430D01*
%TA.AperFunction,Conductor*%
D19*
G36*
X92491447Y-65607430D02*
G01*
X92515905Y-65664494D01*
X92539564Y-65721895D01*
X92544113Y-65730308D01*
X92694548Y-66003948D01*
X92729615Y-66055163D01*
X92763982Y-66106888D01*
X92770078Y-66114258D01*
X92970800Y-66353467D01*
X93015157Y-66396905D01*
X93058903Y-66440957D01*
X93066315Y-66447002D01*
X93309674Y-66642669D01*
X93361651Y-66676682D01*
X93413097Y-66711382D01*
X93421541Y-66715872D01*
X93698271Y-66860544D01*
X93755843Y-66883804D01*
X93813068Y-66907859D01*
X93822224Y-66910624D01*
X94121785Y-66998790D01*
X94182802Y-67010430D01*
X94243589Y-67022907D01*
X94253104Y-67023841D01*
X94253108Y-67023841D01*
X94564087Y-67052142D01*
X94626137Y-67051708D01*
X94688254Y-67052142D01*
X94697773Y-67051208D01*
X95008328Y-67018567D01*
X95069135Y-67006085D01*
X95130128Y-66994450D01*
X95139284Y-66991686D01*
X95437585Y-66899347D01*
X95494851Y-66875275D01*
X95552383Y-66852030D01*
X95560823Y-66847542D01*
X95560828Y-66847540D01*
X95560832Y-66847537D01*
X95835512Y-66699019D01*
X95886984Y-66664301D01*
X95938933Y-66630306D01*
X95946345Y-66624262D01*
X96186949Y-66425216D01*
X96230696Y-66381162D01*
X96275054Y-66337724D01*
X96281150Y-66330355D01*
X96478511Y-66088366D01*
X96512888Y-66036625D01*
X96547943Y-65985428D01*
X96552489Y-65977020D01*
X96552494Y-65977013D01*
X96552497Y-65977005D01*
X96699093Y-65701302D01*
X96722757Y-65643889D01*
X96747210Y-65586835D01*
X96750036Y-65577706D01*
X96750038Y-65577700D01*
X96750039Y-65577694D01*
X96787083Y-65455000D01*
X127368094Y-65455000D01*
X127416447Y-65607430D01*
X127440905Y-65664494D01*
X127464564Y-65721895D01*
X127469113Y-65730308D01*
X127619548Y-66003948D01*
X127654615Y-66055163D01*
X127688982Y-66106888D01*
X127695078Y-66114258D01*
X127895800Y-66353467D01*
X127940157Y-66396905D01*
X127983903Y-66440957D01*
X127991315Y-66447002D01*
X128234674Y-66642669D01*
X128286651Y-66676682D01*
X128338097Y-66711382D01*
X128346541Y-66715872D01*
X128623271Y-66860544D01*
X128680843Y-66883804D01*
X128738068Y-66907859D01*
X128747224Y-66910624D01*
X129046785Y-66998790D01*
X129107802Y-67010430D01*
X129168589Y-67022907D01*
X129178104Y-67023841D01*
X129178108Y-67023841D01*
X129489087Y-67052142D01*
X129551137Y-67051708D01*
X129613254Y-67052142D01*
X129622773Y-67051208D01*
X129933328Y-67018567D01*
X129994135Y-67006085D01*
X130055128Y-66994450D01*
X130064284Y-66991686D01*
X130362585Y-66899347D01*
X130419851Y-66875275D01*
X130477383Y-66852030D01*
X130485823Y-66847542D01*
X130485828Y-66847540D01*
X130485832Y-66847537D01*
X130760512Y-66699019D01*
X130811984Y-66664301D01*
X130863933Y-66630306D01*
X130871345Y-66624262D01*
X131111949Y-66425216D01*
X131155696Y-66381162D01*
X131200054Y-66337724D01*
X131206150Y-66330355D01*
X131403511Y-66088366D01*
X131437888Y-66036625D01*
X131472943Y-65985428D01*
X131477489Y-65977020D01*
X131477494Y-65977013D01*
X131477497Y-65977005D01*
X131624093Y-65701302D01*
X131647757Y-65643889D01*
X131672210Y-65586835D01*
X131675036Y-65577706D01*
X131675038Y-65577700D01*
X131675039Y-65577694D01*
X131712083Y-65455000D01*
X132665000Y-65455000D01*
X132665001Y-89485000D01*
X131711906Y-89485000D01*
X131663553Y-89332571D01*
X131639101Y-89275520D01*
X131615436Y-89218105D01*
X131610887Y-89209691D01*
X131460452Y-88936052D01*
X131425385Y-88884837D01*
X131391018Y-88833112D01*
X131384922Y-88825743D01*
X131184201Y-88586533D01*
X131139824Y-88543076D01*
X131096097Y-88499043D01*
X131088685Y-88492998D01*
X130845325Y-88297331D01*
X130793384Y-88263342D01*
X130741904Y-88228618D01*
X130733459Y-88224128D01*
X130456729Y-88079457D01*
X130399190Y-88056210D01*
X130341932Y-88032141D01*
X130332776Y-88029376D01*
X130033215Y-87941210D01*
X129972198Y-87929570D01*
X129911411Y-87917093D01*
X129901896Y-87916159D01*
X129901892Y-87916159D01*
X129590912Y-87887858D01*
X129528862Y-87888292D01*
X129466746Y-87887858D01*
X129457228Y-87888792D01*
X129457226Y-87888792D01*
X129146672Y-87921433D01*
X129085871Y-87933914D01*
X129024872Y-87945550D01*
X129015716Y-87948314D01*
X128717416Y-88040653D01*
X128660162Y-88064721D01*
X128602618Y-88087970D01*
X128594173Y-88092459D01*
X128319489Y-88240981D01*
X128268017Y-88275699D01*
X128216068Y-88309694D01*
X128208656Y-88315738D01*
X127968051Y-88514783D01*
X127924301Y-88558840D01*
X127879946Y-88602276D01*
X127873850Y-88609645D01*
X127676489Y-88851634D01*
X127642124Y-88903357D01*
X127607057Y-88954571D01*
X127602508Y-88962984D01*
X127455908Y-89238698D01*
X127432258Y-89296076D01*
X127407790Y-89353166D01*
X127404962Y-89362302D01*
X127367918Y-89485000D01*
X96786906Y-89485000D01*
X96738553Y-89332571D01*
X96714101Y-89275520D01*
X96690436Y-89218105D01*
X96685887Y-89209691D01*
X96535452Y-88936052D01*
X96500385Y-88884837D01*
X96466018Y-88833112D01*
X96459922Y-88825743D01*
X96259201Y-88586533D01*
X96214824Y-88543076D01*
X96171097Y-88499043D01*
X96163685Y-88492998D01*
X95920325Y-88297331D01*
X95868384Y-88263342D01*
X95816904Y-88228618D01*
X95808459Y-88224128D01*
X95531729Y-88079457D01*
X95474190Y-88056210D01*
X95416932Y-88032141D01*
X95407776Y-88029376D01*
X95108215Y-87941210D01*
X95047198Y-87929570D01*
X94986411Y-87917093D01*
X94976896Y-87916159D01*
X94976892Y-87916159D01*
X94665912Y-87887858D01*
X94603862Y-87888292D01*
X94541746Y-87887858D01*
X94532228Y-87888792D01*
X94532226Y-87888792D01*
X94221672Y-87921433D01*
X94160871Y-87933914D01*
X94099872Y-87945550D01*
X94090716Y-87948314D01*
X93792416Y-88040653D01*
X93735162Y-88064721D01*
X93677618Y-88087970D01*
X93669173Y-88092459D01*
X93394489Y-88240981D01*
X93343017Y-88275699D01*
X93291068Y-88309694D01*
X93283656Y-88315738D01*
X93043051Y-88514783D01*
X92999301Y-88558840D01*
X92954946Y-88602276D01*
X92948850Y-88609645D01*
X92751489Y-88851634D01*
X92717124Y-88903357D01*
X92682057Y-88954571D01*
X92677508Y-88962984D01*
X92530908Y-89238698D01*
X92507258Y-89296076D01*
X92482790Y-89353166D01*
X92479962Y-89362302D01*
X92442918Y-89485000D01*
X85775000Y-89485000D01*
X85775000Y-87210000D01*
X87411928Y-87210000D01*
X87424188Y-87334482D01*
X87460498Y-87454180D01*
X87519463Y-87564494D01*
X87598815Y-87661185D01*
X87695506Y-87740537D01*
X87805820Y-87799502D01*
X87925518Y-87835812D01*
X88050000Y-87848072D01*
X88614250Y-87845000D01*
X88773000Y-87686250D01*
X88773000Y-86487000D01*
X89027000Y-86487000D01*
X89027000Y-87686250D01*
X89185750Y-87845000D01*
X89750000Y-87848072D01*
X89874482Y-87835812D01*
X89994180Y-87799502D01*
X90104494Y-87740537D01*
X90201185Y-87661185D01*
X90280537Y-87564494D01*
X90339502Y-87454180D01*
X90375812Y-87334482D01*
X90388072Y-87210000D01*
X90386132Y-86853665D01*
X97625000Y-86853665D01*
X97625000Y-87136335D01*
X97680147Y-87413574D01*
X97788320Y-87674727D01*
X97945363Y-87909759D01*
X98145241Y-88109637D01*
X98380273Y-88266680D01*
X98641426Y-88374853D01*
X98918665Y-88430000D01*
X99201335Y-88430000D01*
X99478574Y-88374853D01*
X99739727Y-88266680D01*
X99974759Y-88109637D01*
X100174637Y-87909759D01*
X100331680Y-87674727D01*
X100439853Y-87413574D01*
X100495000Y-87136335D01*
X100495000Y-86853665D01*
X105245000Y-86853665D01*
X105245000Y-87136335D01*
X105300147Y-87413574D01*
X105408320Y-87674727D01*
X105565363Y-87909759D01*
X105765241Y-88109637D01*
X106000273Y-88266680D01*
X106261426Y-88374853D01*
X106538665Y-88430000D01*
X106821335Y-88430000D01*
X107098574Y-88374853D01*
X107359727Y-88266680D01*
X107594759Y-88109637D01*
X107794637Y-87909759D01*
X107951680Y-87674727D01*
X108059853Y-87413574D01*
X108071961Y-87352702D01*
X117296903Y-87352702D01*
X117368486Y-87596671D01*
X117623996Y-87717571D01*
X117898184Y-87786300D01*
X118180512Y-87800217D01*
X118460130Y-87758787D01*
X118726292Y-87663603D01*
X118851514Y-87596671D01*
X118923097Y-87352702D01*
X118110000Y-86539605D01*
X117296903Y-87352702D01*
X108071961Y-87352702D01*
X108115000Y-87136335D01*
X108115000Y-86853665D01*
X108059853Y-86576426D01*
X107999414Y-86430512D01*
X116669783Y-86430512D01*
X116711213Y-86710130D01*
X116806397Y-86976292D01*
X116873329Y-87101514D01*
X117117298Y-87173097D01*
X117930395Y-86360000D01*
X118289605Y-86360000D01*
X119102702Y-87173097D01*
X119346671Y-87101514D01*
X119377194Y-87037008D01*
X119378320Y-87039727D01*
X119535363Y-87274759D01*
X119735241Y-87474637D01*
X119970273Y-87631680D01*
X120231426Y-87739853D01*
X120508665Y-87795000D01*
X120791335Y-87795000D01*
X121068574Y-87739853D01*
X121329727Y-87631680D01*
X121564759Y-87474637D01*
X121764637Y-87274759D01*
X121920000Y-87042241D01*
X122075363Y-87274759D01*
X122275241Y-87474637D01*
X122510273Y-87631680D01*
X122771426Y-87739853D01*
X123048665Y-87795000D01*
X123331335Y-87795000D01*
X123608574Y-87739853D01*
X123869727Y-87631680D01*
X124104759Y-87474637D01*
X124304637Y-87274759D01*
X124461680Y-87039727D01*
X124569853Y-86778574D01*
X124597874Y-86637702D01*
X128726903Y-86637702D01*
X128798486Y-86881671D01*
X129053996Y-87002571D01*
X129328184Y-87071300D01*
X129610512Y-87085217D01*
X129890130Y-87043787D01*
X130156292Y-86948603D01*
X130281514Y-86881671D01*
X130353097Y-86637702D01*
X129540000Y-85824605D01*
X128726903Y-86637702D01*
X124597874Y-86637702D01*
X124625000Y-86501335D01*
X124625000Y-86218665D01*
X124569853Y-85941426D01*
X124476277Y-85715512D01*
X128099783Y-85715512D01*
X128141213Y-85995130D01*
X128236397Y-86261292D01*
X128303329Y-86386514D01*
X128547298Y-86458097D01*
X129360395Y-85645000D01*
X129719605Y-85645000D01*
X130532702Y-86458097D01*
X130776671Y-86386514D01*
X130897571Y-86131004D01*
X130966300Y-85856816D01*
X130980217Y-85574488D01*
X130938787Y-85294870D01*
X130843603Y-85028708D01*
X130776671Y-84903486D01*
X130532702Y-84831903D01*
X129719605Y-85645000D01*
X129360395Y-85645000D01*
X128547298Y-84831903D01*
X128303329Y-84903486D01*
X128182429Y-85158996D01*
X128113700Y-85433184D01*
X128099783Y-85715512D01*
X124476277Y-85715512D01*
X124461680Y-85680273D01*
X124304637Y-85445241D01*
X124104759Y-85245363D01*
X123869727Y-85088320D01*
X123608574Y-84980147D01*
X123331335Y-84925000D01*
X123048665Y-84925000D01*
X122771426Y-84980147D01*
X122510273Y-85088320D01*
X122275241Y-85245363D01*
X122075363Y-85445241D01*
X121920000Y-85677759D01*
X121764637Y-85445241D01*
X121564759Y-85245363D01*
X121329727Y-85088320D01*
X121068574Y-84980147D01*
X120791335Y-84925000D01*
X120508665Y-84925000D01*
X120231426Y-84980147D01*
X119970273Y-85088320D01*
X119735241Y-85245363D01*
X119535363Y-85445241D01*
X119379085Y-85679128D01*
X119346671Y-85618486D01*
X119102702Y-85546903D01*
X118289605Y-86360000D01*
X117930395Y-86360000D01*
X117117298Y-85546903D01*
X116873329Y-85618486D01*
X116752429Y-85873996D01*
X116683700Y-86148184D01*
X116669783Y-86430512D01*
X107999414Y-86430512D01*
X107951680Y-86315273D01*
X107794637Y-86080241D01*
X107594759Y-85880363D01*
X107359727Y-85723320D01*
X107098574Y-85615147D01*
X106821335Y-85560000D01*
X106538665Y-85560000D01*
X106261426Y-85615147D01*
X106000273Y-85723320D01*
X105765241Y-85880363D01*
X105565363Y-86080241D01*
X105408320Y-86315273D01*
X105300147Y-86576426D01*
X105245000Y-86853665D01*
X100495000Y-86853665D01*
X100439853Y-86576426D01*
X100331680Y-86315273D01*
X100174637Y-86080241D01*
X99974759Y-85880363D01*
X99739727Y-85723320D01*
X99478574Y-85615147D01*
X99201335Y-85560000D01*
X98918665Y-85560000D01*
X98641426Y-85615147D01*
X98380273Y-85723320D01*
X98145241Y-85880363D01*
X97945363Y-86080241D01*
X97788320Y-86315273D01*
X97680147Y-86576426D01*
X97625000Y-86853665D01*
X90386132Y-86853665D01*
X90385000Y-86645750D01*
X90226250Y-86487000D01*
X89027000Y-86487000D01*
X88773000Y-86487000D01*
X87573750Y-86487000D01*
X87415000Y-86645750D01*
X87411928Y-87210000D01*
X85775000Y-87210000D01*
X85775000Y-85510000D01*
X87411928Y-85510000D01*
X87415000Y-86074250D01*
X87573750Y-86233000D01*
X88773000Y-86233000D01*
X88773000Y-86213000D01*
X89027000Y-86213000D01*
X89027000Y-86233000D01*
X90226250Y-86233000D01*
X90385000Y-86074250D01*
X90388072Y-85510000D01*
X90375812Y-85385518D01*
X90370286Y-85367298D01*
X117296903Y-85367298D01*
X118110000Y-86180395D01*
X118923097Y-85367298D01*
X118851514Y-85123329D01*
X118596004Y-85002429D01*
X118321816Y-84933700D01*
X118039488Y-84919783D01*
X117759870Y-84961213D01*
X117493708Y-85056397D01*
X117368486Y-85123329D01*
X117296903Y-85367298D01*
X90370286Y-85367298D01*
X90339502Y-85265820D01*
X90280537Y-85155506D01*
X90201185Y-85058815D01*
X90104494Y-84979463D01*
X89994180Y-84920498D01*
X89921620Y-84898487D01*
X90053475Y-84766632D01*
X90215990Y-84523411D01*
X90327932Y-84253158D01*
X90385000Y-83966260D01*
X90385000Y-83678665D01*
X97625000Y-83678665D01*
X97625000Y-83961335D01*
X97680147Y-84238574D01*
X97788320Y-84499727D01*
X97945363Y-84734759D01*
X98145241Y-84934637D01*
X98380273Y-85091680D01*
X98641426Y-85199853D01*
X98918665Y-85255000D01*
X99201335Y-85255000D01*
X99478574Y-85199853D01*
X99739727Y-85091680D01*
X99974759Y-84934637D01*
X100174637Y-84734759D01*
X100331680Y-84499727D01*
X100439853Y-84238574D01*
X100495000Y-83961335D01*
X100495000Y-83678665D01*
X105245000Y-83678665D01*
X105245000Y-83961335D01*
X105300147Y-84238574D01*
X105408320Y-84499727D01*
X105565363Y-84734759D01*
X105765241Y-84934637D01*
X106000273Y-85091680D01*
X106261426Y-85199853D01*
X106538665Y-85255000D01*
X106821335Y-85255000D01*
X107098574Y-85199853D01*
X107359727Y-85091680D01*
X107594759Y-84934637D01*
X107794637Y-84734759D01*
X107849735Y-84652298D01*
X128726903Y-84652298D01*
X129540000Y-85465395D01*
X130353097Y-84652298D01*
X130281514Y-84408329D01*
X130026004Y-84287429D01*
X129751816Y-84218700D01*
X129469488Y-84204783D01*
X129189870Y-84246213D01*
X128923708Y-84341397D01*
X128798486Y-84408329D01*
X128726903Y-84652298D01*
X107849735Y-84652298D01*
X107951680Y-84499727D01*
X108059853Y-84238574D01*
X108115000Y-83961335D01*
X108115000Y-83678665D01*
X108059853Y-83401426D01*
X107951680Y-83140273D01*
X107794637Y-82905241D01*
X107594759Y-82705363D01*
X107359727Y-82548320D01*
X107098574Y-82440147D01*
X106821335Y-82385000D01*
X106538665Y-82385000D01*
X106261426Y-82440147D01*
X106000273Y-82548320D01*
X105765241Y-82705363D01*
X105565363Y-82905241D01*
X105408320Y-83140273D01*
X105300147Y-83401426D01*
X105245000Y-83678665D01*
X100495000Y-83678665D01*
X100439853Y-83401426D01*
X100331680Y-83140273D01*
X100174637Y-82905241D01*
X99974759Y-82705363D01*
X99739727Y-82548320D01*
X99478574Y-82440147D01*
X99201335Y-82385000D01*
X98918665Y-82385000D01*
X98641426Y-82440147D01*
X98380273Y-82548320D01*
X98145241Y-82705363D01*
X97945363Y-82905241D01*
X97788320Y-83140273D01*
X97680147Y-83401426D01*
X97625000Y-83678665D01*
X90385000Y-83678665D01*
X90385000Y-83673740D01*
X90327932Y-83386842D01*
X90215990Y-83116589D01*
X90053475Y-82873368D01*
X89846632Y-82666525D01*
X89603411Y-82504010D01*
X89333158Y-82392068D01*
X89046260Y-82335000D01*
X88753740Y-82335000D01*
X88466842Y-82392068D01*
X88196589Y-82504010D01*
X87953368Y-82666525D01*
X87746525Y-82873368D01*
X87584010Y-83116589D01*
X87472068Y-83386842D01*
X87415000Y-83673740D01*
X87415000Y-83966260D01*
X87472068Y-84253158D01*
X87584010Y-84523411D01*
X87746525Y-84766632D01*
X87878380Y-84898487D01*
X87805820Y-84920498D01*
X87695506Y-84979463D01*
X87598815Y-85058815D01*
X87519463Y-85155506D01*
X87460498Y-85265820D01*
X87424188Y-85385518D01*
X87411928Y-85510000D01*
X85775000Y-85510000D01*
X85775000Y-79590000D01*
X87411928Y-79590000D01*
X87424188Y-79714482D01*
X87460498Y-79834180D01*
X87519463Y-79944494D01*
X87598815Y-80041185D01*
X87695506Y-80120537D01*
X87805820Y-80179502D01*
X87925518Y-80215812D01*
X88050000Y-80228072D01*
X88614250Y-80225000D01*
X88773000Y-80066250D01*
X88773000Y-78867000D01*
X89027000Y-78867000D01*
X89027000Y-80066250D01*
X89185750Y-80225000D01*
X89750000Y-80228072D01*
X89874482Y-80215812D01*
X89994180Y-80179502D01*
X90104494Y-80120537D01*
X90201185Y-80041185D01*
X90280537Y-79944494D01*
X90339502Y-79834180D01*
X90375812Y-79714482D01*
X90388072Y-79590000D01*
X90385000Y-79025750D01*
X90226250Y-78867000D01*
X89027000Y-78867000D01*
X88773000Y-78867000D01*
X87573750Y-78867000D01*
X87415000Y-79025750D01*
X87411928Y-79590000D01*
X85775000Y-79590000D01*
X85775000Y-77890000D01*
X87411928Y-77890000D01*
X87415000Y-78454250D01*
X87573750Y-78613000D01*
X88773000Y-78613000D01*
X88773000Y-78593000D01*
X89027000Y-78593000D01*
X89027000Y-78613000D01*
X90226250Y-78613000D01*
X90385000Y-78454250D01*
X90388072Y-77890000D01*
X90375812Y-77765518D01*
X90339502Y-77645820D01*
X90280537Y-77535506D01*
X90201185Y-77438815D01*
X90104494Y-77359463D01*
X89994180Y-77300498D01*
X89921620Y-77278487D01*
X90053475Y-77146632D01*
X90151451Y-77000000D01*
X92541928Y-77000000D01*
X92554188Y-77124482D01*
X92590498Y-77244180D01*
X92649463Y-77354494D01*
X92728815Y-77451185D01*
X92825506Y-77530537D01*
X92935820Y-77589502D01*
X93055518Y-77625812D01*
X93063961Y-77626643D01*
X92865363Y-77825241D01*
X92708320Y-78060273D01*
X92600147Y-78321426D01*
X92545000Y-78598665D01*
X92545000Y-78881335D01*
X92600147Y-79158574D01*
X92708320Y-79419727D01*
X92865363Y-79654759D01*
X93065241Y-79854637D01*
X93300273Y-80011680D01*
X93561426Y-80119853D01*
X93838665Y-80175000D01*
X94121335Y-80175000D01*
X94398574Y-80119853D01*
X94659727Y-80011680D01*
X94894759Y-79854637D01*
X95094637Y-79654759D01*
X95251680Y-79419727D01*
X95359853Y-79158574D01*
X95415000Y-78881335D01*
X95415000Y-78598665D01*
X95359853Y-78321426D01*
X95251680Y-78060273D01*
X95094637Y-77825241D01*
X94896039Y-77626643D01*
X94904482Y-77625812D01*
X95024180Y-77589502D01*
X95134494Y-77530537D01*
X95231185Y-77451185D01*
X95310537Y-77354494D01*
X95369502Y-77244180D01*
X95405812Y-77124482D01*
X95418072Y-77000000D01*
X95415000Y-76485750D01*
X95256250Y-76327000D01*
X94107000Y-76327000D01*
X94107000Y-76347000D01*
X93853000Y-76347000D01*
X93853000Y-76327000D01*
X92703750Y-76327000D01*
X92545000Y-76485750D01*
X92541928Y-77000000D01*
X90151451Y-77000000D01*
X90215990Y-76903411D01*
X90327932Y-76633158D01*
X90385000Y-76346260D01*
X90385000Y-76053740D01*
X90327932Y-75766842D01*
X90215990Y-75496589D01*
X90151452Y-75400000D01*
X92541928Y-75400000D01*
X92545000Y-75914250D01*
X92703750Y-76073000D01*
X93853000Y-76073000D01*
X93853000Y-74923750D01*
X94107000Y-74923750D01*
X94107000Y-76073000D01*
X95256250Y-76073000D01*
X95415000Y-75914250D01*
X95418072Y-75400000D01*
X95405812Y-75275518D01*
X95369502Y-75155820D01*
X95310537Y-75045506D01*
X95231185Y-74948815D01*
X95134494Y-74869463D01*
X95024180Y-74810498D01*
X94904482Y-74774188D01*
X94780000Y-74761928D01*
X94265750Y-74765000D01*
X94107000Y-74923750D01*
X93853000Y-74923750D01*
X93694250Y-74765000D01*
X93180000Y-74761928D01*
X93055518Y-74774188D01*
X92935820Y-74810498D01*
X92825506Y-74869463D01*
X92728815Y-74948815D01*
X92649463Y-75045506D01*
X92590498Y-75155820D01*
X92554188Y-75275518D01*
X92541928Y-75400000D01*
X90151452Y-75400000D01*
X90053475Y-75253368D01*
X89846632Y-75046525D01*
X89603411Y-74884010D01*
X89333158Y-74772068D01*
X89046260Y-74715000D01*
X88753740Y-74715000D01*
X88466842Y-74772068D01*
X88196589Y-74884010D01*
X87953368Y-75046525D01*
X87746525Y-75253368D01*
X87584010Y-75496589D01*
X87472068Y-75766842D01*
X87415000Y-76053740D01*
X87415000Y-76346260D01*
X87472068Y-76633158D01*
X87584010Y-76903411D01*
X87746525Y-77146632D01*
X87878380Y-77278487D01*
X87805820Y-77300498D01*
X87695506Y-77359463D01*
X87598815Y-77438815D01*
X87519463Y-77535506D01*
X87460498Y-77645820D01*
X87424188Y-77765518D01*
X87411928Y-77890000D01*
X85775000Y-77890000D01*
X85775000Y-71970000D01*
X87411928Y-71970000D01*
X87424188Y-72094482D01*
X87460498Y-72214180D01*
X87519463Y-72324494D01*
X87598815Y-72421185D01*
X87695506Y-72500537D01*
X87805820Y-72559502D01*
X87925518Y-72595812D01*
X88050000Y-72608072D01*
X88614250Y-72605000D01*
X88773000Y-72446250D01*
X88773000Y-71247000D01*
X89027000Y-71247000D01*
X89027000Y-72446250D01*
X89185750Y-72605000D01*
X89750000Y-72608072D01*
X89874482Y-72595812D01*
X89994180Y-72559502D01*
X90104494Y-72500537D01*
X90201185Y-72421185D01*
X90280537Y-72324494D01*
X90339502Y-72214180D01*
X90375812Y-72094482D01*
X90388072Y-71970000D01*
X90385000Y-71405750D01*
X90226250Y-71247000D01*
X89027000Y-71247000D01*
X88773000Y-71247000D01*
X87573750Y-71247000D01*
X87415000Y-71405750D01*
X87411928Y-71970000D01*
X85775000Y-71970000D01*
X85775000Y-70270000D01*
X87411928Y-70270000D01*
X87415000Y-70834250D01*
X87573750Y-70993000D01*
X88773000Y-70993000D01*
X88773000Y-70973000D01*
X89027000Y-70973000D01*
X89027000Y-70993000D01*
X90226250Y-70993000D01*
X90385000Y-70834250D01*
X90388072Y-70270000D01*
X90375812Y-70145518D01*
X90339502Y-70025820D01*
X90280537Y-69915506D01*
X90201185Y-69818815D01*
X90104494Y-69739463D01*
X89994180Y-69680498D01*
X89921620Y-69658487D01*
X90053475Y-69526632D01*
X90094656Y-69465000D01*
X98381531Y-69465000D01*
X98425000Y-69469281D01*
X98468469Y-69465000D01*
X98468477Y-69465000D01*
X98598490Y-69452195D01*
X98765313Y-69401589D01*
X98836341Y-69363624D01*
X98918665Y-69380000D01*
X99201335Y-69380000D01*
X99236439Y-69373017D01*
X99545349Y-69681928D01*
X98260000Y-69681928D01*
X98135518Y-69694188D01*
X98015820Y-69730498D01*
X97905506Y-69789463D01*
X97808815Y-69868815D01*
X97729463Y-69965506D01*
X97670498Y-70075820D01*
X97634188Y-70195518D01*
X97621928Y-70320000D01*
X97621928Y-71920000D01*
X97634188Y-72044482D01*
X97670498Y-72164180D01*
X97729463Y-72274494D01*
X97808815Y-72371185D01*
X97905506Y-72450537D01*
X98015820Y-72509502D01*
X98135518Y-72545812D01*
X98260000Y-72558072D01*
X99762500Y-72558072D01*
X99762500Y-73038537D01*
X99739727Y-73023320D01*
X99478574Y-72915147D01*
X99201335Y-72860000D01*
X98918665Y-72860000D01*
X98641426Y-72915147D01*
X98380273Y-73023320D01*
X98145241Y-73180363D01*
X97945363Y-73380241D01*
X97788320Y-73615273D01*
X97680147Y-73876426D01*
X97625000Y-74153665D01*
X97625000Y-74436335D01*
X97680147Y-74713574D01*
X97788320Y-74974727D01*
X97945363Y-75209759D01*
X98145241Y-75409637D01*
X98380273Y-75566680D01*
X98641426Y-75674853D01*
X98918665Y-75730000D01*
X99201335Y-75730000D01*
X99478574Y-75674853D01*
X99739727Y-75566680D01*
X99762501Y-75551463D01*
X99762501Y-76213537D01*
X99739727Y-76198320D01*
X99478574Y-76090147D01*
X99201335Y-76035000D01*
X98918665Y-76035000D01*
X98641426Y-76090147D01*
X98380273Y-76198320D01*
X98145241Y-76355363D01*
X97945363Y-76555241D01*
X97788320Y-76790273D01*
X97680147Y-77051426D01*
X97625000Y-77328665D01*
X97625000Y-77611335D01*
X97680147Y-77888574D01*
X97788320Y-78149727D01*
X97945363Y-78384759D01*
X98145241Y-78584637D01*
X98380273Y-78741680D01*
X98641426Y-78849853D01*
X98918665Y-78905000D01*
X99201335Y-78905000D01*
X99478574Y-78849853D01*
X99691952Y-78761469D01*
X99236439Y-79216983D01*
X99201335Y-79210000D01*
X98918665Y-79210000D01*
X98641426Y-79265147D01*
X98380273Y-79373320D01*
X98145241Y-79530363D01*
X97945363Y-79730241D01*
X97788320Y-79965273D01*
X97680147Y-80226426D01*
X97625000Y-80503665D01*
X97625000Y-80786335D01*
X97680147Y-81063574D01*
X97788320Y-81324727D01*
X97945363Y-81559759D01*
X98145241Y-81759637D01*
X98380273Y-81916680D01*
X98641426Y-82024853D01*
X98918665Y-82080000D01*
X99201335Y-82080000D01*
X99478574Y-82024853D01*
X99739727Y-81916680D01*
X99974759Y-81759637D01*
X100174637Y-81559759D01*
X100331680Y-81324727D01*
X100439853Y-81063574D01*
X100495000Y-80786335D01*
X100495000Y-80503665D01*
X105245000Y-80503665D01*
X105245000Y-80786335D01*
X105300147Y-81063574D01*
X105408320Y-81324727D01*
X105565363Y-81559759D01*
X105765241Y-81759637D01*
X106000273Y-81916680D01*
X106261426Y-82024853D01*
X106538665Y-82080000D01*
X106821335Y-82080000D01*
X115401928Y-82080000D01*
X115414188Y-82204482D01*
X115450498Y-82324180D01*
X115509463Y-82434494D01*
X115588815Y-82531185D01*
X115685506Y-82610537D01*
X115795820Y-82669502D01*
X115915518Y-82705812D01*
X116040000Y-82718072D01*
X116554250Y-82715000D01*
X116713000Y-82556250D01*
X116713000Y-81407000D01*
X115563750Y-81407000D01*
X115405000Y-81565750D01*
X115401928Y-82080000D01*
X106821335Y-82080000D01*
X107098574Y-82024853D01*
X107359727Y-81916680D01*
X107594759Y-81759637D01*
X107794637Y-81559759D01*
X107951680Y-81324727D01*
X108059853Y-81063574D01*
X108115000Y-80786335D01*
X108115000Y-80503665D01*
X108110293Y-80480000D01*
X115401928Y-80480000D01*
X115405000Y-80994250D01*
X115563750Y-81153000D01*
X116713000Y-81153000D01*
X116713000Y-80003750D01*
X116554250Y-79845000D01*
X116040000Y-79841928D01*
X115915518Y-79854188D01*
X115795820Y-79890498D01*
X115685506Y-79949463D01*
X115588815Y-80028815D01*
X115509463Y-80125506D01*
X115450498Y-80235820D01*
X115414188Y-80355518D01*
X115401928Y-80480000D01*
X108110293Y-80480000D01*
X108059853Y-80226426D01*
X107951680Y-79965273D01*
X107794637Y-79730241D01*
X107594759Y-79530363D01*
X107359727Y-79373320D01*
X107098574Y-79265147D01*
X106821335Y-79210000D01*
X106538665Y-79210000D01*
X106261426Y-79265147D01*
X106000273Y-79373320D01*
X105765241Y-79530363D01*
X105565363Y-79730241D01*
X105408320Y-79965273D01*
X105300147Y-80226426D01*
X105245000Y-80503665D01*
X100495000Y-80503665D01*
X100488017Y-80468561D01*
X101242550Y-79714029D01*
X101276317Y-79686317D01*
X101386911Y-79551559D01*
X101469089Y-79397813D01*
X101519695Y-79230990D01*
X101532500Y-79100977D01*
X101532500Y-79100967D01*
X101536781Y-79057501D01*
X101532500Y-79014034D01*
X101532500Y-77328665D01*
X105245000Y-77328665D01*
X105245000Y-77611335D01*
X105300147Y-77888574D01*
X105408320Y-78149727D01*
X105565363Y-78384759D01*
X105765241Y-78584637D01*
X106000273Y-78741680D01*
X106261426Y-78849853D01*
X106538665Y-78905000D01*
X106821335Y-78905000D01*
X107098574Y-78849853D01*
X107359727Y-78741680D01*
X107594759Y-78584637D01*
X107794637Y-78384759D01*
X107951680Y-78149727D01*
X108059853Y-77888574D01*
X108115000Y-77611335D01*
X108115000Y-77470000D01*
X110369388Y-77470000D01*
X110391785Y-77697400D01*
X110455093Y-77906098D01*
X110420498Y-77970820D01*
X110384188Y-78090518D01*
X110371928Y-78215000D01*
X110371928Y-79265000D01*
X110384188Y-79389482D01*
X110420498Y-79509180D01*
X110479463Y-79619494D01*
X110558815Y-79716185D01*
X110655506Y-79795537D01*
X110765820Y-79854502D01*
X110885518Y-79890812D01*
X111010000Y-79903072D01*
X112510000Y-79903072D01*
X112634482Y-79890812D01*
X112754180Y-79854502D01*
X112864494Y-79795537D01*
X112961185Y-79716185D01*
X113040537Y-79619494D01*
X113099502Y-79509180D01*
X113135812Y-79389482D01*
X113148072Y-79265000D01*
X113148072Y-78215000D01*
X113135812Y-78090518D01*
X113099502Y-77970820D01*
X113064907Y-77906098D01*
X113128215Y-77697400D01*
X113150612Y-77470000D01*
X113128215Y-77242600D01*
X113061885Y-77023940D01*
X112961071Y-76835331D01*
X113002275Y-76776882D01*
X113095272Y-76567337D01*
X113103964Y-76505810D01*
X112978163Y-76327000D01*
X112213109Y-76327000D01*
X112212400Y-76326785D01*
X112041979Y-76310000D01*
X111478021Y-76310000D01*
X111307600Y-76326785D01*
X111306891Y-76327000D01*
X110541837Y-76327000D01*
X110416036Y-76505810D01*
X110424728Y-76567337D01*
X110517725Y-76776882D01*
X110558929Y-76835331D01*
X110458115Y-77023940D01*
X110391785Y-77242600D01*
X110369388Y-77470000D01*
X108115000Y-77470000D01*
X108115000Y-77328665D01*
X108059853Y-77051426D01*
X107951680Y-76790273D01*
X107794637Y-76555241D01*
X107594759Y-76355363D01*
X107359727Y-76198320D01*
X107098574Y-76090147D01*
X106821335Y-76035000D01*
X106538665Y-76035000D01*
X106261426Y-76090147D01*
X106000273Y-76198320D01*
X105765241Y-76355363D01*
X105565363Y-76555241D01*
X105408320Y-76790273D01*
X105300147Y-77051426D01*
X105245000Y-77328665D01*
X101532500Y-77328665D01*
X101532500Y-75894190D01*
X110416036Y-75894190D01*
X110541837Y-76073000D01*
X111633000Y-76073000D01*
X111633000Y-75193402D01*
X111887000Y-75193402D01*
X111887000Y-76073000D01*
X112978163Y-76073000D01*
X113103964Y-75894190D01*
X113095272Y-75832663D01*
X113002275Y-75623118D01*
X112870184Y-75435742D01*
X112704076Y-75277736D01*
X112510334Y-75155172D01*
X112296404Y-75072761D01*
X112070507Y-75033669D01*
X111887000Y-75193402D01*
X111633000Y-75193402D01*
X111449493Y-75033669D01*
X111223596Y-75072761D01*
X111009666Y-75155172D01*
X110815924Y-75277736D01*
X110649816Y-75435742D01*
X110517725Y-75623118D01*
X110424728Y-75832663D01*
X110416036Y-75894190D01*
X101532500Y-75894190D01*
X101532500Y-74644039D01*
X105288096Y-74644039D01*
X105328754Y-74778087D01*
X105448963Y-75032420D01*
X105616481Y-75258414D01*
X105824869Y-75447385D01*
X106066119Y-75592070D01*
X106330960Y-75686909D01*
X106553000Y-75565624D01*
X106553000Y-74422000D01*
X106807000Y-74422000D01*
X106807000Y-75565624D01*
X107029040Y-75686909D01*
X107293881Y-75592070D01*
X107535131Y-75447385D01*
X107743519Y-75258414D01*
X107911037Y-75032420D01*
X108031246Y-74778087D01*
X108071904Y-74644039D01*
X107949915Y-74422000D01*
X106807000Y-74422000D01*
X106553000Y-74422000D01*
X105410085Y-74422000D01*
X105288096Y-74644039D01*
X101532500Y-74644039D01*
X101532500Y-73945961D01*
X105288096Y-73945961D01*
X105410085Y-74168000D01*
X106553000Y-74168000D01*
X106553000Y-73024376D01*
X106807000Y-73024376D01*
X106807000Y-74168000D01*
X107949915Y-74168000D01*
X108071904Y-73945961D01*
X108031246Y-73811913D01*
X107911037Y-73557580D01*
X107743519Y-73331586D01*
X107535131Y-73142615D01*
X107293881Y-72997930D01*
X107029040Y-72903091D01*
X106807000Y-73024376D01*
X106553000Y-73024376D01*
X106330960Y-72903091D01*
X106066119Y-72997930D01*
X105824869Y-73142615D01*
X105616481Y-73331586D01*
X105448963Y-73557580D01*
X105328754Y-73811913D01*
X105288096Y-73945961D01*
X101532500Y-73945961D01*
X101532500Y-71469039D01*
X105288096Y-71469039D01*
X105328754Y-71603087D01*
X105448963Y-71857420D01*
X105616481Y-72083414D01*
X105824869Y-72272385D01*
X106066119Y-72417070D01*
X106330960Y-72511909D01*
X106553000Y-72390624D01*
X106553000Y-71247000D01*
X106807000Y-71247000D01*
X106807000Y-72390624D01*
X107029040Y-72511909D01*
X107293881Y-72417070D01*
X107535131Y-72272385D01*
X107743519Y-72083414D01*
X107911037Y-71857420D01*
X108031246Y-71603087D01*
X108071904Y-71469039D01*
X107949915Y-71247000D01*
X106807000Y-71247000D01*
X106553000Y-71247000D01*
X105410085Y-71247000D01*
X105288096Y-71469039D01*
X101532500Y-71469039D01*
X101532500Y-70417500D01*
X105432458Y-70417500D01*
X105328754Y-70636913D01*
X105288096Y-70770961D01*
X105410085Y-70993000D01*
X106553000Y-70993000D01*
X106553000Y-70973000D01*
X106807000Y-70973000D01*
X106807000Y-70993000D01*
X107949915Y-70993000D01*
X108071904Y-70770961D01*
X108031246Y-70636913D01*
X107927542Y-70417500D01*
X112345922Y-70417500D01*
X115411983Y-73483561D01*
X115405000Y-73518665D01*
X115405000Y-73801335D01*
X115460147Y-74078574D01*
X115568320Y-74339727D01*
X115725363Y-74574759D01*
X115925241Y-74774637D01*
X116160273Y-74931680D01*
X116421426Y-75039853D01*
X116698665Y-75095000D01*
X116981335Y-75095000D01*
X117016439Y-75088017D01*
X121774291Y-79845870D01*
X121501426Y-79900147D01*
X121240273Y-80008320D01*
X121005241Y-80165363D01*
X120805363Y-80365241D01*
X120650000Y-80597759D01*
X120494637Y-80365241D01*
X120294759Y-80165363D01*
X120059727Y-80008320D01*
X119798574Y-79900147D01*
X119521335Y-79845000D01*
X119238665Y-79845000D01*
X118961426Y-79900147D01*
X118700273Y-80008320D01*
X118465241Y-80165363D01*
X118266643Y-80363961D01*
X118265812Y-80355518D01*
X118229502Y-80235820D01*
X118170537Y-80125506D01*
X118091185Y-80028815D01*
X117994494Y-79949463D01*
X117884180Y-79890498D01*
X117764482Y-79854188D01*
X117640000Y-79841928D01*
X117125750Y-79845000D01*
X116967000Y-80003750D01*
X116967000Y-81153000D01*
X116987000Y-81153000D01*
X116987000Y-81407000D01*
X116967000Y-81407000D01*
X116967000Y-82556250D01*
X117125750Y-82715000D01*
X117640000Y-82718072D01*
X117764482Y-82705812D01*
X117884180Y-82669502D01*
X117994494Y-82610537D01*
X118091185Y-82531185D01*
X118170537Y-82434494D01*
X118229502Y-82324180D01*
X118265812Y-82204482D01*
X118266643Y-82196039D01*
X118465241Y-82394637D01*
X118700273Y-82551680D01*
X118961426Y-82659853D01*
X119238665Y-82715000D01*
X119521335Y-82715000D01*
X119798574Y-82659853D01*
X120059727Y-82551680D01*
X120294759Y-82394637D01*
X120494637Y-82194759D01*
X120650000Y-81962241D01*
X120805363Y-82194759D01*
X121005241Y-82394637D01*
X121240273Y-82551680D01*
X121501426Y-82659853D01*
X121778665Y-82715000D01*
X122061335Y-82715000D01*
X122338574Y-82659853D01*
X122599727Y-82551680D01*
X122834759Y-82394637D01*
X123034637Y-82194759D01*
X123190000Y-81962241D01*
X123345363Y-82194759D01*
X123545241Y-82394637D01*
X123780273Y-82551680D01*
X124041426Y-82659853D01*
X124318665Y-82715000D01*
X124601335Y-82715000D01*
X124878574Y-82659853D01*
X125139727Y-82551680D01*
X125374759Y-82394637D01*
X125574637Y-82194759D01*
X125731680Y-81959727D01*
X125839853Y-81698574D01*
X125895000Y-81421335D01*
X125895000Y-81138665D01*
X125839853Y-80861426D01*
X125731680Y-80600273D01*
X125667129Y-80503665D01*
X128105000Y-80503665D01*
X128105000Y-80786335D01*
X128160147Y-81063574D01*
X128268320Y-81324727D01*
X128425363Y-81559759D01*
X128625241Y-81759637D01*
X128860273Y-81916680D01*
X129121426Y-82024853D01*
X129398665Y-82080000D01*
X129681335Y-82080000D01*
X129958574Y-82024853D01*
X130219727Y-81916680D01*
X130454759Y-81759637D01*
X130654637Y-81559759D01*
X130811680Y-81324727D01*
X130919853Y-81063574D01*
X130975000Y-80786335D01*
X130975000Y-80503665D01*
X130919853Y-80226426D01*
X130811680Y-79965273D01*
X130654637Y-79730241D01*
X130454759Y-79530363D01*
X130219727Y-79373320D01*
X129958574Y-79265147D01*
X129681335Y-79210000D01*
X129398665Y-79210000D01*
X129121426Y-79265147D01*
X128860273Y-79373320D01*
X128625241Y-79530363D01*
X128425363Y-79730241D01*
X128268320Y-79965273D01*
X128160147Y-80226426D01*
X128105000Y-80503665D01*
X125667129Y-80503665D01*
X125574637Y-80365241D01*
X125374759Y-80165363D01*
X125139727Y-80008320D01*
X124878574Y-79900147D01*
X124601335Y-79845000D01*
X124318665Y-79845000D01*
X124283562Y-79851983D01*
X119719281Y-75287702D01*
X128726903Y-75287702D01*
X128798486Y-75531671D01*
X129053996Y-75652571D01*
X129328184Y-75721300D01*
X129610512Y-75735217D01*
X129890130Y-75693787D01*
X130156292Y-75598603D01*
X130281514Y-75531671D01*
X130353097Y-75287702D01*
X129540000Y-74474605D01*
X128726903Y-75287702D01*
X119719281Y-75287702D01*
X119525708Y-75094130D01*
X119798574Y-75039853D01*
X120059727Y-74931680D01*
X120294759Y-74774637D01*
X120494637Y-74574759D01*
X120650000Y-74342241D01*
X120805363Y-74574759D01*
X121005241Y-74774637D01*
X121240273Y-74931680D01*
X121501426Y-75039853D01*
X121778665Y-75095000D01*
X122061335Y-75095000D01*
X122338574Y-75039853D01*
X122599727Y-74931680D01*
X122834759Y-74774637D01*
X123034637Y-74574759D01*
X123190000Y-74342241D01*
X123345363Y-74574759D01*
X123545241Y-74774637D01*
X123780273Y-74931680D01*
X124041426Y-75039853D01*
X124318665Y-75095000D01*
X124601335Y-75095000D01*
X124878574Y-75039853D01*
X125139727Y-74931680D01*
X125374759Y-74774637D01*
X125574637Y-74574759D01*
X125714451Y-74365512D01*
X128099783Y-74365512D01*
X128141213Y-74645130D01*
X128236397Y-74911292D01*
X128303329Y-75036514D01*
X128547298Y-75108097D01*
X129360395Y-74295000D01*
X129719605Y-74295000D01*
X130532702Y-75108097D01*
X130776671Y-75036514D01*
X130897571Y-74781004D01*
X130966300Y-74506816D01*
X130980217Y-74224488D01*
X130938787Y-73944870D01*
X130843603Y-73678708D01*
X130776671Y-73553486D01*
X130532702Y-73481903D01*
X129719605Y-74295000D01*
X129360395Y-74295000D01*
X128547298Y-73481903D01*
X128303329Y-73553486D01*
X128182429Y-73808996D01*
X128113700Y-74083184D01*
X128099783Y-74365512D01*
X125714451Y-74365512D01*
X125731680Y-74339727D01*
X125839853Y-74078574D01*
X125895000Y-73801335D01*
X125895000Y-73518665D01*
X125851962Y-73302298D01*
X128726903Y-73302298D01*
X129540000Y-74115395D01*
X130353097Y-73302298D01*
X130281514Y-73058329D01*
X130026004Y-72937429D01*
X129751816Y-72868700D01*
X129469488Y-72854783D01*
X129189870Y-72896213D01*
X128923708Y-72991397D01*
X128798486Y-73058329D01*
X128726903Y-73302298D01*
X125851962Y-73302298D01*
X125839853Y-73241426D01*
X125731680Y-72980273D01*
X125574637Y-72745241D01*
X125374759Y-72545363D01*
X125139727Y-72388320D01*
X124878574Y-72280147D01*
X124601335Y-72225000D01*
X124318665Y-72225000D01*
X124041426Y-72280147D01*
X123780273Y-72388320D01*
X123545241Y-72545363D01*
X123345363Y-72745241D01*
X123190000Y-72977759D01*
X123034637Y-72745241D01*
X122834759Y-72545363D01*
X122599727Y-72388320D01*
X122338574Y-72280147D01*
X122061335Y-72225000D01*
X121778665Y-72225000D01*
X121501426Y-72280147D01*
X121240273Y-72388320D01*
X121005241Y-72545363D01*
X120805363Y-72745241D01*
X120650000Y-72977759D01*
X120494637Y-72745241D01*
X120294759Y-72545363D01*
X120059727Y-72388320D01*
X119798574Y-72280147D01*
X119521335Y-72225000D01*
X119238665Y-72225000D01*
X118961426Y-72280147D01*
X118700273Y-72388320D01*
X118465241Y-72545363D01*
X118265363Y-72745241D01*
X118110000Y-72977759D01*
X117954637Y-72745241D01*
X117754759Y-72545363D01*
X117519727Y-72388320D01*
X117258574Y-72280147D01*
X116981335Y-72225000D01*
X116698665Y-72225000D01*
X116663561Y-72231983D01*
X113369034Y-68937456D01*
X113341317Y-68903683D01*
X113206559Y-68793089D01*
X113052813Y-68710911D01*
X112885990Y-68660305D01*
X112755977Y-68647500D01*
X112755969Y-68647500D01*
X112712500Y-68643219D01*
X112669031Y-68647500D01*
X107936464Y-68647500D01*
X107951680Y-68624727D01*
X108028749Y-68438665D01*
X116675000Y-68438665D01*
X116675000Y-68721335D01*
X116730147Y-68998574D01*
X116838320Y-69259727D01*
X116995363Y-69494759D01*
X117195241Y-69694637D01*
X117430273Y-69851680D01*
X117691426Y-69959853D01*
X117968665Y-70015000D01*
X118251335Y-70015000D01*
X118528574Y-69959853D01*
X118789727Y-69851680D01*
X119024759Y-69694637D01*
X119224637Y-69494759D01*
X119380000Y-69262241D01*
X119535363Y-69494759D01*
X119735241Y-69694637D01*
X119970273Y-69851680D01*
X120231426Y-69959853D01*
X120508665Y-70015000D01*
X120791335Y-70015000D01*
X121068574Y-69959853D01*
X121329727Y-69851680D01*
X121564759Y-69694637D01*
X121764637Y-69494759D01*
X121920000Y-69262241D01*
X122075363Y-69494759D01*
X122275241Y-69694637D01*
X122510273Y-69851680D01*
X122771426Y-69959853D01*
X123048665Y-70015000D01*
X123331335Y-70015000D01*
X123608574Y-69959853D01*
X123869727Y-69851680D01*
X124104759Y-69694637D01*
X124304637Y-69494759D01*
X124461680Y-69259727D01*
X124505612Y-69153665D01*
X128105000Y-69153665D01*
X128105000Y-69436335D01*
X128160147Y-69713574D01*
X128268320Y-69974727D01*
X128425363Y-70209759D01*
X128625241Y-70409637D01*
X128860273Y-70566680D01*
X129121426Y-70674853D01*
X129398665Y-70730000D01*
X129681335Y-70730000D01*
X129958574Y-70674853D01*
X130219727Y-70566680D01*
X130454759Y-70409637D01*
X130654637Y-70209759D01*
X130811680Y-69974727D01*
X130919853Y-69713574D01*
X130975000Y-69436335D01*
X130975000Y-69153665D01*
X130919853Y-68876426D01*
X130811680Y-68615273D01*
X130654637Y-68380241D01*
X130454759Y-68180363D01*
X130219727Y-68023320D01*
X129958574Y-67915147D01*
X129681335Y-67860000D01*
X129398665Y-67860000D01*
X129121426Y-67915147D01*
X128860273Y-68023320D01*
X128625241Y-68180363D01*
X128425363Y-68380241D01*
X128268320Y-68615273D01*
X128160147Y-68876426D01*
X128105000Y-69153665D01*
X124505612Y-69153665D01*
X124569853Y-68998574D01*
X124625000Y-68721335D01*
X124625000Y-68438665D01*
X124569853Y-68161426D01*
X124461680Y-67900273D01*
X124304637Y-67665241D01*
X124104759Y-67465363D01*
X123869727Y-67308320D01*
X123608574Y-67200147D01*
X123331335Y-67145000D01*
X123048665Y-67145000D01*
X122771426Y-67200147D01*
X122510273Y-67308320D01*
X122275241Y-67465363D01*
X122075363Y-67665241D01*
X121920000Y-67897759D01*
X121764637Y-67665241D01*
X121564759Y-67465363D01*
X121329727Y-67308320D01*
X121068574Y-67200147D01*
X120791335Y-67145000D01*
X120508665Y-67145000D01*
X120231426Y-67200147D01*
X119970273Y-67308320D01*
X119735241Y-67465363D01*
X119535363Y-67665241D01*
X119380000Y-67897759D01*
X119224637Y-67665241D01*
X119024759Y-67465363D01*
X118789727Y-67308320D01*
X118528574Y-67200147D01*
X118251335Y-67145000D01*
X117968665Y-67145000D01*
X117691426Y-67200147D01*
X117430273Y-67308320D01*
X117195241Y-67465363D01*
X116995363Y-67665241D01*
X116838320Y-67900273D01*
X116730147Y-68161426D01*
X116675000Y-68438665D01*
X108028749Y-68438665D01*
X108059853Y-68363574D01*
X108115000Y-68086335D01*
X108115000Y-67803665D01*
X108059853Y-67526426D01*
X107951680Y-67265273D01*
X107794637Y-67030241D01*
X107594759Y-66830363D01*
X107359727Y-66673320D01*
X107098574Y-66565147D01*
X106821335Y-66510000D01*
X106538665Y-66510000D01*
X106261426Y-66565147D01*
X106000273Y-66673320D01*
X105765241Y-66830363D01*
X105565363Y-67030241D01*
X105408320Y-67265273D01*
X105300147Y-67526426D01*
X105245000Y-67803665D01*
X105245000Y-68086335D01*
X105300147Y-68363574D01*
X105408320Y-68624727D01*
X105423536Y-68647500D01*
X101014079Y-68647500D01*
X100488017Y-68121439D01*
X100495000Y-68086335D01*
X100495000Y-67803665D01*
X100439853Y-67526426D01*
X100331680Y-67265273D01*
X100174637Y-67030241D01*
X99974759Y-66830363D01*
X99739727Y-66673320D01*
X99478574Y-66565147D01*
X99201335Y-66510000D01*
X98918665Y-66510000D01*
X98641426Y-66565147D01*
X98380273Y-66673320D01*
X98145241Y-66830363D01*
X97945363Y-67030241D01*
X97788320Y-67265273D01*
X97680147Y-67526426D01*
X97646615Y-67695000D01*
X90094656Y-67695000D01*
X90053475Y-67633368D01*
X89846632Y-67426525D01*
X89603411Y-67264010D01*
X89333158Y-67152068D01*
X89046260Y-67095000D01*
X88753740Y-67095000D01*
X88466842Y-67152068D01*
X88196589Y-67264010D01*
X87953368Y-67426525D01*
X87746525Y-67633368D01*
X87584010Y-67876589D01*
X87472068Y-68146842D01*
X87415000Y-68433740D01*
X87415000Y-68726260D01*
X87472068Y-69013158D01*
X87584010Y-69283411D01*
X87746525Y-69526632D01*
X87878380Y-69658487D01*
X87805820Y-69680498D01*
X87695506Y-69739463D01*
X87598815Y-69818815D01*
X87519463Y-69915506D01*
X87460498Y-70025820D01*
X87424188Y-70145518D01*
X87411928Y-70270000D01*
X85775000Y-70270000D01*
X85775000Y-65455000D01*
X92443094Y-65455000D01*
X92491447Y-65607430D01*
G37*
%TD.AperFunction*%
%TD*%
M02*
