M48
; DRILL file {KiCad 5.1.7-a382d34a8~88~ubuntu16.04.1} date Wed Jun 30 18:43:00 2021
; FORMAT={-:-/ absolute / metric / decimal}
; #@! TF.CreationDate,2021-06-30T18:43:00+02:00
; #@! TF.GenerationSoftware,Kicad,Pcbnew,5.1.7-a382d34a8~88~ubuntu16.04.1
; #@! TF.FileFunction,Plated,1,2,PTH
FMAT,2
METRIC
T1C0.750
T2C0.800
T3C1.000
%
G90
G05
T1
X111.76Y-76.2
X111.76Y-77.47
X111.76Y-78.74
T2
X99.06Y-77.47
X106.68Y-77.47
X99.06Y-83.82
X106.68Y-83.82
X99.06Y-67.945
X106.68Y-67.945
X129.54Y-69.295
X129.54Y-74.295
X116.84Y-73.66
X116.84Y-81.28
X119.38Y-73.66
X119.38Y-81.28
X121.92Y-73.66
X121.92Y-81.28
X124.46Y-73.66
X124.46Y-81.28
X99.06Y-86.995
X106.68Y-86.995
X99.06Y-71.12
X106.68Y-71.12
X99.06Y-74.295
X106.68Y-74.295
X129.54Y-80.645
X129.54Y-85.645
X118.11Y-86.36
X120.65Y-86.36
X123.19Y-86.36
X118.11Y-68.58
X120.65Y-68.58
X123.19Y-68.58
X93.98Y-76.2
X93.98Y-78.74
X99.06Y-80.645
X106.68Y-80.645
T3
X88.9Y-76.2
X88.9Y-78.74
X88.9Y-68.58
X88.9Y-71.12
X88.9Y-83.82
X88.9Y-86.36
T0
M30
